if (_typeface_js && _typeface_js.loadFace) _typeface_js.loadFace({"glyphs":{"0":{"ha":836,"x_min":90,"x_max":746,"o":"m 418 -20 q 173 113 255 -20 q 90 505 90 247 q 173 898 90 764 q 418 1031 255 1031 q 559 998 498 1031 q 663 898 621 966 q 725 735 704 833 q 746 505 746 638 q 725 275 746 372 q 663 113 704 178 q 418 -20 580 -20 m 418 89 q 503 115 467 89 q 562 192 538 142 q 608 505 608 294 q 562 819 608 717 q 503 896 538 869 q 418 922 468 922 q 275 819 322 922 q 240 691 252 768 q 228 505 228 614 q 275 192 228 294 q 335 114 300 139 q 418 89 371 89 m 419 269 q 400 276 409 269 q 386 297 392 284 q 374 329 379 311 q 366 366 370 347 q 359 402 362 382 q 355 442 357 422 q 351 479 353 462 q 350 509 350 497 q 351 532 350 517 q 353 567 351 548 q 357 607 355 586 q 363 646 359 627 q 416 743 382 743 q 449 718 435 743 q 471 644 462 692 q 477 608 475 627 q 482 569 480 588 q 485 532 484 549 q 486 503 486 515 q 486 482 486 496 q 484 449 486 468 q 480 410 483 431 q 475 368 478 389 q 451 293 466 317 q 419 269 437 269 z "},"1":{"ha":836,"x_min":167,"x_max":742,"o":"m 183 115 l 396 115 l 396 889 l 167 838 l 167 962 l 395 1013 l 532 1013 l 532 115 l 742 115 l 742 0 l 183 0 l 183 115 z "},"2":{"ha":836,"x_min":103,"x_max":718,"o":"m 103 91 q 107 114 103 104 q 120 133 111 123 q 212 230 159 174 q 325 351 264 286 q 380 412 359 389 q 415 450 401 435 q 437 474 429 465 q 455 496 446 484 q 487 535 473 517 q 512 569 501 553 q 532 600 524 585 q 547 630 541 615 q 565 682 559 656 q 571 736 571 707 q 559 810 571 777 q 522 867 547 844 q 384 916 471 916 q 255 893 323 916 q 111 825 187 871 l 111 964 q 181 993 146 981 q 249 1014 216 1006 q 316 1027 283 1023 q 382 1031 349 1031 q 514 1012 452 1031 q 622 952 576 993 q 687 864 663 916 q 711 747 711 812 q 704 680 711 713 q 682 614 696 647 q 665 581 674 597 q 643 547 655 564 q 616 512 631 530 q 583 471 602 493 q 536 418 564 448 q 473 349 509 387 q 426 299 448 321 q 379 252 404 277 q 323 195 355 227 q 246 115 292 163 l 718 115 l 718 0 l 103 0 l 103 91 z "},"3":{"ha":836,"x_min":101,"x_max":740,"o":"m 384 -20 q 316 -17 351 -20 q 243 -7 280 -14 q 175 8 212 -1 q 101 31 138 18 l 101 169 q 169 137 136 151 q 237 113 202 123 q 304 100 271 104 q 371 96 337 96 q 544 146 484 96 q 589 209 574 172 q 604 291 604 245 q 545 433 604 382 q 474 472 515 458 q 380 485 433 485 l 276 485 l 276 597 l 380 597 q 528 639 475 597 q 581 756 581 680 q 568 823 581 793 q 532 874 556 853 q 389 916 484 916 q 330 912 361 916 q 267 902 299 909 q 132 861 201 888 l 132 987 q 278 1020 214 1008 q 393 1031 340 1031 q 524 1013 464 1031 q 629 957 584 994 q 693 872 671 922 q 716 761 716 823 q 704 682 716 717 q 670 621 692 648 q 534 542 624 566 q 687 448 634 515 q 727 370 715 413 q 740 279 740 328 q 717 156 740 211 q 647 60 694 100 q 535 1 601 21 q 384 -20 470 -20 z "},"4":{"ha":836,"x_min":69,"x_max":770,"o":"m 498 241 l 69 241 l 69 371 l 476 1013 l 635 1013 l 635 353 l 770 353 l 770 241 l 635 241 l 635 0 l 498 0 l 498 241 m 498 353 l 498 888 l 179 353 l 498 353 z "},"5":{"ha":836,"x_min":97,"x_max":725,"o":"m 356 -20 q 288 -17 326 -20 q 217 -9 250 -14 q 153 5 182 -3 q 97 24 124 13 l 97 163 q 222 113 160 129 q 348 96 286 96 q 526 155 466 96 q 587 323 587 215 q 570 425 587 382 q 524 494 553 467 q 451 538 496 522 q 345 554 406 554 q 293 551 319 554 q 240 542 266 548 q 189 526 215 536 q 140 504 162 515 l 140 1013 l 653 1013 l 653 897 l 265 897 l 265 648 q 324 665 294 659 q 384 669 352 669 q 528 644 466 669 q 633 576 591 619 q 702 466 680 530 q 725 326 725 403 q 701 182 725 246 q 629 72 676 117 q 515 4 583 27 q 356 -20 448 -20 z "},"6":{"ha":836,"x_min":90,"x_max":746,"o":"m 429 -20 q 275 13 336 -20 q 173 108 213 46 q 110 271 130 174 q 90 491 90 367 q 115 730 90 631 q 189 897 140 830 q 309 997 237 963 q 473 1031 380 1031 q 527 1028 501 1031 q 575 1021 553 1025 q 626 1007 602 1015 q 672 990 650 999 l 672 864 q 628 886 652 876 q 581 903 604 897 q 532 912 557 909 q 482 916 506 916 q 283 818 350 916 q 216 529 216 719 q 307 633 249 597 q 370 661 337 652 q 444 669 404 669 q 569 647 512 669 q 666 580 625 625 q 726 471 707 535 q 746 326 746 406 q 725 179 746 243 q 664 71 705 115 q 565 3 623 26 q 429 -20 506 -20 m 429 87 q 508 102 473 87 q 565 148 542 117 q 611 325 611 208 q 565 503 611 442 q 507 548 541 534 q 430 562 472 562 q 348 546 382 562 q 290 500 313 529 q 253 426 267 470 q 240 325 240 382 q 253 223 240 267 q 290 150 267 180 q 348 104 313 121 q 429 87 382 87 z "},"7":{"ha":836,"x_min":94,"x_max":732,"o":"m 579 897 l 94 897 l 94 1013 l 732 1013 l 732 954 l 370 0 l 227 0 l 579 897 z "},"8":{"ha":836,"x_min":89,"x_max":747,"o":"m 417 -20 q 278 0 338 -20 q 176 57 218 20 q 112 147 134 94 q 89 271 89 200 q 143 448 89 379 q 298 538 197 515 q 222 569 257 548 q 162 621 186 590 q 124 690 136 652 q 113 771 113 728 q 133 877 113 829 q 195 960 153 924 q 290 1013 235 995 q 418 1031 345 1031 q 546 1013 490 1031 q 642 960 602 995 q 703 878 682 926 q 724 770 724 830 q 711 688 724 724 q 675 621 699 651 q 617 570 651 591 q 538 538 583 549 q 694 448 640 515 q 747 273 747 380 q 725 148 747 201 q 660 57 702 94 q 556 0 617 20 q 417 -20 495 -20 m 418 589 q 544 631 500 589 q 587 755 587 674 q 545 882 587 838 q 418 925 501 925 q 292 882 336 925 q 249 755 249 838 q 292 631 249 674 q 418 589 336 589 m 420 87 q 500 100 465 87 q 560 139 535 113 q 597 201 585 165 q 610 283 610 237 q 596 370 610 334 q 559 429 583 406 q 418 481 509 481 q 277 430 326 481 q 240 369 253 406 q 227 286 227 333 q 239 202 227 239 q 277 140 252 165 q 339 100 302 113 q 420 87 375 87 z "},"9":{"ha":836,"x_min":86,"x_max":742,"o":"m 358 -20 q 307 -17 333 -20 q 257 -9 281 -15 q 210 3 235 -5 q 160 21 184 12 l 160 147 q 205 125 182 134 q 251 109 229 115 q 351 96 300 96 q 549 194 481 96 q 615 482 615 292 q 576 421 600 448 q 526 378 552 395 q 386 342 469 342 q 262 365 318 342 q 167 432 207 387 q 86 685 86 523 q 106 830 86 765 q 169 942 126 896 q 269 1009 210 987 q 403 1031 328 1031 q 557 998 496 1031 q 659 903 619 965 q 722 739 703 836 q 742 519 742 642 q 719 284 742 385 q 644 115 695 183 q 522 14 594 47 q 358 -20 449 -20 m 402 449 q 484 466 450 449 q 542 511 519 482 q 578 585 566 541 q 591 686 591 629 q 578 788 591 744 q 542 861 566 831 q 484 907 519 890 q 402 924 450 924 q 326 909 360 924 q 267 864 291 895 q 221 686 221 804 q 267 509 221 569 q 325 464 290 478 q 402 449 359 449 z "},"\u0000":{"ha":0,"x_min":0,"x_max":0,"o":""},"\r":{"ha":836,"x_min":0,"x_max":0,"o":""}," ":{"ha":836,"x_min":0,"x_max":0,"o":""},"Â":{"ha":836,"x_min":25,"x_max":811,"o":"m 354 1256 l 482 1256 l 625 1076 l 530 1076 l 418 1196 l 306 1076 l 211 1076 l 354 1256 m 335 1013 l 501 1013 l 811 0 l 669 0 l 595 264 l 240 264 l 167 0 l 25 0 l 335 1013 m 562 374 l 418 892 l 273 374 l 562 374 z "},"Ä":{"ha":836,"x_min":25,"x_max":811,"o":"m 237 1117 q 216 1137 216 1117 l 216 1234 q 237 1255 216 1255 l 334 1255 q 354 1234 354 1255 l 354 1137 q 334 1117 354 1117 l 237 1117 m 503 1117 q 482 1137 482 1117 l 482 1234 q 503 1255 482 1255 l 599 1255 q 619 1234 619 1255 l 619 1137 q 599 1117 619 1117 l 503 1117 m 335 1013 l 501 1013 l 811 0 l 669 0 l 595 264 l 240 264 l 167 0 l 25 0 l 335 1013 m 562 374 l 418 892 l 273 374 l 562 374 z "},"À":{"ha":836,"x_min":25,"x_max":811,"o":"m 243 1254 l 368 1254 l 501 1075 l 397 1075 l 243 1254 m 335 1013 l 501 1013 l 811 0 l 669 0 l 595 264 l 240 264 l 167 0 l 25 0 l 335 1013 m 562 374 l 418 892 l 273 374 l 562 374 z "},"Ā":{"ha":836,"x_min":25,"x_max":811,"o":"m 215 1221 l 621 1221 l 621 1120 l 215 1120 l 215 1221 m 335 1013 l 501 1013 l 811 0 l 669 0 l 595 264 l 240 264 l 167 0 l 25 0 l 335 1013 m 562 374 l 418 892 l 273 374 l 562 374 z "},"Ą":{"ha":836,"x_min":25,"x_max":836,"o":"m 762 -184 q 799 -179 783 -184 q 836 -164 815 -174 l 836 -254 q 810 -261 821 -258 q 789 -265 799 -263 q 771 -267 780 -267 q 750 -268 762 -268 q 633 -239 673 -268 q 593 -151 593 -210 q 597 -117 593 -134 q 609 -82 601 -100 q 632 -44 618 -64 q 667 0 646 -24 l 669 0 l 595 264 l 240 264 l 167 0 l 25 0 l 335 1013 l 501 1013 l 811 0 l 747 0 q 701 -73 715 -44 q 688 -125 688 -102 q 707 -169 688 -153 q 762 -184 726 -184 m 562 374 l 418 892 l 273 374 l 562 374 z "},"Å":{"ha":836,"x_min":25,"x_max":811,"o":"m 315 949 q 280 977 295 960 q 254 1012 264 993 q 237 1056 243 1033 q 232 1102 232 1078 q 247 1176 232 1142 q 286 1236 261 1211 q 345 1275 311 1261 q 418 1289 379 1289 q 491 1275 457 1289 q 551 1235 526 1260 q 589 1177 574 1211 q 604 1102 604 1143 q 583 1013 604 1053 q 521 949 562 974 l 811 0 l 669 0 l 595 264 l 240 264 l 167 0 l 25 0 l 315 949 m 418 1000 q 459 1008 441 1000 q 491 1030 477 1017 q 521 1103 521 1060 q 513 1144 521 1126 q 491 1176 505 1162 q 456 1199 475 1192 q 417 1206 437 1206 q 345 1177 374 1206 q 315 1103 315 1147 q 345 1030 315 1060 q 418 1000 375 1000 m 562 374 l 418 889 l 273 374 l 562 374 z "},"Ã":{"ha":836,"x_min":25,"x_max":811,"o":"m 195 1076 q 203 1136 195 1109 q 230 1185 211 1163 q 323 1225 264 1225 q 368 1219 345 1225 q 391 1211 378 1217 q 421 1196 404 1205 l 460 1175 q 487 1162 474 1166 q 509 1158 498 1158 q 543 1176 530 1158 q 557 1221 557 1194 l 557 1225 l 642 1225 q 606 1117 641 1158 q 513 1076 571 1076 q 471 1082 492 1076 q 449 1089 461 1084 q 415 1105 436 1095 l 376 1128 q 349 1141 361 1137 q 338 1144 343 1143 q 329 1145 332 1145 q 309 1141 319 1145 q 293 1128 300 1137 q 279 1080 279 1110 l 279 1076 l 195 1076 m 335 1013 l 501 1013 l 811 0 l 669 0 l 595 264 l 240 264 l 167 0 l 25 0 l 335 1013 m 562 374 l 418 892 l 273 374 l 562 374 z "},"Æ":{"ha":836,"x_min":0,"x_max":800,"o":"m 278 1013 l 787 1013 l 787 897 l 558 897 l 558 597 l 766 597 l 766 482 l 558 482 l 558 115 l 800 115 l 800 0 l 432 0 l 432 260 l 193 260 l 125 0 l 0 0 l 278 1013 m 432 374 l 432 897 l 359 897 l 222 374 l 432 374 z "},"B":{"ha":836,"x_min":113,"x_max":771,"o":"m 113 1013 l 412 1013 q 652 945 567 1013 q 736 755 736 878 q 724 671 736 707 q 692 609 713 635 q 637 566 670 583 q 558 542 604 549 q 715 457 659 526 q 757 378 743 422 q 771 277 771 333 q 681 71 771 140 q 412 0 590 0 l 113 0 l 113 1013 m 410 595 q 496 604 461 595 q 553 633 531 614 q 597 753 597 671 q 587 822 597 794 q 554 866 576 849 q 410 900 510 900 l 250 900 l 250 595 l 410 595 m 412 113 q 583 155 531 113 q 633 292 633 196 q 580 437 633 391 q 412 484 526 484 l 250 484 l 250 113 l 412 113 z "},"C":{"ha":836,"x_min":94,"x_max":728,"o":"m 503 -20 q 332 14 408 -20 q 201 118 256 48 q 121 284 148 187 q 94 505 94 382 q 121 725 94 627 q 202 892 148 823 q 332 997 256 962 q 503 1031 408 1031 q 566 1027 536 1031 q 621 1017 596 1023 q 674 1000 645 1011 q 728 975 703 989 l 728 835 q 620 898 678 876 q 562 914 591 909 q 503 920 533 920 q 387 894 437 920 q 304 817 337 868 q 237 505 237 713 q 304 195 237 298 q 504 92 370 92 q 563 97 534 92 q 621 113 592 102 q 728 176 677 134 l 728 36 q 621 -6 675 8 q 564 -16 594 -13 q 503 -20 534 -20 z "},"Ć":{"ha":836,"x_min":94,"x_max":728,"o":"m 517 1256 l 643 1256 l 488 1077 l 383 1077 l 517 1256 m 503 -20 q 330 15 406 -20 q 201 118 254 50 q 121 284 148 187 q 94 505 94 382 q 121 725 94 627 q 202 892 148 823 q 331 996 255 960 q 503 1031 406 1031 q 564 1027 534 1031 q 621 1017 594 1024 q 674 1000 646 1010 q 728 975 702 989 l 728 835 q 620 898 678 876 q 562 914 591 909 q 503 920 533 920 q 387 894 437 920 q 304 817 337 868 q 237 505 237 713 q 304 195 237 298 q 385 119 336 146 q 503 92 434 92 q 621 113 564 92 q 728 176 677 134 l 728 36 q 621 -6 675 8 q 564 -16 594 -13 q 503 -20 534 -20 z "},"Č":{"ha":836,"x_min":94,"x_max":728,"o":"m 272 1256 l 367 1256 l 479 1135 l 591 1256 l 686 1256 l 543 1076 l 415 1076 l 272 1256 m 503 -20 q 330 15 406 -20 q 201 118 254 50 q 121 284 148 187 q 94 505 94 382 q 121 725 94 627 q 202 892 148 823 q 331 996 255 960 q 503 1031 406 1031 q 564 1027 534 1031 q 621 1017 594 1024 q 674 1000 646 1010 q 728 975 702 989 l 728 835 q 620 898 678 876 q 562 914 591 909 q 503 920 533 920 q 387 894 437 920 q 304 817 337 868 q 237 505 237 713 q 304 195 237 298 q 385 119 336 146 q 503 92 434 92 q 621 113 564 92 q 728 176 677 134 l 728 36 q 621 -6 675 8 q 564 -16 594 -13 q 503 -20 534 -20 z "},"Ç":{"ha":836,"x_min":94,"x_max":728,"o":"m 503 920 q 387 894 437 920 q 304 817 337 868 q 237 505 237 713 q 304 195 237 298 q 385 119 336 146 q 503 92 434 92 q 621 113 564 92 q 728 176 677 134 l 728 36 q 621 -6 675 8 q 590 -13 606 -9 q 557 -17 574 -16 q 599 -78 585 -51 q 611 -111 606 -94 q 616 -149 616 -128 q 606 -199 616 -176 q 576 -237 596 -222 q 526 -260 556 -252 q 454 -268 496 -268 q 395 -264 425 -268 q 336 -252 364 -260 l 336 -163 q 359 -173 347 -168 q 385 -180 372 -177 q 412 -183 397 -182 q 438 -184 427 -184 q 502 -168 481 -184 q 522 -122 522 -152 q 507 -71 522 -100 q 475 -19 496 -50 q 319 21 388 -14 q 201 118 250 56 q 121 284 148 187 q 94 505 94 382 q 121 725 94 627 q 202 892 148 823 q 331 996 255 960 q 503 1031 406 1031 q 564 1027 534 1031 q 621 1017 594 1024 q 674 1000 646 1010 q 728 975 702 989 l 728 835 q 620 898 678 876 q 562 914 591 909 q 503 920 533 920 z "},"Ċ":{"ha":836,"x_min":94,"x_max":728,"o":"m 419 1117 q 399 1137 399 1117 l 399 1236 q 419 1256 399 1256 l 517 1256 q 538 1236 538 1256 l 538 1137 q 517 1117 538 1117 l 419 1117 m 505 -20 q 331 16 407 -20 q 202 118 254 51 q 122 282 149 185 q 94 504 94 380 q 122 726 94 629 q 202 892 149 824 q 331 995 255 960 q 505 1031 408 1031 q 620 1017 566 1031 q 728 975 675 1004 l 728 835 q 622 898 678 876 q 502 920 565 920 q 304 817 370 920 q 237 505 237 713 q 502 92 237 92 q 621 113 564 92 q 728 176 678 135 l 728 36 q 620 -6 675 7 q 505 -20 566 -20 z "},"D":{"ha":836,"x_min":93,"x_max":750,"o":"m 93 1013 l 298 1013 q 640 889 530 1013 q 750 505 750 766 q 640 123 750 246 q 298 0 530 0 l 93 0 l 93 1013 m 296 113 q 537 198 469 113 q 589 317 572 241 q 606 507 606 393 q 589 695 606 618 q 538 815 572 772 q 442 879 503 859 q 296 900 380 900 l 231 900 l 231 113 l 296 113 z "},"Ð":{"ha":836,"x_min":5,"x_max":747,"o":"m 90 481 l 5 481 l 5 582 l 90 582 l 90 1013 l 296 1013 q 637 889 528 1013 q 747 506 747 766 q 637 123 747 246 q 495 30 581 60 q 296 0 410 0 l 90 0 l 90 481 m 296 113 q 380 118 342 113 q 446 135 417 124 q 497 162 475 146 q 536 199 519 178 q 589 317 572 243 q 606 507 606 392 q 601 614 606 566 q 588 699 597 661 q 567 764 580 736 q 537 814 554 792 q 443 880 501 859 q 296 900 384 900 l 231 900 l 231 582 l 410 582 l 410 481 l 231 481 l 231 113 l 296 113 z "},"Ď":{"ha":836,"x_min":93,"x_max":750,"o":"m 158 1256 l 253 1256 l 365 1135 l 477 1256 l 572 1256 l 429 1076 l 301 1076 l 158 1256 m 93 1013 l 298 1013 q 499 982 414 1013 q 640 889 585 951 q 723 731 696 827 q 750 507 750 636 q 723 281 750 376 q 640 123 696 186 q 499 31 585 61 q 298 0 414 0 l 93 0 l 93 1013 m 296 113 q 442 132 382 113 q 537 198 501 152 q 590 319 574 243 q 606 506 606 395 q 590 693 606 618 q 537 815 574 769 q 441 880 500 861 q 296 900 382 900 l 231 900 l 231 113 l 296 113 z "},"Đ":{"ha":836,"x_min":5,"x_max":747,"o":"m 90 481 l 5 481 l 5 582 l 90 582 l 90 1013 l 296 1013 q 496 982 412 1013 q 637 889 581 951 q 720 731 693 827 q 747 506 747 636 q 720 281 747 376 q 637 123 693 186 q 497 31 582 61 q 296 0 412 0 l 90 0 l 90 481 m 296 113 q 442 132 382 113 q 537 198 501 152 q 590 319 574 243 q 606 506 606 395 q 590 693 606 618 q 537 815 574 769 q 441 880 500 861 q 296 900 382 900 l 231 900 l 231 582 l 410 582 l 410 481 l 231 481 l 231 113 l 296 113 z "},"E":{"ha":836,"x_min":134,"x_max":747,"o":"m 134 1013 l 734 1013 l 734 897 l 271 897 l 271 597 l 714 597 l 714 482 l 271 482 l 271 115 l 747 115 l 747 0 l 134 0 l 134 1013 z "},"É":{"ha":836,"x_min":134,"x_max":747,"o":"m 468 1259 l 594 1259 l 439 1080 l 334 1080 l 468 1259 m 134 1013 l 734 1013 l 734 897 l 271 897 l 271 597 l 714 597 l 714 482 l 271 482 l 271 115 l 747 115 l 747 0 l 134 0 l 134 1013 z "},"Ě":{"ha":836,"x_min":134,"x_max":747,"o":"m 235 1256 l 330 1256 l 442 1135 l 555 1256 l 650 1256 l 507 1076 l 378 1076 l 235 1256 m 134 1013 l 734 1013 l 734 897 l 271 897 l 271 597 l 714 597 l 714 482 l 271 482 l 271 115 l 747 115 l 747 0 l 134 0 l 134 1013 z "},"Ê":{"ha":836,"x_min":134,"x_max":747,"o":"m 366 1256 l 494 1256 l 637 1076 l 543 1076 l 430 1196 l 318 1076 l 223 1076 l 366 1256 m 134 1013 l 734 1013 l 734 897 l 271 897 l 271 597 l 714 597 l 714 482 l 271 482 l 271 115 l 747 115 l 747 0 l 134 0 l 134 1013 z "},"Ë":{"ha":836,"x_min":134,"x_max":747,"o":"m 249 1117 q 229 1137 229 1117 l 229 1234 q 249 1255 229 1255 l 346 1255 q 366 1234 366 1255 l 366 1137 q 346 1117 366 1117 l 249 1117 m 515 1117 q 494 1137 494 1117 l 494 1234 q 515 1255 494 1255 l 611 1255 q 631 1234 631 1255 l 631 1137 q 611 1117 631 1117 l 515 1117 m 134 1013 l 734 1013 l 734 897 l 271 897 l 271 597 l 714 597 l 714 482 l 271 482 l 271 115 l 747 115 l 747 0 l 134 0 l 134 1013 z "},"Ė":{"ha":836,"x_min":134,"x_max":747,"o":"m 380 1117 q 360 1137 360 1117 l 360 1236 q 380 1256 360 1256 l 479 1256 q 499 1236 499 1256 l 499 1137 q 479 1117 499 1117 l 380 1117 m 134 1013 l 734 1013 l 734 897 l 271 897 l 271 597 l 714 597 l 714 482 l 271 482 l 271 115 l 747 115 l 747 0 l 134 0 l 134 1013 z "},"È":{"ha":836,"x_min":134,"x_max":747,"o":"m 268 1259 l 393 1259 l 526 1080 l 422 1080 l 268 1259 m 134 1013 l 734 1013 l 734 897 l 271 897 l 271 597 l 714 597 l 714 482 l 271 482 l 271 115 l 747 115 l 747 0 l 134 0 l 134 1013 z "},"Ē":{"ha":836,"x_min":134,"x_max":747,"o":"m 227 1221 l 633 1221 l 633 1120 l 227 1120 l 227 1221 m 134 1013 l 734 1013 l 734 897 l 271 897 l 271 597 l 714 597 l 714 482 l 271 482 l 271 115 l 747 115 l 747 0 l 134 0 l 134 1013 z "},"Ę":{"ha":836,"x_min":134,"x_max":747,"o":"m 646 0 q 600 -73 613 -44 q 586 -125 586 -102 q 605 -169 586 -153 q 661 -184 624 -184 q 745 -164 703 -184 l 745 -254 q 694 -265 716 -262 q 648 -268 673 -268 q 532 -239 572 -268 q 492 -150 492 -210 q 495 -116 492 -133 q 508 -82 499 -100 q 530 -44 516 -64 q 565 0 544 -24 l 134 0 l 134 1013 l 734 1013 l 734 897 l 271 897 l 271 597 l 714 597 l 714 482 l 271 482 l 271 115 l 747 115 l 747 0 l 646 0 z "},"F":{"ha":836,"x_min":158,"x_max":754,"o":"m 158 1013 l 754 1013 l 754 897 l 296 897 l 296 585 l 711 585 l 711 470 l 296 470 l 296 0 l 158 0 l 158 1013 z "},"G":{"ha":836,"x_min":69,"x_max":749,"o":"m 475 -20 q 303 16 378 -20 q 176 119 228 51 q 96 285 123 188 q 69 505 69 382 q 97 728 69 631 q 178 893 125 825 q 306 996 231 961 q 477 1031 382 1031 q 602 1013 545 1031 q 660 990 631 1004 q 714 958 688 976 l 714 818 q 656 865 685 846 q 602 895 627 884 q 541 914 572 908 q 479 920 509 920 q 363 895 413 920 q 279 817 314 869 q 229 687 245 764 q 212 504 212 610 q 229 320 212 397 q 277 193 245 244 q 477 92 341 92 q 518 94 498 92 q 556 102 538 97 q 588 116 572 108 q 618 135 604 123 l 618 407 l 471 407 l 471 519 l 749 519 l 749 83 q 625 7 694 33 q 475 -20 556 -20 z "},"Ğ":{"ha":836,"x_min":69,"x_max":749,"o":"m 445 1078 q 233 1242 248 1078 l 313 1242 q 355 1186 321 1205 q 446 1166 389 1166 q 577 1242 557 1166 l 658 1242 q 597 1119 650 1160 q 445 1078 543 1078 m 475 -20 q 303 16 378 -20 q 176 119 228 51 q 96 285 123 188 q 69 505 69 382 q 96 725 69 627 q 177 892 123 823 q 304 995 229 958 q 476 1031 379 1031 q 540 1027 508 1031 q 602 1013 572 1023 q 661 989 631 1004 q 714 958 690 975 l 714 818 q 656 865 685 846 q 602 895 627 884 q 541 914 572 908 q 479 920 509 920 q 363 895 413 920 q 279 817 314 869 q 229 687 245 764 q 212 504 212 610 q 229 320 212 397 q 277 193 245 244 q 360 116 311 140 q 477 92 410 92 q 520 94 500 92 q 556 102 540 97 q 588 116 572 108 q 618 135 604 123 l 618 407 l 471 407 l 471 519 l 749 519 l 749 83 q 625 7 694 33 q 475 -20 556 -20 z "},"Ǧ":{"ha":836,"x_min":69,"x_max":749,"o":"m 272 1256 l 367 1256 l 479 1135 l 591 1256 l 686 1256 l 543 1076 l 415 1076 l 272 1256 m 475 -20 q 304 16 379 -20 q 176 118 229 51 q 97 282 124 185 q 69 504 69 380 q 97 726 69 629 q 177 892 125 824 q 306 995 230 960 q 477 1031 381 1031 q 602 1013 544 1031 q 714 958 659 995 l 714 818 q 602 895 659 871 q 479 920 545 920 q 278 816 344 920 q 212 501 212 713 q 277 192 212 293 q 478 92 342 92 q 555 102 522 92 q 618 135 589 113 l 618 407 l 471 407 l 471 519 l 749 519 l 749 83 q 625 6 694 33 q 475 -20 557 -20 z "},"Ģ":{"ha":836,"x_min":69,"x_max":749,"o":"m 475 -20 q 304 16 379 -20 q 176 118 229 51 q 97 282 124 185 q 69 504 69 380 q 97 726 69 629 q 177 892 125 824 q 306 995 230 960 q 477 1031 381 1031 q 602 1013 544 1031 q 714 958 659 995 l 714 818 q 602 895 659 871 q 479 920 545 920 q 278 816 344 920 q 212 501 212 713 q 277 192 212 293 q 478 92 342 92 q 555 102 522 92 q 618 135 589 113 l 618 407 l 471 407 l 471 519 l 749 519 l 749 83 q 625 6 694 33 q 475 -20 557 -20 m 427 -155 l 589 -155 l 463 -389 l 363 -389 l 427 -155 z "},"Ġ":{"ha":836,"x_min":69,"x_max":749,"o":"m 419 1117 q 399 1137 399 1117 l 399 1236 q 419 1256 399 1256 l 517 1256 q 538 1236 538 1256 l 538 1137 q 517 1117 538 1117 l 419 1117 m 475 -20 q 304 16 379 -20 q 176 118 229 51 q 97 282 124 185 q 69 504 69 380 q 97 726 69 629 q 177 892 125 824 q 306 995 230 960 q 477 1031 381 1031 q 602 1013 544 1031 q 714 958 659 995 l 714 818 q 602 895 659 871 q 479 920 545 920 q 278 816 344 920 q 212 501 212 713 q 277 192 212 293 q 478 92 342 92 q 555 102 522 92 q 618 135 589 113 l 618 407 l 471 407 l 471 519 l 749 519 l 749 83 q 625 6 694 33 q 475 -20 557 -20 z "},"H":{"ha":836,"x_min":93,"x_max":743,"o":"m 93 1013 l 231 1013 l 231 597 l 606 597 l 606 1013 l 743 1013 l 743 0 l 606 0 l 606 482 l 231 482 l 231 0 l 93 0 l 93 1013 z "},"Ħ":{"ha":836,"x_min":2,"x_max":834,"o":"m 93 749 l 2 749 l 2 861 l 93 861 l 93 1013 l 230 1013 l 230 861 l 606 861 l 606 1013 l 743 1013 l 743 861 l 834 861 l 834 749 l 743 749 l 743 0 l 606 0 l 606 482 l 230 482 l 230 0 l 93 0 l 93 749 m 606 597 l 606 749 l 230 749 l 230 597 l 606 597 z "},"I":{"ha":836,"x_min":136,"x_max":699,"o":"m 136 115 l 349 115 l 349 897 l 136 897 l 136 1013 l 699 1013 l 699 897 l 486 897 l 486 115 l 699 115 l 699 0 l 136 0 l 136 115 z "},"Í":{"ha":836,"x_min":136,"x_max":699,"o":"m 469 1259 l 595 1259 l 439 1080 l 335 1080 l 469 1259 m 136 115 l 349 115 l 349 897 l 136 897 l 136 1013 l 699 1013 l 699 897 l 486 897 l 486 115 l 699 115 l 699 0 l 136 0 l 136 115 z "},"Î":{"ha":836,"x_min":136,"x_max":699,"o":"m 353 1256 l 481 1256 l 625 1076 l 530 1076 l 417 1196 l 305 1076 l 210 1076 l 353 1256 m 136 115 l 349 115 l 349 897 l 136 897 l 136 1013 l 699 1013 l 699 897 l 486 897 l 486 115 l 699 115 l 699 0 l 136 0 l 136 115 z "},"Ï":{"ha":836,"x_min":136,"x_max":699,"o":"m 237 1117 q 216 1137 216 1117 l 216 1234 q 237 1255 216 1255 l 334 1255 q 354 1234 354 1255 l 354 1137 q 334 1117 354 1117 l 237 1117 m 503 1117 q 482 1137 482 1117 l 482 1234 q 503 1255 482 1255 l 599 1255 q 619 1234 619 1255 l 619 1137 q 599 1117 619 1117 l 503 1117 m 136 115 l 349 115 l 349 897 l 136 897 l 136 1013 l 699 1013 l 699 897 l 486 897 l 486 115 l 699 115 l 699 0 l 136 0 l 136 115 z "},"İ":{"ha":836,"x_min":136,"x_max":699,"o":"m 368 1117 q 348 1137 348 1117 l 348 1236 q 368 1256 348 1256 l 467 1256 q 487 1236 487 1256 l 487 1137 q 467 1117 487 1117 l 368 1117 m 136 115 l 349 115 l 349 897 l 136 897 l 136 1013 l 699 1013 l 699 897 l 486 897 l 486 115 l 699 115 l 699 0 l 136 0 l 136 115 z "},"Ì":{"ha":836,"x_min":136,"x_max":699,"o":"m 252 1259 l 377 1259 l 511 1080 l 406 1080 l 252 1259 m 136 115 l 349 115 l 349 897 l 136 897 l 136 1013 l 699 1013 l 699 897 l 486 897 l 486 115 l 699 115 l 699 0 l 136 0 l 136 115 z "},"Ī":{"ha":836,"x_min":136,"x_max":699,"o":"m 227 1221 l 633 1221 l 633 1120 l 227 1120 l 227 1221 m 136 115 l 349 115 l 349 897 l 136 897 l 136 1013 l 699 1013 l 699 897 l 486 897 l 486 115 l 699 115 l 699 0 l 136 0 l 136 115 z "},"Į":{"ha":836,"x_min":136,"x_max":699,"o":"m 486 897 l 486 115 l 699 115 l 699 0 l 486 0 q 440 -73 454 -44 q 427 -125 427 -102 q 446 -169 427 -153 q 501 -184 465 -184 q 585 -164 543 -184 l 585 -254 q 535 -265 557 -262 q 488 -268 513 -268 q 372 -239 412 -268 q 332 -150 332 -210 q 336 -116 332 -133 q 348 -82 340 -100 q 371 -44 357 -64 q 406 0 385 -24 l 136 0 l 136 115 l 349 115 l 349 897 l 136 897 l 136 1013 l 699 1013 l 699 897 l 486 897 z "},"Ĩ":{"ha":836,"x_min":136,"x_max":699,"o":"m 195 1107 q 203 1167 195 1140 q 230 1216 211 1194 q 323 1256 264 1256 q 368 1251 345 1256 q 391 1242 378 1248 q 421 1227 404 1236 l 460 1206 q 487 1194 474 1198 q 509 1190 498 1190 q 543 1207 530 1190 q 557 1252 557 1225 l 557 1256 l 642 1256 q 606 1148 641 1189 q 513 1107 571 1107 q 471 1113 492 1107 q 449 1121 461 1116 q 415 1137 436 1126 l 376 1159 q 349 1173 361 1168 q 338 1175 343 1175 q 329 1176 332 1176 q 309 1172 319 1176 q 293 1159 300 1168 q 279 1112 279 1141 l 279 1107 l 195 1107 m 136 115 l 349 115 l 349 897 l 136 897 l 136 1013 l 699 1013 l 699 897 l 486 897 l 486 115 l 699 115 l 699 0 l 136 0 l 136 115 z "},"J":{"ha":836,"x_min":74,"x_max":648,"o":"m 340 -20 q 208 -5 271 -20 q 74 41 142 11 l 74 201 q 201 119 136 146 q 338 92 269 92 q 419 104 384 92 q 473 142 454 116 q 511 330 511 193 l 511 897 l 253 897 l 253 1013 l 648 1013 l 648 330 q 631 167 648 233 q 576 60 614 102 q 481 0 539 19 q 340 -20 423 -20 z "},"K":{"ha":836,"x_min":93,"x_max":831,"o":"m 93 1013 l 231 1013 l 231 562 l 659 1013 l 819 1013 l 425 599 l 831 0 l 665 0 l 335 507 l 231 396 l 231 0 l 93 0 l 93 1013 z "},"Ķ":{"ha":836,"x_min":93,"x_max":831,"o":"m 93 1013 l 231 1013 l 231 562 l 659 1013 l 819 1013 l 425 599 l 831 0 l 665 0 l 335 507 l 231 396 l 231 0 l 93 0 l 93 1013 m 412 -135 l 574 -135 l 448 -369 l 349 -369 l 412 -135 z "},"L":{"ha":836,"x_min":146,"x_max":772,"o":"m 146 1013 l 283 1013 l 283 115 l 772 115 l 772 0 l 146 0 l 146 1013 z "},"Ĺ":{"ha":836,"x_min":146,"x_max":772,"o":"m 279 1259 l 406 1259 l 250 1080 l 146 1080 l 279 1259 m 146 1013 l 283 1013 l 283 115 l 772 115 l 772 0 l 146 0 l 146 1013 z "},"Ľ":{"ha":836,"x_min":146,"x_max":772,"o":"m 146 1013 l 283 1013 l 283 115 l 772 115 l 772 0 l 146 0 l 146 1013 m 487 1011 l 621 1011 l 545 756 l 440 756 l 487 1011 z "},"Ļ":{"ha":836,"x_min":146,"x_max":772,"o":"m 146 1013 l 283 1013 l 283 115 l 772 115 l 772 0 l 146 0 l 146 1013 m 410 -135 l 572 -135 l 445 -369 l 346 -369 l 410 -135 z "},"Ł":{"ha":836,"x_min":-7,"x_max":772,"o":"m 146 387 l 47 315 l -7 390 l 146 497 l 146 1013 l 283 1013 l 283 595 l 497 743 l 550 668 l 283 482 l 283 115 l 772 115 l 772 0 l 146 0 l 146 387 z "},"M":{"ha":836,"x_min":58,"x_max":777,"o":"m 58 1013 l 241 1013 l 416 497 l 593 1013 l 777 1013 l 777 0 l 650 0 l 650 895 l 469 361 l 366 361 l 184 895 l 184 0 l 58 0 l 58 1013 z "},"N":{"ha":836,"x_min":94,"x_max":742,"o":"m 94 1013 l 268 1013 l 610 179 l 610 1013 l 742 1013 l 742 0 l 568 0 l 227 833 l 227 0 l 94 0 l 94 1013 z "},"Ń":{"ha":836,"x_min":94,"x_max":742,"o":"m 496 1259 l 622 1259 l 467 1080 l 362 1080 l 496 1259 m 94 1013 l 268 1013 l 610 179 l 610 1013 l 742 1013 l 742 0 l 568 0 l 227 833 l 227 0 l 94 0 l 94 1013 z "},"Ň":{"ha":836,"x_min":94,"x_max":742,"o":"m 235 1256 l 330 1256 l 442 1135 l 555 1256 l 650 1256 l 507 1076 l 378 1076 l 235 1256 m 94 1013 l 268 1013 l 610 179 l 610 1013 l 742 1013 l 742 0 l 568 0 l 227 833 l 227 0 l 94 0 l 94 1013 z "},"Ņ":{"ha":836,"x_min":94,"x_max":742,"o":"m 94 1013 l 268 1013 l 610 179 l 610 1013 l 742 1013 l 742 0 l 568 0 l 227 833 l 227 0 l 94 0 l 94 1013 m 369 -135 l 531 -135 l 404 -369 l 305 -369 l 369 -135 z "},"Ŋ":{"ha":836,"x_min":100,"x_max":736,"o":"m 363 -183 l 477 -183 q 530 -173 507 -183 q 568 -141 553 -163 q 591 -84 583 -119 q 598 0 598 -50 l 598 684 q 559 864 598 806 q 435 921 519 921 q 288 847 339 921 q 237 635 237 774 l 237 0 l 100 0 l 100 1013 l 224 1013 l 237 878 q 335 993 273 954 q 484 1032 397 1032 q 736 677 736 1032 l 736 -14 q 675 -218 736 -146 q 503 -289 615 -289 l 363 -289 l 363 -183 z "},"Ñ":{"ha":836,"x_min":94,"x_max":742,"o":"m 195 1107 q 203 1167 195 1140 q 230 1216 211 1194 q 323 1256 264 1256 q 368 1251 345 1256 q 391 1242 378 1248 q 421 1227 404 1236 l 460 1206 q 487 1194 474 1198 q 509 1190 498 1190 q 543 1207 530 1190 q 557 1252 557 1225 l 557 1256 l 642 1256 q 606 1148 641 1189 q 513 1107 571 1107 q 471 1113 492 1107 q 449 1121 461 1116 q 415 1137 436 1126 l 376 1159 q 349 1173 361 1168 q 338 1175 343 1175 q 329 1176 332 1176 q 309 1172 319 1176 q 293 1159 300 1168 q 279 1112 279 1141 l 279 1107 l 195 1107 m 94 1013 l 268 1013 l 610 179 l 610 1013 l 742 1013 l 742 0 l 568 0 l 227 833 l 227 0 l 94 0 l 94 1013 z "},"O":{"ha":836,"x_min":79,"x_max":757,"o":"m 418 -20 q 163 110 246 -20 q 79 505 79 239 q 163 901 79 771 q 268 998 205 966 q 418 1031 331 1031 q 566 1000 501 1031 q 673 901 630 968 q 757 505 757 770 q 673 111 757 241 q 566 12 630 43 q 418 -20 501 -20 m 418 92 q 568 187 522 92 q 614 505 614 281 q 568 824 614 729 q 418 920 522 920 q 269 824 314 920 q 222 505 222 728 q 269 187 222 283 q 418 92 314 92 z "},"Ó":{"ha":836,"x_min":79,"x_max":757,"o":"m 475 1259 l 602 1259 l 446 1080 l 342 1080 l 475 1259 m 418 -20 q 163 110 246 -20 q 79 505 79 239 q 163 901 79 771 q 268 998 205 966 q 418 1031 331 1031 q 566 1000 501 1031 q 673 901 630 968 q 757 505 757 770 q 673 111 757 241 q 566 12 630 43 q 418 -20 501 -20 m 418 92 q 568 187 522 92 q 614 505 614 281 q 568 824 614 729 q 418 920 522 920 q 269 824 314 920 q 222 505 222 728 q 269 187 222 283 q 418 92 314 92 z "},"Ô":{"ha":836,"x_min":79,"x_max":757,"o":"m 366 1256 l 494 1256 l 637 1076 l 543 1076 l 430 1196 l 318 1076 l 223 1076 l 366 1256 m 418 -20 q 163 110 246 -20 q 79 505 79 239 q 163 901 79 771 q 268 998 205 966 q 418 1031 331 1031 q 566 1000 501 1031 q 673 901 630 968 q 757 505 757 770 q 673 111 757 241 q 566 12 630 43 q 418 -20 501 -20 m 418 92 q 568 187 522 92 q 614 505 614 281 q 568 824 614 729 q 418 920 522 920 q 269 824 314 920 q 222 505 222 728 q 269 187 222 283 q 418 92 314 92 z "},"Ö":{"ha":836,"x_min":79,"x_max":757,"o":"m 237 1117 q 216 1137 216 1117 l 216 1234 q 237 1255 216 1255 l 334 1255 q 354 1234 354 1255 l 354 1137 q 334 1117 354 1117 l 237 1117 m 503 1117 q 482 1137 482 1117 l 482 1234 q 503 1255 482 1255 l 599 1255 q 619 1234 619 1255 l 619 1137 q 599 1117 619 1117 l 503 1117 m 418 -20 q 163 110 246 -20 q 79 505 79 239 q 163 901 79 771 q 268 998 205 966 q 418 1031 331 1031 q 566 1000 501 1031 q 673 901 630 968 q 757 505 757 770 q 673 111 757 241 q 566 12 630 43 q 418 -20 501 -20 m 418 92 q 568 187 522 92 q 614 505 614 281 q 568 824 614 729 q 418 920 522 920 q 269 824 314 920 q 222 505 222 728 q 269 187 222 283 q 418 92 314 92 z "},"Ò":{"ha":836,"x_min":79,"x_max":757,"o":"m 259 1259 l 384 1259 l 517 1080 l 413 1080 l 259 1259 m 418 -20 q 163 110 246 -20 q 79 505 79 239 q 163 901 79 771 q 268 998 205 966 q 418 1031 331 1031 q 566 1000 501 1031 q 673 901 630 968 q 757 505 757 770 q 673 111 757 241 q 566 12 630 43 q 418 -20 501 -20 m 418 92 q 568 187 522 92 q 614 505 614 281 q 568 824 614 729 q 418 920 522 920 q 269 824 314 920 q 222 505 222 728 q 269 187 222 283 q 418 92 314 92 z "},"Ơ":{"ha":836,"x_min":4,"x_max":808,"o":"m 794 1056 q 805 1006 802 1027 q 808 959 808 984 q 779 843 808 883 q 690 803 750 803 q 640 811 665 803 q 682 505 682 692 q 597 111 682 241 q 342 -20 513 -20 q 88 110 172 -20 q 4 505 4 239 q 88 901 4 770 q 342 1031 172 1031 q 573 933 492 1031 q 625 905 604 913 q 665 897 646 897 q 709 916 693 897 q 724 972 724 935 q 704 1056 724 1014 l 794 1056 m 493 187 q 538 505 538 281 q 493 824 538 729 q 342 920 447 920 q 193 824 239 920 q 147 505 147 728 q 193 187 147 283 q 342 92 239 92 q 493 187 447 92 z "},"Ő":{"ha":836,"x_min":79,"x_max":757,"o":"m 367 1261 l 493 1261 l 338 1082 l 233 1082 l 367 1261 m 583 1261 l 709 1261 l 554 1082 l 450 1082 l 583 1261 m 417 -20 q 163 110 247 -20 q 79 505 79 239 q 163 901 79 770 q 418 1031 247 1031 q 673 901 589 1031 q 757 505 757 770 q 673 111 757 241 q 417 -20 589 -20 m 418 92 q 568 187 522 92 q 614 505 614 281 q 568 824 614 729 q 418 920 522 920 q 269 824 314 920 q 222 505 222 728 q 269 187 222 283 q 418 92 314 92 z "},"Ō":{"ha":836,"x_min":79,"x_max":757,"o":"m 215 1221 l 621 1221 l 621 1120 l 215 1120 l 215 1221 m 417 -20 q 163 110 247 -20 q 79 505 79 239 q 163 901 79 770 q 418 1031 247 1031 q 673 901 589 1031 q 757 505 757 770 q 673 111 757 241 q 417 -20 589 -20 m 418 92 q 568 187 522 92 q 614 505 614 281 q 568 824 614 729 q 418 920 522 920 q 269 824 314 920 q 222 505 222 728 q 269 187 222 283 q 418 92 314 92 z "},"Ø":{"ha":836,"x_min":5,"x_max":814,"o":"m 5 0 l 126 171 q 107 230 115 197 q 92 309 99 262 q 83 398 86 352 q 79 502 79 445 q 100 737 79 640 q 163 901 121 835 q 270 999 207 968 q 417 1031 333 1031 q 491 1024 458 1031 q 555 1003 525 1017 q 652 921 612 976 l 746 1057 l 814 1007 l 700 846 q 725 781 714 818 q 743 703 735 745 q 753 613 749 664 q 757 505 757 563 q 673 111 757 241 q 569 14 633 47 q 415 -20 506 -20 q 342 -13 376 -20 q 275 8 307 -7 q 172 90 214 35 l 75 -47 l 5 0 m 571 807 q 548 857 562 836 q 515 891 533 878 q 471 913 496 906 q 417 920 446 920 q 325 894 360 920 q 267 819 289 868 q 247 760 256 793 q 233 684 239 727 q 225 587 228 641 q 222 465 222 532 q 222 439 222 450 q 223 417 222 427 q 223 397 223 407 q 224 377 224 388 q 225 355 225 368 q 229 319 226 343 l 571 807 m 418 92 q 510 117 474 92 q 568 188 547 142 q 588 240 579 210 q 602 308 596 269 q 611 396 608 347 q 614 507 614 446 q 613 573 614 543 q 610 626 612 603 q 607 667 609 648 q 600 703 604 685 l 252 205 q 317 122 272 153 q 365 99 340 106 q 418 92 390 92 z "},"Ǿ":{"ha":836,"x_min":5,"x_max":814,"o":"m 469 1259 l 595 1259 l 439 1080 l 335 1080 l 469 1259 m 5 0 l 126 171 q 106 231 115 195 q 92 309 98 266 q 82 402 85 353 q 79 505 79 452 q 163 900 79 770 q 416 1031 246 1031 q 652 921 574 1031 l 746 1057 l 814 1007 l 700 846 q 743 704 728 791 q 757 505 757 616 q 673 110 757 240 q 416 -20 589 -20 q 172 90 254 -20 l 75 -47 l 5 0 m 571 807 q 517 890 555 860 q 417 920 479 920 q 325 894 359 920 q 268 821 290 868 q 233 677 243 765 q 222 463 222 589 q 224 377 222 411 q 229 319 226 342 l 571 807 m 420 92 q 568 188 522 92 q 588 240 579 210 q 602 308 596 269 q 611 397 608 347 q 614 512 614 448 q 610 626 614 580 q 600 703 607 672 l 252 205 q 317 121 273 151 q 420 92 361 92 z "},"Õ":{"ha":836,"x_min":79,"x_max":757,"o":"m 195 1107 q 203 1167 195 1140 q 230 1216 211 1194 q 323 1256 264 1256 q 368 1251 345 1256 q 391 1242 378 1248 q 421 1227 404 1236 l 460 1206 q 487 1194 474 1198 q 509 1190 498 1190 q 543 1207 530 1190 q 557 1252 557 1225 l 557 1256 l 642 1256 q 606 1148 641 1189 q 513 1107 571 1107 q 471 1113 492 1107 q 449 1121 461 1116 q 415 1137 436 1126 l 376 1159 q 349 1173 361 1168 q 338 1175 343 1175 q 329 1176 332 1176 q 309 1172 319 1176 q 293 1159 300 1168 q 279 1112 279 1141 l 279 1107 l 195 1107 m 418 -20 q 163 110 246 -20 q 79 505 79 239 q 163 901 79 771 q 268 998 205 966 q 418 1031 331 1031 q 566 1000 501 1031 q 673 901 630 968 q 757 505 757 770 q 673 111 757 241 q 566 12 630 43 q 418 -20 501 -20 m 418 92 q 568 187 522 92 q 614 505 614 281 q 568 824 614 729 q 418 920 522 920 q 269 824 314 920 q 222 505 222 728 q 269 187 222 283 q 418 92 314 92 z "},"Œ":{"ha":836,"x_min":49,"x_max":825,"o":"m 415 0 q 240 30 308 0 q 133 113 173 59 q 69 269 90 172 q 49 507 49 365 q 54 642 49 582 q 71 751 60 703 q 97 836 81 799 q 132 900 112 872 q 241 984 173 956 q 415 1013 310 1013 l 818 1013 l 818 897 l 575 897 l 575 597 l 798 597 l 798 482 l 575 482 l 575 115 l 825 115 l 825 0 l 415 0 m 441 115 l 441 897 l 400 897 q 233 819 280 897 q 198 705 210 781 q 186 505 186 630 q 198 308 186 383 q 233 193 210 233 q 400 115 280 115 l 441 115 z "},"P":{"ha":836,"x_min":117,"x_max":757,"o":"m 117 1013 l 412 1013 q 669 936 581 1013 q 736 839 715 896 q 757 709 757 781 q 670 484 757 560 q 563 426 627 446 q 412 407 498 407 l 254 407 l 254 0 l 117 0 l 117 1013 m 412 519 q 500 533 463 519 q 561 570 536 547 q 614 710 614 619 q 561 850 614 800 q 412 900 509 900 l 254 900 l 254 519 l 412 519 z "},"Þ":{"ha":836,"x_min":136,"x_max":790,"o":"m 136 1013 l 273 1013 l 273 829 l 446 829 q 706 758 621 829 q 790 538 790 687 q 769 409 790 463 q 706 320 747 355 q 446 249 621 249 l 273 249 l 273 0 l 136 0 l 136 1013 m 432 361 q 593 406 538 361 q 646 539 646 450 q 633 616 646 582 q 593 673 620 650 q 528 705 568 693 q 432 717 488 717 l 273 717 l 273 361 l 432 361 z "},"Q":{"ha":836,"x_min":79,"x_max":763,"o":"m 444 -18 q 438 -18 441 -18 q 431 -19 435 -18 q 423 -20 426 -20 q 418 -20 420 -20 q 270 12 334 -20 q 163 111 207 43 q 100 277 120 178 q 79 505 79 375 q 163 901 79 771 q 268 998 205 966 q 418 1031 331 1031 q 566 1000 501 1031 q 673 901 630 968 q 757 505 757 770 q 711 184 757 307 q 653 81 688 125 q 570 14 618 38 l 763 -183 l 603 -183 l 444 -18 m 418 92 q 568 187 522 92 q 614 505 614 281 q 568 824 614 729 q 418 920 522 920 q 269 824 314 920 q 222 505 222 728 q 269 187 222 283 q 418 92 314 92 z "},"R":{"ha":836,"x_min":97,"x_max":836,"o":"m 97 1013 l 379 1013 q 635 937 546 1013 q 702 845 680 899 q 724 722 724 791 q 710 628 724 669 q 669 556 696 588 q 515 478 615 492 q 566 458 543 471 q 606 427 589 445 q 647 372 625 408 q 699 277 669 336 l 836 0 l 689 0 l 568 256 q 518 347 542 312 q 475 397 495 381 q 426 420 454 413 q 366 428 397 428 l 235 428 l 235 0 l 97 0 l 97 1013 m 385 541 q 531 585 483 541 q 567 640 555 606 q 579 718 579 674 q 567 796 579 762 q 528 854 554 830 q 467 888 504 876 q 379 900 430 900 l 235 900 l 235 541 l 385 541 z "},"Ŕ":{"ha":836,"x_min":97,"x_max":836,"o":"m 428 1259 l 554 1259 l 399 1080 l 294 1080 l 428 1259 m 97 1013 l 379 1013 q 527 993 463 1013 q 634 937 591 974 q 701 846 678 900 q 724 725 724 793 q 669 555 724 616 q 515 478 614 493 q 565 459 543 471 q 607 426 587 448 q 649 368 627 404 q 699 277 671 332 l 836 0 l 689 0 l 568 256 q 519 345 542 311 q 473 397 496 379 q 424 422 450 416 q 366 428 398 428 l 235 428 l 235 0 l 97 0 l 97 1013 m 385 541 q 579 716 579 541 q 528 854 579 808 q 379 900 477 900 l 235 900 l 235 541 l 385 541 z "},"Ř":{"ha":836,"x_min":97,"x_max":836,"o":"m 174 1256 l 269 1256 l 381 1135 l 494 1256 l 589 1256 l 446 1076 l 317 1076 l 174 1256 m 97 1013 l 379 1013 q 527 993 463 1013 q 634 937 591 974 q 701 846 678 900 q 724 725 724 793 q 669 555 724 616 q 515 478 614 493 q 565 459 543 471 q 607 426 587 448 q 649 368 627 404 q 699 277 671 332 l 836 0 l 689 0 l 568 256 q 519 345 542 311 q 473 397 496 379 q 424 422 450 416 q 366 428 398 428 l 235 428 l 235 0 l 97 0 l 97 1013 m 385 541 q 579 716 579 541 q 528 854 579 808 q 379 900 477 900 l 235 900 l 235 541 l 385 541 z "},"Ŗ":{"ha":836,"x_min":97,"x_max":836,"o":"m 97 1013 l 379 1013 q 527 993 463 1013 q 634 937 591 974 q 701 846 678 900 q 724 725 724 793 q 669 555 724 616 q 515 478 614 493 q 565 459 543 471 q 607 426 587 448 q 649 368 627 404 q 699 277 671 332 l 836 0 l 689 0 l 568 256 q 519 345 542 311 q 473 397 496 379 q 424 422 450 416 q 366 428 398 428 l 235 428 l 235 0 l 97 0 l 97 1013 m 385 541 q 579 716 579 541 q 528 854 579 808 q 379 900 477 900 l 235 900 l 235 541 l 385 541 m 418 -135 l 580 -135 l 453 -369 l 354 -369 l 418 -135 z "},"S":{"ha":836,"x_min":94,"x_max":745,"o":"m 396 -20 q 323 -16 360 -20 q 252 -5 287 -12 q 179 15 216 3 q 107 41 142 27 l 107 187 q 183 144 146 162 q 255 115 220 126 q 394 92 324 92 q 486 103 445 92 q 556 138 527 115 q 600 195 586 161 q 614 271 614 228 q 604 336 614 309 q 574 383 594 363 q 520 420 553 406 q 436 446 487 434 l 363 463 q 243 501 294 478 q 158 559 192 524 q 94 732 94 623 q 118 856 94 801 q 186 950 142 911 q 290 1010 229 989 q 428 1031 351 1031 q 488 1028 457 1031 q 551 1018 518 1025 q 686 978 614 1005 l 686 839 q 623 874 654 860 q 562 899 592 889 q 435 920 498 920 q 349 909 389 920 q 281 875 309 898 q 239 820 252 852 q 225 749 225 788 q 235 691 225 715 q 262 651 245 668 q 316 617 283 631 q 400 591 349 603 l 472 575 q 595 533 544 559 q 679 471 646 507 q 745 278 745 400 q 721 146 745 201 q 656 56 697 92 q 546 -1 611 18 q 396 -20 480 -20 z "},"Ś":{"ha":836,"x_min":94,"x_max":745,"o":"m 475 1259 l 602 1259 l 446 1080 l 342 1080 l 475 1259 m 397 -20 q 252 -4 323 -20 q 107 41 180 11 l 107 187 q 254 115 185 138 q 395 92 323 92 q 556 137 499 92 q 614 275 614 183 q 605 335 614 309 q 575 383 595 362 q 520 419 554 404 q 436 446 486 434 l 363 463 q 241 503 292 479 q 157 560 190 527 q 110 635 125 593 q 94 730 94 677 q 118 854 94 799 q 185 949 142 910 q 291 1009 229 988 q 428 1031 353 1031 q 686 978 544 1031 l 686 839 q 434 920 561 920 q 347 908 386 920 q 281 875 309 897 q 240 821 254 853 q 225 747 225 788 q 234 692 225 716 q 263 650 243 669 q 317 616 283 631 q 400 591 351 602 l 472 575 q 595 533 544 559 q 680 470 647 507 q 729 386 713 433 q 745 279 745 338 q 655 57 745 133 q 397 -20 566 -20 z "},"Š":{"ha":836,"x_min":94,"x_max":745,"o":"m 222 1256 l 317 1256 l 429 1135 l 541 1256 l 636 1256 l 493 1076 l 365 1076 l 222 1256 m 396 -20 q 321 -16 357 -20 q 252 -5 284 -12 q 179 15 216 3 q 107 41 142 27 l 107 187 q 183 144 146 162 q 255 115 220 126 q 326 97 292 102 q 395 92 361 92 q 486 103 446 92 q 556 138 527 115 q 598 192 583 159 q 614 271 614 224 q 603 337 614 309 q 574 384 593 365 q 518 420 553 406 q 436 446 484 435 l 363 463 q 243 501 294 478 q 158 559 192 524 q 111 633 127 591 q 94 732 94 675 q 118 857 94 802 q 186 950 142 911 q 290 1010 229 989 q 428 1031 351 1031 q 488 1028 457 1031 q 551 1018 518 1025 q 686 978 614 1005 l 686 839 q 621 875 652 861 q 562 899 590 890 q 435 920 498 920 q 346 908 385 920 q 281 875 307 896 q 239 822 254 853 q 225 749 225 790 q 233 696 225 722 q 262 651 241 671 q 315 617 282 632 q 400 591 349 603 l 472 575 q 590 535 538 560 q 679 471 643 509 q 745 278 745 400 q 721 146 745 201 q 656 56 697 92 q 545 -1 611 18 q 396 -20 479 -20 z "},"Ş":{"ha":836,"x_min":94,"x_max":745,"o":"m 679 471 q 745 278 745 400 q 721 146 745 201 q 656 56 697 92 q 581 12 624 29 q 486 -14 538 -5 q 513 -48 501 -31 q 531 -78 524 -64 q 544 -111 538 -94 q 549 -149 549 -128 q 538 -199 549 -176 q 508 -237 528 -222 q 458 -260 488 -252 q 387 -268 429 -268 q 328 -264 357 -268 q 268 -252 296 -260 l 268 -163 q 292 -173 279 -168 q 317 -180 304 -177 q 344 -183 330 -182 q 370 -184 359 -184 q 434 -168 414 -184 q 454 -122 454 -152 q 439 -71 454 -100 q 426 -47 434 -60 q 408 -20 418 -35 l 396 -20 q 321 -16 357 -20 q 252 -5 284 -12 q 179 15 216 3 q 107 41 142 27 l 107 187 q 183 144 146 162 q 255 115 220 126 q 326 97 292 102 q 395 92 361 92 q 486 103 446 92 q 556 138 527 115 q 598 192 583 159 q 614 271 614 224 q 603 337 614 309 q 574 384 593 365 q 518 420 553 406 q 436 446 484 435 l 363 463 q 243 501 294 478 q 158 559 192 524 q 111 633 127 591 q 94 732 94 675 q 118 857 94 802 q 186 950 142 911 q 290 1010 229 989 q 428 1031 351 1031 q 488 1028 457 1031 q 551 1018 518 1025 q 686 978 614 1005 l 686 839 q 621 875 652 861 q 562 899 590 890 q 435 920 498 920 q 346 908 385 920 q 281 875 307 896 q 239 822 254 853 q 225 749 225 790 q 233 696 225 722 q 262 651 241 671 q 315 617 282 632 q 400 591 349 603 l 472 575 q 590 535 538 560 q 679 471 643 509 z "},"Ș":{"ha":836,"x_min":94,"x_max":745,"o":"m 397 -20 q 252 -4 323 -20 q 107 41 180 11 l 107 187 q 254 115 185 138 q 395 92 323 92 q 556 137 499 92 q 614 275 614 183 q 605 335 614 309 q 575 383 595 362 q 520 419 554 404 q 436 446 486 434 l 363 463 q 241 503 292 479 q 157 560 190 527 q 110 635 125 593 q 94 730 94 677 q 118 854 94 799 q 185 949 142 910 q 291 1009 229 988 q 428 1031 353 1031 q 686 978 544 1031 l 686 839 q 434 920 561 920 q 347 908 386 920 q 281 875 309 897 q 240 821 254 853 q 225 747 225 788 q 234 692 225 716 q 263 650 243 669 q 317 616 283 631 q 400 591 351 602 l 472 575 q 595 533 544 559 q 680 470 647 507 q 729 386 713 433 q 745 279 745 338 q 655 57 745 133 q 397 -20 566 -20 m 340 -134 l 503 -134 l 376 -368 l 277 -368 l 340 -134 z "},"T":{"ha":836,"x_min":32,"x_max":804,"o":"m 350 897 l 32 897 l 32 1013 l 804 1013 l 804 897 l 488 897 l 488 0 l 350 0 l 350 897 z "},"Ŧ":{"ha":836,"x_min":32,"x_max":804,"o":"m 350 391 l 170 391 l 170 507 l 350 507 l 350 897 l 32 897 l 32 1013 l 804 1013 l 804 897 l 488 897 l 488 507 l 667 507 l 667 391 l 488 391 l 488 0 l 350 0 l 350 391 z "},"Ť":{"ha":836,"x_min":32,"x_max":804,"o":"m 215 1256 l 310 1256 l 422 1135 l 534 1256 l 629 1256 l 486 1076 l 358 1076 l 215 1256 m 350 897 l 32 897 l 32 1013 l 804 1013 l 804 897 l 488 897 l 488 0 l 350 0 l 350 897 z "},"Ț":{"ha":836,"x_min":32,"x_max":804,"o":"m 488 0 l 475 0 q 531 -77 513 -43 q 549 -149 549 -112 q 508 -237 549 -207 q 386 -268 467 -268 q 268 -252 328 -268 l 268 -163 q 316 -179 289 -174 q 368 -184 342 -184 q 433 -169 412 -184 q 454 -123 454 -153 q 441 -74 454 -102 q 395 0 428 -46 l 350 0 l 350 897 l 32 897 l 32 1013 l 804 1013 l 804 897 l 488 897 l 488 0 z "},"U":{"ha":836,"x_min":100,"x_max":736,"o":"m 418 -20 q 350 -15 381 -20 q 290 0 318 -9 q 235 25 263 9 q 185 60 207 40 q 148 104 164 79 q 120 169 132 130 q 111 207 115 186 q 105 254 107 228 q 101 314 102 281 q 100 389 100 347 l 100 1013 l 237 1013 l 237 326 q 241 221 237 252 q 256 172 245 189 q 319 112 277 132 q 418 92 359 92 q 517 112 477 92 q 581 172 559 133 q 589 193 586 182 q 595 220 593 204 q 599 325 599 252 l 599 1013 l 736 1013 l 736 389 q 734 310 736 344 q 731 249 733 275 q 725 203 728 223 q 717 169 721 184 q 690 108 707 135 q 650 60 673 81 q 601 24 628 39 q 547 0 573 9 q 490 -14 522 -9 q 418 -20 458 -20 z "},"Ú":{"ha":836,"x_min":100,"x_max":736,"o":"m 456 1259 l 582 1259 l 427 1080 l 322 1080 l 456 1259 m 418 -20 q 350 -15 381 -20 q 290 0 318 -9 q 235 25 263 9 q 185 60 207 40 q 148 104 164 79 q 120 169 132 130 q 111 207 115 186 q 105 254 107 228 q 101 314 102 281 q 100 389 100 347 l 100 1013 l 237 1013 l 237 326 q 241 221 237 252 q 256 172 245 189 q 319 112 277 132 q 418 92 359 92 q 517 112 477 92 q 581 172 559 133 q 589 193 586 182 q 595 220 593 204 q 599 325 599 252 l 599 1013 l 736 1013 l 736 389 q 734 310 736 344 q 731 249 733 275 q 725 203 728 223 q 717 169 721 184 q 690 108 707 135 q 650 60 673 81 q 601 24 628 39 q 547 0 573 9 q 490 -14 522 -9 q 418 -20 458 -20 z "},"Û":{"ha":836,"x_min":100,"x_max":736,"o":"m 354 1256 l 482 1256 l 625 1076 l 530 1076 l 418 1196 l 306 1076 l 211 1076 l 354 1256 m 418 -20 q 350 -15 381 -20 q 290 0 318 -9 q 235 25 263 9 q 185 60 207 40 q 148 104 164 79 q 120 169 132 130 q 111 207 115 186 q 105 254 107 228 q 101 314 102 281 q 100 389 100 347 l 100 1013 l 237 1013 l 237 326 q 241 221 237 252 q 256 172 245 189 q 319 112 277 132 q 418 92 359 92 q 517 112 477 92 q 581 172 559 133 q 589 193 586 182 q 595 220 593 204 q 599 325 599 252 l 599 1013 l 736 1013 l 736 389 q 734 310 736 344 q 731 249 733 275 q 725 203 728 223 q 717 169 721 184 q 690 108 707 135 q 650 60 673 81 q 601 24 628 39 q 547 0 573 9 q 490 -14 522 -9 q 418 -20 458 -20 z "},"Ü":{"ha":836,"x_min":100,"x_max":736,"o":"m 237 1117 q 216 1137 216 1117 l 216 1234 q 237 1255 216 1255 l 334 1255 q 354 1234 354 1255 l 354 1137 q 334 1117 354 1117 l 237 1117 m 503 1117 q 482 1137 482 1117 l 482 1234 q 503 1255 482 1255 l 599 1255 q 619 1234 619 1255 l 619 1137 q 599 1117 619 1117 l 503 1117 m 418 -20 q 350 -15 381 -20 q 290 0 318 -9 q 235 25 263 9 q 185 60 207 40 q 148 104 164 79 q 120 169 132 130 q 111 207 115 186 q 105 254 107 228 q 101 314 102 281 q 100 389 100 347 l 100 1013 l 237 1013 l 237 326 q 241 221 237 252 q 256 172 245 189 q 319 112 277 132 q 418 92 359 92 q 517 112 477 92 q 581 172 559 133 q 589 193 586 182 q 595 220 593 204 q 599 325 599 252 l 599 1013 l 736 1013 l 736 389 q 734 310 736 344 q 731 249 733 275 q 725 203 728 223 q 717 169 721 184 q 690 108 707 135 q 650 60 673 81 q 601 24 628 39 q 547 0 573 9 q 490 -14 522 -9 q 418 -20 458 -20 z "},"Ù":{"ha":836,"x_min":100,"x_max":736,"o":"m 256 1256 l 380 1256 l 514 1077 l 410 1077 l 256 1256 m 418 -20 q 350 -15 381 -20 q 290 0 318 -9 q 235 25 263 9 q 185 60 207 40 q 148 104 164 79 q 120 169 132 130 q 111 207 115 186 q 105 254 107 228 q 101 314 102 281 q 100 389 100 347 l 100 1013 l 237 1013 l 237 326 q 241 221 237 252 q 256 172 245 189 q 319 112 277 132 q 418 92 359 92 q 517 112 477 92 q 581 172 559 133 q 589 193 586 182 q 595 220 593 204 q 599 325 599 252 l 599 1013 l 736 1013 l 736 389 q 734 310 736 344 q 731 249 733 275 q 725 203 728 223 q 717 169 721 184 q 690 108 707 135 q 650 60 673 81 q 601 24 628 39 q 547 0 573 9 q 490 -14 522 -9 q 418 -20 458 -20 z "},"Ư":{"ha":836,"x_min":6,"x_max":830,"o":"m 817 1059 q 827 1008 824 1030 q 830 962 830 987 q 801 846 830 886 q 712 806 772 806 q 677 809 694 806 q 642 823 661 813 l 642 389 q 641 313 642 346 q 637 253 640 279 q 631 206 635 227 q 623 168 627 185 q 594 105 612 132 q 554 58 576 78 q 506 23 532 37 q 454 0 480 9 q 326 -20 395 -20 q 192 1 252 -20 q 92 59 133 22 q 52 109 68 81 q 26 170 35 137 q 11 253 16 201 q 6 389 6 305 l 6 1013 l 144 1013 l 144 326 q 148 221 144 252 q 155 191 150 207 q 169 161 159 176 q 191 134 178 146 q 225 111 205 121 q 270 97 245 102 q 324 92 296 92 q 425 113 382 92 q 488 172 469 134 q 495 193 492 180 q 501 220 499 205 q 505 325 505 252 l 505 1013 l 642 1013 l 642 910 q 687 900 667 900 q 731 919 715 900 q 747 975 747 938 q 726 1059 747 1017 l 817 1059 l 817 1059 z "},"Ű":{"ha":836,"x_min":100,"x_max":736,"o":"m 367 1256 l 493 1256 l 338 1077 l 233 1077 l 367 1256 m 583 1256 l 709 1256 l 554 1077 l 450 1077 l 583 1256 m 419 -20 q 286 1 345 -20 q 186 59 227 22 q 145 109 161 81 q 119 170 129 137 q 105 253 110 201 q 100 389 100 305 l 100 1013 l 237 1013 l 237 326 q 241 221 237 252 q 248 191 243 207 q 262 161 253 176 q 285 134 271 146 q 319 111 298 121 q 364 97 338 102 q 418 92 389 92 q 519 113 475 92 q 581 172 562 134 q 589 193 585 180 q 595 220 593 205 q 599 325 599 252 l 599 1013 l 736 1013 l 736 389 q 735 313 736 346 q 731 253 734 279 q 725 206 728 227 q 716 168 721 185 q 688 105 705 132 q 648 58 670 78 q 600 23 625 37 q 547 0 574 9 q 419 -20 488 -20 z "},"Ū":{"ha":836,"x_min":100,"x_max":736,"o":"m 215 1221 l 621 1221 l 621 1120 l 215 1120 l 215 1221 m 419 -20 q 286 1 345 -20 q 186 59 227 22 q 145 109 161 81 q 119 170 129 137 q 105 253 110 201 q 100 389 100 305 l 100 1013 l 237 1013 l 237 326 q 241 221 237 252 q 248 191 243 207 q 262 161 253 176 q 285 134 271 146 q 319 111 298 121 q 364 97 338 102 q 418 92 389 92 q 519 113 475 92 q 581 172 562 134 q 589 193 585 180 q 595 220 593 205 q 599 325 599 252 l 599 1013 l 736 1013 l 736 389 q 735 313 736 346 q 731 253 734 279 q 725 206 728 227 q 716 168 721 185 q 688 105 705 132 q 648 58 670 78 q 600 23 625 37 q 547 0 574 9 q 419 -20 488 -20 z "},"Ų":{"ha":836,"x_min":100,"x_max":736,"o":"m 736 1013 l 736 389 q 735 313 736 346 q 731 253 734 279 q 725 206 728 227 q 716 168 721 185 q 688 105 705 132 q 648 58 670 78 q 600 23 625 37 q 547 0 574 9 q 502 -12 526 -7 q 452 -18 478 -17 q 410 -87 422 -60 q 398 -136 398 -114 q 417 -180 398 -164 q 473 -195 436 -195 q 557 -175 515 -195 l 557 -265 q 507 -276 528 -273 q 460 -279 485 -279 q 344 -250 384 -279 q 304 -161 304 -221 q 307 -129 304 -144 q 318 -95 311 -113 q 339 -59 326 -78 q 372 -17 352 -39 q 267 8 313 -12 q 186 59 220 28 q 145 109 161 81 q 119 170 129 137 q 105 253 110 201 q 100 389 100 305 l 100 1013 l 237 1013 l 237 326 q 241 221 237 252 q 248 191 243 207 q 262 161 253 176 q 285 134 271 146 q 319 111 298 121 q 364 97 338 102 q 418 92 389 92 q 519 113 475 92 q 581 172 562 134 q 589 193 585 180 q 595 220 593 205 q 599 325 599 252 l 599 1013 l 736 1013 z "},"Ů":{"ha":836,"x_min":100,"x_max":736,"o":"m 425 917 q 352 931 386 917 q 293 971 318 946 q 253 1030 268 996 q 239 1103 239 1065 q 253 1176 239 1142 q 293 1235 268 1210 q 352 1275 318 1260 q 425 1289 386 1289 q 498 1275 465 1289 q 557 1235 532 1260 q 597 1176 583 1210 q 611 1103 611 1142 q 597 1030 611 1065 q 557 971 583 996 q 498 931 532 946 q 425 917 465 917 m 425 1000 q 465 1008 446 1000 q 497 1030 484 1017 q 519 1063 511 1044 q 528 1103 528 1082 q 519 1143 528 1124 q 497 1176 511 1162 q 465 1198 484 1190 q 425 1206 446 1206 q 384 1198 403 1206 q 352 1176 366 1190 q 330 1144 338 1162 q 322 1103 322 1125 q 330 1063 322 1082 q 352 1030 338 1044 q 384 1008 366 1016 q 425 1000 403 1000 m 419 -20 q 286 1 345 -20 q 186 59 227 22 q 145 109 161 81 q 119 170 129 137 q 105 253 110 201 q 100 389 100 305 l 100 1013 l 237 1013 l 237 326 q 241 221 237 252 q 248 191 243 207 q 262 161 253 176 q 285 134 271 146 q 319 111 298 121 q 364 97 338 102 q 418 92 389 92 q 519 113 475 92 q 581 172 562 134 q 589 193 585 180 q 595 220 593 205 q 599 325 599 252 l 599 1013 l 736 1013 l 736 389 q 735 313 736 346 q 731 253 734 279 q 725 206 728 227 q 716 168 721 185 q 688 105 705 132 q 648 58 670 78 q 600 23 625 37 q 547 0 574 9 q 419 -20 488 -20 z "},"Ũ":{"ha":836,"x_min":100,"x_max":736,"o":"m 195 1107 q 229 1216 195 1177 q 327 1256 263 1256 q 375 1248 354 1256 q 421 1227 395 1240 l 460 1206 q 509 1190 489 1190 q 543 1206 530 1190 q 557 1252 557 1223 l 557 1256 l 642 1256 q 631 1195 640 1223 q 606 1148 623 1168 q 566 1118 590 1129 q 511 1107 542 1107 q 468 1114 489 1107 q 415 1137 446 1120 l 376 1159 q 349 1172 359 1168 q 330 1176 339 1176 q 293 1159 307 1176 q 279 1112 279 1142 l 279 1107 l 195 1107 m 419 -20 q 286 1 345 -20 q 186 59 227 22 q 145 109 161 81 q 119 170 129 137 q 105 253 110 201 q 100 389 100 305 l 100 1013 l 237 1013 l 237 326 q 241 221 237 252 q 248 191 243 207 q 262 161 253 176 q 285 134 271 146 q 319 111 298 121 q 364 97 338 102 q 418 92 389 92 q 519 113 475 92 q 581 172 562 134 q 589 193 585 180 q 595 220 593 205 q 599 325 599 252 l 599 1013 l 736 1013 l 736 389 q 735 313 736 346 q 731 253 734 279 q 725 206 728 227 q 716 168 721 185 q 688 105 705 132 q 648 58 670 78 q 600 23 625 37 q 547 0 574 9 q 419 -20 488 -20 z "},"V":{"ha":836,"x_min":39,"x_max":798,"o":"m 39 1013 l 180 1013 l 418 115 l 656 1013 l 798 1013 l 501 0 l 335 0 l 39 1013 z "},"W":{"ha":836,"x_min":0,"x_max":836,"o":"m 0 1013 l 134 1013 l 231 191 l 346 734 l 489 734 l 606 189 l 703 1013 l 836 1013 l 685 0 l 555 0 l 418 602 l 281 0 l 151 0 l 0 1013 z "},"Ẃ":{"ha":836,"x_min":0,"x_max":836,"o":"m 456 1259 l 582 1259 l 427 1080 l 322 1080 l 456 1259 m 0 1013 l 134 1013 l 231 191 l 346 734 l 489 734 l 606 189 l 703 1013 l 836 1013 l 685 0 l 555 0 l 418 602 l 281 0 l 151 0 l 0 1013 z "},"Ŵ":{"ha":836,"x_min":0,"x_max":836,"o":"m 354 1256 l 482 1256 l 625 1076 l 530 1076 l 418 1196 l 306 1076 l 211 1076 l 354 1256 m 0 1013 l 134 1013 l 231 191 l 346 734 l 489 734 l 606 189 l 703 1013 l 836 1013 l 685 0 l 555 0 l 418 602 l 281 0 l 151 0 l 0 1013 z "},"Ẅ":{"ha":836,"x_min":0,"x_max":836,"o":"m 237 1119 q 222 1125 229 1119 q 216 1140 216 1131 l 216 1235 q 222 1250 216 1244 q 237 1256 229 1256 l 333 1256 q 348 1250 342 1256 q 354 1235 354 1244 l 354 1140 q 348 1125 354 1131 q 333 1119 342 1119 l 237 1119 m 503 1119 q 488 1125 494 1119 q 482 1140 482 1131 l 482 1235 q 488 1250 482 1244 q 503 1256 494 1256 l 598 1256 q 613 1250 607 1256 q 619 1235 619 1244 l 619 1140 q 613 1125 619 1131 q 598 1119 607 1119 l 503 1119 m 0 1013 l 134 1013 l 231 191 l 346 734 l 489 734 l 606 189 l 703 1013 l 836 1013 l 685 0 l 555 0 l 418 602 l 281 0 l 151 0 l 0 1013 z "},"Ẁ":{"ha":836,"x_min":0,"x_max":836,"o":"m 256 1256 l 380 1256 l 514 1077 l 410 1077 l 256 1256 m 0 1013 l 134 1013 l 231 191 l 346 734 l 489 734 l 606 189 l 703 1013 l 836 1013 l 685 0 l 555 0 l 418 602 l 281 0 l 151 0 l 0 1013 z "},"X":{"ha":836,"x_min":12,"x_max":823,"o":"m 351 536 l 58 1013 l 205 1013 l 428 631 l 654 1013 l 802 1013 l 498 536 l 823 0 l 676 0 l 428 436 l 160 0 l 12 0 l 351 536 z "},"Y":{"ha":836,"x_min":25,"x_max":811,"o":"m 349 454 l 25 1013 l 171 1013 l 418 566 l 664 1013 l 811 1013 l 486 454 l 486 0 l 349 0 l 349 454 z "},"Ý":{"ha":836,"x_min":25,"x_max":811,"o":"m 456 1256 l 582 1256 l 427 1077 l 322 1077 l 456 1256 m 349 454 l 25 1013 l 171 1013 l 418 566 l 664 1013 l 811 1013 l 486 454 l 486 0 l 349 0 l 349 454 z "},"Ŷ":{"ha":836,"x_min":25,"x_max":811,"o":"m 354 1256 l 482 1256 l 625 1076 l 530 1076 l 418 1196 l 306 1076 l 211 1076 l 354 1256 m 349 454 l 25 1013 l 171 1013 l 418 566 l 664 1013 l 811 1013 l 486 454 l 486 0 l 349 0 l 349 454 z "},"Ÿ":{"ha":836,"x_min":25,"x_max":811,"o":"m 237 1118 q 216 1139 216 1118 l 216 1236 q 237 1256 216 1256 l 334 1256 q 354 1236 354 1256 l 354 1139 q 334 1118 354 1118 l 237 1118 m 503 1118 q 482 1139 482 1118 l 482 1236 q 503 1256 482 1256 l 599 1256 q 619 1236 619 1256 l 619 1139 q 599 1118 619 1118 l 503 1118 m 349 454 l 25 1013 l 171 1013 l 418 566 l 664 1013 l 811 1013 l 486 454 l 486 0 l 349 0 l 349 454 z "},"Ỳ":{"ha":836,"x_min":25,"x_max":811,"o":"m 256 1256 l 380 1256 l 514 1077 l 410 1077 l 256 1256 m 349 454 l 25 1013 l 171 1013 l 418 566 l 664 1013 l 811 1013 l 486 454 l 486 0 l 349 0 l 349 454 z "},"Z":{"ha":836,"x_min":75,"x_max":762,"o":"m 75 104 l 589 897 l 90 897 l 90 1013 l 747 1013 l 747 908 l 218 115 l 762 115 l 762 0 l 75 0 l 75 104 z "},"Ź":{"ha":836,"x_min":75,"x_max":762,"o":"m 443 1256 l 569 1256 l 414 1077 l 309 1077 l 443 1256 m 75 104 l 589 897 l 90 897 l 90 1013 l 747 1013 l 747 908 l 218 115 l 762 115 l 762 0 l 75 0 l 75 104 z "},"Ž":{"ha":836,"x_min":75,"x_max":762,"o":"m 180 1256 l 275 1256 l 387 1135 l 499 1256 l 594 1256 l 451 1076 l 323 1076 l 180 1256 m 75 104 l 589 897 l 90 897 l 90 1013 l 747 1013 l 747 908 l 218 115 l 762 115 l 762 0 l 75 0 l 75 104 z "},"Ż":{"ha":836,"x_min":75,"x_max":762,"o":"m 371 1117 q 351 1137 351 1117 l 351 1236 q 371 1256 351 1256 l 469 1256 q 490 1236 490 1256 l 490 1137 q 469 1117 490 1117 l 371 1117 m 75 104 l 589 897 l 90 897 l 90 1013 l 747 1013 l 747 908 l 218 115 l 762 115 l 762 0 l 75 0 l 75 104 z "},"a":{"ha":836,"x_min":92,"x_max":760,"o":"m 348 -20 q 161 46 230 -20 q 111 120 129 77 q 92 222 92 162 q 178 414 92 347 q 427 479 262 479 l 595 479 l 595 499 q 583 576 595 543 q 549 631 572 610 q 490 662 526 652 q 404 672 453 672 q 275 654 340 672 q 148 600 209 635 l 148 725 q 211 747 176 736 q 281 765 245 758 q 405 778 342 778 q 492 771 453 778 q 566 749 532 764 q 625 715 597 736 q 673 667 653 694 q 696 626 687 648 q 709 583 705 604 q 720 433 720 534 l 720 278 q 722 209 722 239 q 726 153 723 179 q 734 100 730 125 q 742 62 739 75 q 753 22 747 41 q 760 0 759 3 l 635 0 q 626 24 631 8 q 616 59 621 40 q 610 89 613 74 q 606 115 607 104 q 555 55 586 81 q 494 13 524 28 q 426 -12 462 -4 q 348 -20 389 -20 m 374 85 q 535 157 476 85 q 595 354 595 230 l 595 382 l 437 382 q 273 344 328 382 q 230 295 243 324 q 217 229 217 267 q 228 167 217 193 q 258 123 239 141 q 306 95 278 105 q 374 85 334 85 z "},"á":{"ha":836,"x_min":92,"x_max":760,"o":"m 515 1135 l 649 1135 l 429 880 l 324 880 l 515 1135 m 348 -20 q 161 46 230 -20 q 111 120 129 77 q 92 222 92 162 q 178 414 92 347 q 427 479 262 479 l 595 479 l 595 499 q 583 576 595 543 q 549 631 572 610 q 490 662 526 652 q 404 672 453 672 q 275 654 340 672 q 148 600 209 635 l 148 725 q 211 747 176 736 q 281 765 245 758 q 405 778 342 778 q 492 771 453 778 q 566 749 532 764 q 625 715 597 736 q 673 667 653 694 q 696 626 687 648 q 709 583 705 604 q 720 433 720 534 l 720 278 q 722 209 722 239 q 726 153 723 179 q 734 100 730 125 q 742 62 739 75 q 753 22 747 41 q 760 0 759 3 l 635 0 q 626 24 631 8 q 616 59 621 40 q 610 89 613 74 q 606 115 607 104 q 555 55 586 81 q 494 13 524 28 q 426 -12 462 -4 q 348 -20 389 -20 m 374 85 q 535 157 476 85 q 595 354 595 230 l 595 382 l 437 382 q 273 344 328 382 q 230 295 243 324 q 217 229 217 267 q 228 167 217 193 q 258 123 239 141 q 306 95 278 105 q 374 85 334 85 z "},"ă":{"ha":836,"x_min":92,"x_max":760,"o":"m 420 879 q 208 1074 223 879 l 288 1074 q 327 998 296 1025 q 419 972 357 972 q 510 997 477 972 q 552 1074 543 1022 l 633 1074 q 420 879 617 879 m 348 -20 q 161 46 230 -20 q 111 120 129 77 q 92 222 92 162 q 178 414 92 347 q 427 479 262 479 l 595 479 l 595 499 q 583 576 595 543 q 549 631 572 610 q 490 662 526 652 q 404 672 453 672 q 275 654 340 672 q 148 600 209 635 l 148 725 q 211 747 176 736 q 281 765 245 758 q 405 778 342 778 q 492 771 453 778 q 566 749 532 764 q 625 715 597 736 q 673 667 653 694 q 696 626 687 648 q 709 583 705 604 q 720 433 720 534 l 720 278 q 722 209 722 239 q 726 153 723 179 q 734 100 730 125 q 742 62 739 75 q 753 22 747 41 q 760 0 759 3 l 635 0 q 626 24 631 8 q 616 59 621 40 q 610 89 613 74 q 606 115 607 104 q 555 55 586 81 q 494 13 524 28 q 426 -12 462 -4 q 348 -20 389 -20 m 374 85 q 535 157 476 85 q 595 354 595 230 l 595 382 l 437 382 q 273 344 328 382 q 230 295 243 324 q 217 229 217 267 q 228 167 217 193 q 258 123 239 141 q 306 95 278 105 q 374 85 334 85 z "},"â":{"ha":836,"x_min":92,"x_max":760,"o":"m 370 1135 l 470 1135 l 637 880 l 543 880 l 420 1046 l 298 880 l 203 880 l 370 1135 m 348 -20 q 161 46 230 -20 q 111 120 129 77 q 92 222 92 162 q 178 414 92 347 q 427 479 262 479 l 595 479 l 595 499 q 583 576 595 543 q 549 631 572 610 q 490 662 526 652 q 404 672 453 672 q 275 654 340 672 q 148 600 209 635 l 148 725 q 211 747 176 736 q 281 765 245 758 q 405 778 342 778 q 492 771 453 778 q 566 749 532 764 q 625 715 597 736 q 673 667 653 694 q 696 626 687 648 q 709 583 705 604 q 720 433 720 534 l 720 278 q 722 209 722 239 q 726 153 723 179 q 734 100 730 125 q 742 62 739 75 q 753 22 747 41 q 760 0 759 3 l 635 0 q 626 24 631 8 q 616 59 621 40 q 610 89 613 74 q 606 115 607 104 q 555 55 586 81 q 494 13 524 28 q 426 -12 462 -4 q 348 -20 389 -20 m 374 85 q 535 157 476 85 q 595 354 595 230 l 595 382 l 437 382 q 273 344 328 382 q 230 295 243 324 q 217 229 217 267 q 228 167 217 193 q 258 123 239 141 q 306 95 278 105 q 374 85 334 85 z "},"ä":{"ha":836,"x_min":92,"x_max":760,"o":"m 239 916 q 218 936 218 916 l 218 1032 q 239 1053 218 1053 l 336 1053 q 356 1032 356 1053 l 356 936 q 336 916 356 916 l 239 916 m 505 916 q 484 936 484 916 l 484 1032 q 505 1053 484 1053 l 601 1053 q 621 1032 621 1053 l 621 936 q 601 916 621 916 l 505 916 m 348 -20 q 161 46 230 -20 q 111 120 129 77 q 92 222 92 162 q 178 414 92 347 q 427 479 262 479 l 595 479 l 595 499 q 583 576 595 543 q 549 631 572 610 q 490 662 526 652 q 404 672 453 672 q 275 654 340 672 q 148 600 209 635 l 148 725 q 211 747 176 736 q 281 765 245 758 q 405 778 342 778 q 492 771 453 778 q 566 749 532 764 q 625 715 597 736 q 673 667 653 694 q 696 626 687 648 q 709 583 705 604 q 720 433 720 534 l 720 278 q 722 209 722 239 q 726 153 723 179 q 734 100 730 125 q 742 62 739 75 q 753 22 747 41 q 760 0 759 3 l 635 0 q 626 24 631 8 q 616 59 621 40 q 610 89 613 74 q 606 115 607 104 q 555 55 586 81 q 494 13 524 28 q 426 -12 462 -4 q 348 -20 389 -20 m 374 85 q 535 157 476 85 q 595 354 595 230 l 595 382 l 437 382 q 273 344 328 382 q 230 295 243 324 q 217 229 217 267 q 228 167 217 193 q 258 123 239 141 q 306 95 278 105 q 374 85 334 85 z "},"à":{"ha":836,"x_min":92,"x_max":760,"o":"m 191 1135 l 326 1135 l 516 880 l 412 880 l 191 1135 m 348 -20 q 161 46 230 -20 q 111 120 129 77 q 92 222 92 162 q 178 414 92 347 q 427 479 262 479 l 595 479 l 595 499 q 583 576 595 543 q 549 631 572 610 q 490 662 526 652 q 404 672 453 672 q 275 654 340 672 q 148 600 209 635 l 148 725 q 211 747 176 736 q 281 765 245 758 q 405 778 342 778 q 492 771 453 778 q 566 749 532 764 q 625 715 597 736 q 673 667 653 694 q 696 626 687 648 q 709 583 705 604 q 720 433 720 534 l 720 278 q 722 209 722 239 q 726 153 723 179 q 734 100 730 125 q 742 62 739 75 q 753 22 747 41 q 760 0 759 3 l 635 0 q 626 24 631 8 q 616 59 621 40 q 610 89 613 74 q 606 115 607 104 q 555 55 586 81 q 494 13 524 28 q 426 -12 462 -4 q 348 -20 389 -20 m 374 85 q 535 157 476 85 q 595 354 595 230 l 595 382 l 437 382 q 273 344 328 382 q 230 295 243 324 q 217 229 217 267 q 228 167 217 193 q 258 123 239 141 q 306 95 278 105 q 374 85 334 85 z "},"ā":{"ha":836,"x_min":92,"x_max":760,"o":"m 217 1015 l 623 1015 l 623 914 l 217 914 l 217 1015 m 348 -20 q 161 46 230 -20 q 111 120 129 77 q 92 222 92 162 q 178 414 92 347 q 427 479 262 479 l 595 479 l 595 499 q 583 576 595 543 q 549 631 572 610 q 490 662 526 652 q 404 672 453 672 q 275 654 340 672 q 148 600 209 635 l 148 725 q 211 747 176 736 q 281 765 245 758 q 405 778 342 778 q 492 771 453 778 q 566 749 532 764 q 625 715 597 736 q 673 667 653 694 q 696 626 687 648 q 709 583 705 604 q 720 433 720 534 l 720 278 q 722 209 722 239 q 726 153 723 179 q 734 100 730 125 q 742 62 739 75 q 753 22 747 41 q 760 0 759 3 l 635 0 q 626 24 631 8 q 616 59 621 40 q 610 89 613 74 q 606 115 607 104 q 555 55 586 81 q 494 13 524 28 q 426 -12 462 -4 q 348 -20 389 -20 m 374 85 q 535 157 476 85 q 595 354 595 230 l 595 382 l 437 382 q 273 344 328 382 q 230 295 243 324 q 217 229 217 267 q 228 167 217 193 q 258 123 239 141 q 306 95 278 105 q 374 85 334 85 z "},"ą":{"ha":836,"x_min":92,"x_max":815,"o":"m 731 -182 q 815 -162 773 -182 l 815 -252 q 765 -263 787 -260 q 718 -266 743 -266 q 602 -237 642 -266 q 562 -148 562 -208 q 566 -115 562 -131 q 578 -80 570 -98 q 600 -43 586 -62 q 634 1 614 -23 q 626 25 631 9 q 616 59 621 41 q 610 89 613 74 q 606 115 607 104 q 555 55 586 81 q 494 13 524 28 q 426 -12 462 -4 q 348 -20 389 -20 q 161 46 230 -20 q 111 120 129 77 q 92 222 92 162 q 178 414 92 347 q 427 479 262 479 l 595 479 l 595 499 q 583 576 595 543 q 549 631 572 610 q 490 662 526 652 q 404 672 453 672 q 275 654 340 672 q 148 600 209 635 l 148 725 q 211 747 176 736 q 281 765 245 758 q 405 778 342 778 q 492 771 453 778 q 566 749 532 764 q 625 715 597 736 q 673 667 653 694 q 696 626 687 648 q 709 583 705 604 q 720 433 720 534 l 720 278 q 722 209 722 239 q 726 153 723 179 q 734 100 730 125 q 742 62 739 75 q 753 22 747 41 q 760 0 759 3 l 715 0 q 670 -72 683 -43 q 656 -123 656 -100 q 675 -167 656 -151 q 731 -182 694 -182 m 595 382 l 437 382 q 273 344 328 382 q 230 295 243 324 q 217 229 217 267 q 228 167 217 193 q 258 123 239 141 q 306 95 278 105 q 374 85 334 85 q 535 157 476 85 q 595 354 595 230 l 595 382 z "},"å":{"ha":836,"x_min":92,"x_max":760,"o":"m 420 847 q 288 901 342 847 q 234 1034 234 956 q 288 1166 234 1112 q 420 1219 342 1219 q 553 1166 499 1219 q 606 1034 606 1112 q 553 901 606 955 q 420 847 498 847 m 420 930 q 493 960 463 930 q 523 1034 523 990 q 493 1106 523 1076 q 419 1136 463 1136 q 347 1107 376 1136 q 317 1034 317 1077 q 347 960 317 990 q 420 930 377 930 m 348 -20 q 161 46 230 -20 q 111 120 129 77 q 92 222 92 162 q 178 414 92 347 q 427 479 262 479 l 595 479 l 595 499 q 583 576 595 543 q 549 631 572 610 q 490 662 526 652 q 404 672 453 672 q 275 654 340 672 q 148 600 209 635 l 148 725 q 211 747 176 736 q 281 765 245 758 q 405 778 342 778 q 492 771 453 778 q 566 749 532 764 q 625 715 597 736 q 673 667 653 694 q 696 626 687 648 q 709 583 705 604 q 720 433 720 534 l 720 278 q 722 209 722 239 q 726 153 723 179 q 734 100 730 125 q 742 62 739 75 q 753 22 747 41 q 760 0 759 3 l 635 0 q 626 24 631 8 q 616 59 621 40 q 610 89 613 74 q 606 115 607 104 q 555 55 586 81 q 494 13 524 28 q 426 -12 462 -4 q 348 -20 389 -20 m 374 85 q 535 157 476 85 q 595 354 595 230 l 595 382 l 437 382 q 273 344 328 382 q 230 295 243 324 q 217 229 217 267 q 228 167 217 193 q 258 123 239 141 q 306 95 278 105 q 374 85 334 85 z "},"ã":{"ha":836,"x_min":92,"x_max":760,"o":"m 197 908 q 232 1049 198 1000 q 328 1099 267 1099 q 376 1090 354 1099 q 423 1058 397 1081 l 462 1021 q 476 1009 469 1014 q 488 1001 484 1004 q 498 996 494 997 q 508 994 503 994 q 546 1019 534 994 q 559 1099 557 1044 l 644 1099 q 608 958 642 1008 q 513 908 574 908 q 464 918 486 908 q 417 949 444 926 l 378 987 q 363 1000 370 995 q 353 1007 357 1004 q 342 1012 347 1010 q 332 1013 338 1013 q 294 988 307 1013 q 281 908 281 962 l 197 908 m 348 -20 q 161 46 230 -20 q 111 120 129 77 q 92 222 92 162 q 178 414 92 347 q 427 479 262 479 l 595 479 l 595 499 q 583 576 595 543 q 549 631 572 610 q 490 662 526 652 q 404 672 453 672 q 275 654 340 672 q 148 600 209 635 l 148 725 q 211 747 176 736 q 281 765 245 758 q 405 778 342 778 q 492 771 453 778 q 566 749 532 764 q 625 715 597 736 q 673 667 653 694 q 696 626 687 648 q 709 583 705 604 q 720 433 720 534 l 720 278 q 722 209 722 239 q 726 153 723 179 q 734 100 730 125 q 742 62 739 75 q 753 22 747 41 q 760 0 759 3 l 635 0 q 626 24 631 8 q 616 59 621 40 q 610 89 613 74 q 606 115 607 104 q 555 55 586 81 q 494 13 524 28 q 426 -12 462 -4 q 348 -20 389 -20 m 374 85 q 535 157 476 85 q 595 354 595 230 l 595 382 l 437 382 q 273 344 328 382 q 230 295 243 324 q 217 229 217 267 q 228 167 217 193 q 258 123 239 141 q 306 95 278 105 q 374 85 334 85 z "},"æ":{"ha":836,"x_min":28,"x_max":814,"o":"m 243 -20 q 83 39 138 -20 q 41 112 54 69 q 28 206 28 154 q 44 309 28 264 q 96 385 60 353 q 293 446 164 446 l 372 446 l 372 505 q 339 630 372 587 q 242 673 306 673 q 200 670 222 673 q 159 659 178 666 q 116 642 138 652 q 72 618 93 631 l 72 732 q 122 752 98 743 q 169 767 146 762 q 255 778 212 778 q 358 757 317 778 q 425 692 399 735 q 492 755 448 733 q 598 778 537 778 q 698 758 656 778 q 765 698 741 739 q 814 410 814 617 l 814 349 l 481 349 q 480 338 480 343 q 480 327 480 332 q 480 320 480 325 q 479 300 479 316 q 489 195 479 234 q 514 133 498 156 q 560 96 532 107 q 626 85 588 85 q 722 102 677 85 q 799 154 766 120 l 799 37 q 758 12 779 23 q 717 -5 736 1 q 673 -16 697 -12 q 622 -20 648 -20 q 556 -13 587 -20 q 499 8 524 -5 q 427 89 448 36 q 355 7 400 35 q 305 -13 332 -6 q 243 -20 277 -20 m 703 446 l 703 481 q 696 570 703 534 q 677 629 689 607 q 644 661 665 649 q 591 673 623 673 q 507 627 532 673 q 481 475 481 581 l 481 446 l 703 446 m 254 85 q 343 130 318 85 q 361 191 355 152 q 368 300 368 231 l 368 349 l 335 349 q 180 318 220 349 q 149 276 159 302 q 139 212 139 249 q 170 118 139 151 q 254 85 200 85 z "},"b":{"ha":836,"x_min":131,"x_max":754,"o":"m 458 -20 q 395 -13 424 -20 q 339 10 367 -5 q 256 96 287 40 l 243 0 l 131 0 l 131 1055 l 256 1055 l 256 663 q 338 748 285 718 q 461 778 391 778 q 581 752 526 778 q 675 673 635 726 q 734 547 715 621 q 754 380 754 473 q 675 87 754 195 q 583 7 637 35 q 458 -20 528 -20 m 441 86 q 576 160 531 86 q 623 379 623 235 q 576 598 623 524 q 440 672 531 672 q 302 598 349 672 q 256 379 256 524 q 302 161 256 235 q 441 86 349 86 z "},"c":{"ha":836,"x_min":111,"x_max":699,"o":"m 483 -20 q 329 7 398 -20 q 210 86 259 34 q 136 213 161 139 q 111 379 111 286 q 137 549 111 476 q 211 673 163 623 q 330 752 261 726 q 484 778 399 778 q 541 774 515 778 q 593 764 568 771 q 699 720 645 749 l 699 589 q 649 627 673 610 q 600 652 625 643 q 487 672 549 672 q 306 596 369 672 q 243 380 243 519 q 257 259 243 315 q 306 163 272 203 q 489 86 370 86 q 551 92 523 86 q 603 106 579 97 q 655 133 633 118 q 699 168 677 149 l 699 39 q 648 14 675 25 q 595 -5 621 2 q 544 -16 572 -12 q 483 -20 515 -20 z "},"ć":{"ha":836,"x_min":111,"x_max":699,"o":"m 553 1135 l 687 1135 l 467 880 l 362 880 l 553 1135 m 483 -20 q 329 7 398 -20 q 210 86 259 34 q 136 212 161 138 q 111 379 111 286 q 137 549 111 476 q 211 673 163 623 q 330 752 261 726 q 484 778 399 778 q 541 774 515 778 q 593 764 568 771 q 699 720 645 749 l 699 589 q 649 627 673 610 q 600 652 625 643 q 487 672 549 672 q 306 596 369 672 q 243 380 243 519 q 257 259 243 315 q 306 163 272 203 q 489 86 370 86 q 551 92 523 86 q 603 106 579 97 q 655 133 633 118 q 699 168 677 149 l 699 39 q 648 14 675 25 q 595 -5 621 2 q 544 -16 572 -12 q 483 -20 515 -20 z "},"č":{"ha":836,"x_min":111,"x_max":699,"o":"m 241 1135 l 336 1135 l 458 968 l 581 1135 l 675 1135 l 508 880 l 408 880 l 241 1135 m 483 -20 q 329 7 398 -20 q 210 86 259 34 q 136 212 161 138 q 111 379 111 286 q 137 549 111 476 q 211 673 163 623 q 330 752 261 726 q 484 778 399 778 q 541 774 515 778 q 593 764 568 771 q 699 720 645 749 l 699 589 q 649 627 673 610 q 600 652 625 643 q 487 672 549 672 q 306 596 369 672 q 243 380 243 519 q 257 259 243 315 q 306 163 272 203 q 489 86 370 86 q 551 92 523 86 q 603 106 579 97 q 655 133 633 118 q 699 168 677 149 l 699 39 q 648 14 675 25 q 595 -5 621 2 q 544 -16 572 -12 q 483 -20 515 -20 z "},"ç":{"ha":836,"x_min":111,"x_max":699,"o":"m 487 672 q 306 596 369 672 q 243 380 243 519 q 257 259 243 315 q 306 163 272 203 q 489 86 370 86 q 551 92 523 86 q 603 106 579 97 q 655 133 633 118 q 699 168 677 149 l 699 39 q 648 14 675 25 q 595 -5 621 2 q 568 -12 582 -9 q 538 -16 554 -15 q 581 -78 566 -49 q 593 -111 588 -94 q 598 -149 598 -128 q 588 -199 598 -176 q 557 -237 578 -222 q 508 -260 538 -252 q 436 -268 478 -268 q 377 -264 406 -268 q 317 -252 346 -260 l 317 -163 q 341 -173 329 -168 q 366 -180 353 -177 q 394 -183 379 -182 q 420 -184 408 -184 q 484 -168 463 -184 q 504 -122 504 -152 q 489 -71 504 -100 q 457 -19 478 -50 q 318 12 381 -15 q 210 86 256 38 q 136 212 161 138 q 111 379 111 286 q 137 549 111 476 q 211 673 163 623 q 330 752 261 726 q 484 778 399 778 q 541 774 515 778 q 593 764 568 771 q 699 720 645 749 l 699 589 q 649 627 673 610 q 600 652 625 643 q 487 672 549 672 z "},"ċ":{"ha":836,"x_min":111,"x_max":699,"o":"m 398 914 q 378 935 378 914 l 378 1032 q 398 1053 378 1053 l 496 1053 q 517 1032 517 1053 l 517 935 q 496 914 517 914 l 398 914 m 486 -20 q 329 7 398 -20 q 211 86 259 35 q 137 212 162 138 q 111 379 111 286 q 137 547 111 473 q 211 672 162 621 q 329 751 259 724 q 486 778 398 778 q 593 764 541 778 q 699 720 646 750 l 699 589 q 599 652 649 633 q 486 672 549 672 q 306 596 368 672 q 243 379 243 521 q 306 162 243 238 q 486 86 369 86 q 603 106 552 86 q 699 168 654 125 l 699 39 q 486 -20 597 -20 z "},"d":{"ha":836,"x_min":83,"x_max":707,"o":"m 379 -20 q 253 9 307 -20 q 162 87 199 37 q 103 215 123 141 q 83 381 83 290 q 103 546 83 471 q 162 673 122 620 q 258 752 202 726 q 379 778 313 778 q 500 749 448 778 q 582 663 552 719 l 582 1055 l 707 1055 l 707 0 l 594 0 l 582 96 q 547 47 566 68 q 499 10 527 26 q 379 -20 448 -20 m 397 86 q 535 161 488 86 q 582 379 582 235 q 535 598 582 524 q 479 652 513 633 q 397 672 446 672 q 261 598 307 672 q 215 379 215 524 q 261 160 215 235 q 319 104 285 121 q 397 86 354 86 z "},"ð":{"ha":836,"x_min":93,"x_max":743,"o":"m 418 -20 q 280 6 340 -20 q 178 81 220 31 q 114 202 135 132 q 93 361 93 273 q 114 522 93 451 q 178 644 136 593 q 281 719 220 694 q 428 743 342 743 q 444 743 440 743 q 450 743 448 743 q 459 742 457 742 q 463 742 462 742 q 465 741 464 741 q 472 741 467 741 q 465 750 470 743 q 453 766 460 757 q 439 784 446 774 q 425 802 432 793 q 400 832 413 817 q 375 861 388 846 l 186 799 l 165 865 l 326 920 l 203 1055 l 351 1055 l 437 957 l 633 1021 l 656 954 l 486 900 q 682 627 619 756 q 728 497 713 562 q 743 358 743 431 q 722 201 743 271 q 659 81 701 132 q 555 5 615 29 q 418 -20 494 -20 m 418 86 q 561 158 511 86 q 598 245 586 195 q 611 360 611 296 q 606 436 611 401 q 591 507 601 472 q 568 570 582 541 q 538 623 555 599 q 511 631 526 627 q 486 636 496 635 q 433 640 458 640 q 343 623 383 640 q 277 570 304 606 q 238 480 251 533 q 225 362 225 428 q 275 158 225 231 q 418 86 325 86 z "},"ď":{"ha":836,"x_min":63,"x_max":890,"o":"m 755 1056 l 890 1056 l 813 801 l 709 801 l 755 1056 m 357 -20 q 235 8 289 -20 q 142 87 180 35 q 83 213 104 139 q 63 380 63 287 q 84 547 63 473 q 142 672 104 621 q 235 751 180 724 q 357 778 290 778 q 479 749 428 778 q 562 663 531 720 l 562 1055 l 686 1055 l 686 0 l 574 0 l 562 96 q 478 9 530 39 q 357 -20 427 -20 m 377 86 q 515 160 468 86 q 562 379 562 234 q 515 598 562 524 q 377 672 468 672 q 240 598 286 672 q 195 379 195 525 q 240 160 195 233 q 377 86 286 86 z "},"đ":{"ha":836,"x_min":83,"x_max":836,"o":"m 379 -20 q 253 9 307 -20 q 162 87 199 37 q 103 215 123 141 q 83 381 83 290 q 103 546 83 471 q 162 673 122 620 q 258 752 202 726 q 379 778 313 778 q 500 749 448 778 q 582 663 552 719 l 582 872 l 375 872 l 375 954 l 582 954 l 582 1055 l 707 1055 l 707 954 l 836 954 l 836 872 l 707 872 l 707 0 l 594 0 l 582 96 q 547 47 566 68 q 499 10 527 26 q 379 -20 448 -20 m 397 86 q 535 161 488 86 q 582 379 582 235 q 535 598 582 524 q 479 652 513 633 q 397 672 446 672 q 261 598 307 672 q 215 379 215 524 q 261 160 215 235 q 319 104 285 121 q 397 86 354 86 z "},"e":{"ha":836,"x_min":84,"x_max":755,"o":"m 459 -20 q 302 7 372 -20 q 184 86 233 34 q 110 212 135 138 q 84 378 84 286 q 110 546 84 474 q 181 669 136 618 q 297 751 231 724 q 440 778 363 778 q 573 753 516 778 q 671 680 631 728 q 733 565 712 633 q 755 411 755 498 l 755 350 l 214 350 l 214 346 q 279 154 214 222 q 355 104 311 121 q 461 86 399 86 q 587 105 523 86 q 726 163 652 125 l 726 39 q 656 13 690 24 q 589 -5 622 2 q 524 -16 556 -13 q 459 -20 491 -20 m 630 448 q 615 548 629 506 q 578 615 601 589 q 518 658 554 644 q 437 672 482 672 q 288 612 346 672 q 219 447 230 552 l 630 448 z "},"é":{"ha":836,"x_min":84,"x_max":755,"o":"m 523 1135 l 657 1135 l 437 880 l 332 880 l 523 1135 m 459 -20 q 302 7 372 -20 q 184 86 233 34 q 110 212 135 138 q 84 378 84 286 q 110 546 84 474 q 181 669 136 618 q 297 751 231 724 q 440 778 363 778 q 573 753 516 778 q 671 680 631 728 q 733 565 712 633 q 755 411 755 498 l 755 350 l 214 350 l 214 346 q 279 154 214 222 q 355 104 311 121 q 461 86 399 86 q 587 105 523 86 q 726 163 652 125 l 726 39 q 653 12 690 24 q 589 -5 616 1 q 524 -16 556 -13 q 459 -20 491 -20 m 630 448 q 615 548 629 506 q 578 615 601 589 q 518 658 554 644 q 437 672 482 672 q 288 612 346 672 q 219 447 230 552 l 630 448 z "},"ě":{"ha":836,"x_min":84,"x_max":755,"o":"m 226 1135 l 320 1135 l 442 968 l 565 1135 l 659 1135 l 492 880 l 393 880 l 226 1135 m 459 -20 q 301 8 371 -20 q 183 87 232 35 q 110 212 135 138 q 84 376 84 285 q 110 542 84 468 q 181 669 135 616 q 293 750 228 722 q 437 778 358 778 q 572 752 513 778 q 671 680 631 727 q 733 564 712 632 q 755 411 755 496 l 755 350 l 214 350 l 214 346 q 231 235 214 283 q 279 154 248 187 q 357 103 311 121 q 461 86 403 86 q 587 105 522 86 q 726 163 652 124 l 726 39 q 588 -5 654 9 q 459 -20 523 -20 m 630 448 q 579 613 628 554 q 439 672 531 672 q 289 613 347 672 q 219 447 231 555 l 630 448 z "},"ê":{"ha":836,"x_min":84,"x_max":755,"o":"m 378 1135 l 478 1135 l 645 880 l 551 880 l 428 1046 l 306 880 l 212 880 l 378 1135 m 459 -20 q 302 7 372 -20 q 184 86 233 34 q 110 212 135 138 q 84 378 84 286 q 110 546 84 474 q 181 669 136 618 q 297 751 231 724 q 440 778 363 778 q 573 753 516 778 q 671 680 631 728 q 733 565 712 633 q 755 411 755 498 l 755 350 l 214 350 l 214 346 q 279 154 214 222 q 355 104 311 121 q 461 86 399 86 q 587 105 523 86 q 726 163 652 125 l 726 39 q 653 12 690 24 q 589 -5 616 1 q 524 -16 556 -13 q 459 -20 491 -20 m 630 448 q 615 548 629 506 q 578 615 601 589 q 518 658 554 644 q 437 672 482 672 q 288 612 346 672 q 219 447 230 552 l 630 448 z "},"ë":{"ha":836,"x_min":84,"x_max":755,"o":"m 247 916 q 227 936 227 916 l 227 1032 q 247 1053 227 1053 l 344 1053 q 364 1032 364 1053 l 364 936 q 344 916 364 916 l 247 916 m 513 916 q 492 936 492 916 l 492 1032 q 513 1053 492 1053 l 609 1053 q 629 1032 629 1053 l 629 936 q 609 916 629 916 l 513 916 m 459 -20 q 302 7 372 -20 q 184 86 233 34 q 110 212 135 138 q 84 378 84 286 q 110 546 84 474 q 181 669 136 618 q 297 751 231 724 q 440 778 363 778 q 573 753 516 778 q 671 680 631 728 q 733 565 712 633 q 755 411 755 498 l 755 350 l 214 350 l 214 346 q 279 154 214 222 q 355 104 311 121 q 461 86 399 86 q 587 105 523 86 q 726 163 652 125 l 726 39 q 653 12 690 24 q 589 -5 616 1 q 524 -16 556 -13 q 459 -20 491 -20 m 630 448 q 615 548 629 506 q 578 615 601 589 q 518 658 554 644 q 437 672 482 672 q 288 612 346 672 q 219 447 230 552 l 630 448 z "},"ė":{"ha":836,"x_min":84,"x_max":755,"o":"m 378 914 q 358 935 358 914 l 358 1032 q 378 1053 358 1053 l 477 1053 q 497 1032 497 1053 l 497 935 q 477 914 497 914 l 378 914 m 459 -20 q 301 8 371 -20 q 183 87 232 35 q 110 212 135 138 q 84 376 84 285 q 110 542 84 468 q 181 669 135 616 q 293 750 228 722 q 437 778 358 778 q 572 752 513 778 q 671 680 631 727 q 733 564 712 632 q 755 411 755 496 l 755 350 l 214 350 l 214 346 q 231 235 214 283 q 279 154 248 187 q 357 103 311 121 q 461 86 403 86 q 587 105 522 86 q 726 163 652 124 l 726 39 q 588 -5 654 9 q 459 -20 523 -20 m 630 448 q 579 613 628 554 q 439 672 531 672 q 289 613 347 672 q 219 447 231 555 l 630 448 z "},"è":{"ha":836,"x_min":84,"x_max":755,"o":"m 199 1135 l 334 1135 l 524 880 l 420 880 l 199 1135 m 459 -20 q 302 7 372 -20 q 184 86 233 34 q 110 212 135 138 q 84 378 84 286 q 110 546 84 474 q 181 669 136 618 q 297 751 231 724 q 440 778 363 778 q 573 753 516 778 q 671 680 631 728 q 733 565 712 633 q 755 411 755 498 l 755 350 l 214 350 l 214 346 q 279 154 214 222 q 355 104 311 121 q 461 86 399 86 q 587 105 523 86 q 726 163 652 125 l 726 39 q 653 12 690 24 q 589 -5 616 1 q 524 -16 556 -13 q 459 -20 491 -20 m 630 448 q 615 548 629 506 q 578 615 601 589 q 518 658 554 644 q 437 672 482 672 q 288 612 346 672 q 219 447 230 552 l 630 448 z "},"ē":{"ha":836,"x_min":84,"x_max":755,"o":"m 239 1015 l 645 1015 l 645 914 l 239 914 l 239 1015 m 459 -20 q 301 8 371 -20 q 183 87 232 35 q 110 212 135 138 q 84 376 84 285 q 110 542 84 468 q 181 669 135 616 q 293 750 228 722 q 437 778 358 778 q 572 752 513 778 q 671 680 631 727 q 733 564 712 632 q 755 411 755 496 l 755 350 l 214 350 l 214 346 q 231 235 214 283 q 279 154 248 187 q 357 103 311 121 q 461 86 403 86 q 587 105 522 86 q 726 163 652 124 l 726 39 q 588 -5 654 9 q 459 -20 523 -20 m 630 448 q 579 613 628 554 q 439 672 531 672 q 289 613 347 672 q 219 447 231 555 l 630 448 z "},"ę":{"ha":836,"x_min":84,"x_max":755,"o":"m 214 350 l 214 346 q 231 235 214 283 q 279 154 248 187 q 357 103 311 121 q 461 86 403 86 q 587 105 522 86 q 726 163 652 124 l 726 39 q 665 16 694 26 q 606 -1 635 7 q 560 -73 574 -45 q 547 -125 547 -102 q 566 -169 547 -153 q 621 -184 585 -184 q 705 -164 663 -184 l 705 -254 q 655 -265 677 -262 q 608 -268 633 -268 q 492 -239 532 -268 q 452 -150 452 -210 q 455 -120 452 -135 q 465 -89 458 -104 q 483 -55 472 -73 q 511 -17 494 -37 q 485 -19 498 -18 q 459 -20 472 -20 q 301 8 371 -20 q 183 87 232 35 q 110 212 135 138 q 84 376 84 285 q 110 542 84 468 q 181 669 135 616 q 293 750 228 722 q 437 778 358 778 q 572 752 513 778 q 671 680 631 727 q 733 564 712 632 q 755 411 755 496 l 755 350 l 214 350 m 439 672 q 289 613 347 672 q 219 447 231 555 l 630 448 q 579 613 628 554 q 439 672 531 672 z "},"f":{"ha":836,"x_min":113,"x_max":702,"o":"m 316 663 l 113 663 l 113 760 l 316 760 l 316 812 q 374 996 316 938 q 552 1055 431 1055 l 702 1055 l 702 951 l 560 951 q 502 944 524 951 q 467 924 479 937 q 441 827 441 897 l 441 760 l 702 760 l 702 663 l 441 663 l 441 0 l 316 0 l 316 663 z "},"g":{"ha":836,"x_min":102,"x_max":726,"o":"m 408 -298 q 355 -296 381 -298 q 300 -289 328 -294 q 244 -277 272 -284 q 187 -261 217 -271 l 187 -138 q 251 -165 220 -153 q 308 -184 282 -176 q 410 -199 361 -199 q 496 -185 460 -199 q 555 -143 531 -172 q 601 31 601 -89 l 601 121 q 519 26 572 58 q 395 -5 468 -5 q 182 101 261 -5 q 102 386 102 208 q 182 671 102 564 q 274 751 222 725 q 395 778 327 778 q 461 771 431 778 q 518 749 492 764 q 601 659 570 719 l 613 757 l 726 757 l 726 49 q 645 -210 726 -121 q 408 -298 565 -298 m 422 98 q 555 172 510 98 q 601 386 601 246 q 555 600 601 527 q 497 655 532 638 q 421 672 463 672 q 282 600 330 672 q 234 385 234 527 q 283 172 234 246 q 422 98 332 98 z "},"ğ":{"ha":836,"x_min":102,"x_max":726,"o":"m 437 880 q 286 929 339 880 q 224 1075 232 978 l 305 1075 q 345 998 312 1024 q 437 973 377 973 q 527 998 495 973 q 569 1075 560 1024 l 650 1075 q 589 929 642 978 q 437 880 534 880 m 408 -298 q 355 -296 381 -298 q 300 -289 328 -294 q 244 -277 272 -284 q 187 -261 217 -271 l 187 -138 q 251 -165 220 -153 q 308 -184 282 -176 q 410 -199 361 -199 q 496 -185 460 -199 q 555 -143 531 -172 q 589 -74 577 -116 q 601 31 601 -33 l 601 121 q 519 26 572 58 q 395 -5 468 -5 q 182 101 261 -5 q 102 386 102 208 q 182 671 102 564 q 274 751 222 725 q 395 778 327 778 q 461 771 431 778 q 518 749 492 764 q 601 659 570 719 l 613 757 l 726 757 l 726 49 q 645 -210 726 -121 q 408 -298 565 -298 m 422 98 q 555 172 510 98 q 601 386 601 246 q 555 600 601 527 q 497 655 532 638 q 421 672 463 672 q 282 600 330 672 q 234 385 234 527 q 283 172 234 246 q 422 98 332 98 z "},"ǧ":{"ha":836,"x_min":102,"x_max":726,"o":"m 220 1135 l 315 1135 l 437 968 l 559 1135 l 654 1135 l 487 880 l 387 880 l 220 1135 m 408 -298 q 300 -289 356 -298 q 187 -261 244 -279 l 187 -138 q 251 -165 221 -153 q 309 -184 281 -176 q 361 -195 336 -191 q 412 -199 387 -199 q 555 -143 510 -199 q 601 31 601 -87 l 601 121 q 522 27 572 59 q 397 -5 471 -5 q 274 22 329 -5 q 182 101 220 50 q 123 224 144 152 q 102 387 102 297 q 123 548 102 476 q 181 671 143 621 q 274 750 220 722 q 397 778 329 778 q 518 748 467 778 q 601 659 570 719 l 613 757 l 726 757 l 726 49 q 645 -211 726 -123 q 408 -298 565 -298 m 420 98 q 555 172 510 98 q 601 386 601 245 q 555 600 601 527 q 420 672 510 672 q 282 600 330 672 q 234 387 234 528 q 282 172 234 245 q 420 98 331 98 z "},"ģ":{"ha":836,"x_min":102,"x_max":726,"o":"m 475 1114 l 574 1114 l 511 880 l 349 880 l 475 1114 m 408 -298 q 300 -289 356 -298 q 187 -261 244 -279 l 187 -138 q 251 -165 221 -153 q 309 -184 281 -176 q 361 -195 336 -191 q 412 -199 387 -199 q 555 -143 510 -199 q 601 31 601 -87 l 601 121 q 522 27 572 59 q 397 -5 471 -5 q 274 22 329 -5 q 182 101 220 50 q 123 224 144 152 q 102 387 102 297 q 123 548 102 476 q 181 671 143 621 q 274 750 220 722 q 397 778 329 778 q 518 748 467 778 q 601 659 570 719 l 613 757 l 726 757 l 726 49 q 645 -211 726 -123 q 408 -298 565 -298 m 420 98 q 555 172 510 98 q 601 386 601 245 q 555 600 601 527 q 420 672 510 672 q 282 600 330 672 q 234 387 234 528 q 282 172 234 245 q 420 98 331 98 z "},"ġ":{"ha":836,"x_min":102,"x_max":726,"o":"m 387 914 q 367 935 367 914 l 367 1032 q 387 1053 367 1053 l 486 1053 q 506 1032 506 1053 l 506 935 q 486 914 506 914 l 387 914 m 408 -298 q 300 -289 356 -298 q 187 -261 244 -279 l 187 -138 q 251 -165 221 -153 q 309 -184 281 -176 q 361 -195 336 -191 q 412 -199 387 -199 q 555 -143 510 -199 q 601 31 601 -87 l 601 121 q 522 27 572 59 q 397 -5 471 -5 q 274 22 329 -5 q 182 101 220 50 q 123 224 144 152 q 102 387 102 297 q 123 548 102 476 q 181 671 143 621 q 274 750 220 722 q 397 778 329 778 q 518 748 467 778 q 601 659 570 719 l 613 757 l 726 757 l 726 49 q 645 -211 726 -123 q 408 -298 565 -298 m 420 98 q 555 172 510 98 q 601 386 601 245 q 555 600 601 527 q 420 672 510 672 q 282 600 330 672 q 234 387 234 528 q 282 172 234 245 q 420 98 331 98 z "},"h":{"ha":836,"x_min":132,"x_max":713,"o":"m 132 1055 l 257 1055 l 257 646 q 347 745 291 711 q 481 778 404 778 q 585 758 543 778 q 656 702 628 739 q 713 471 713 625 l 713 0 l 587 0 l 587 471 q 551 621 587 573 q 438 669 515 669 q 360 654 393 669 q 304 608 328 638 q 257 429 257 546 l 257 0 l 132 0 l 132 1055 z "},"ħ":{"ha":836,"x_min":47,"x_max":713,"o":"m 132 861 l 47 861 l 47 972 l 132 972 l 132 1055 l 257 1055 l 257 972 l 496 972 l 496 861 l 257 861 l 257 646 q 347 745 290 711 q 482 778 404 778 q 656 702 599 778 q 713 471 713 626 l 713 0 l 587 0 l 587 471 q 552 621 587 573 q 439 669 516 669 q 304 608 351 669 q 257 429 257 546 l 257 0 l 132 0 l 132 861 z "},"i":{"ha":836,"x_min":182,"x_max":741,"o":"m 355 897 q 334 918 334 897 l 334 1035 q 355 1055 334 1055 l 452 1055 q 473 1035 473 1055 l 473 918 q 452 897 473 897 l 355 897 m 583 -5 q 485 12 528 -5 q 410 66 442 28 q 348 270 348 138 l 348 662 l 182 662 l 182 760 l 473 760 l 473 270 q 504 143 473 185 q 543 111 520 121 q 595 100 566 100 l 741 100 l 741 -5 l 583 -5 z "},"ı":{"ha":836,"x_min":182,"x_max":741,"o":"m 583 -5 q 485 12 528 -5 q 410 66 442 28 q 348 270 348 138 l 348 662 l 182 662 l 182 760 l 473 760 l 473 270 q 504 143 473 185 q 543 111 520 121 q 595 100 566 100 l 741 100 l 741 -5 l 583 -5 l 583 -5 z "},"í":{"ha":836,"x_min":182,"x_max":741,"o":"m 538 1117 l 673 1117 l 452 862 l 348 862 l 538 1117 m 583 -5 q 485 12 528 -5 q 410 66 442 28 q 348 270 348 138 l 348 662 l 182 662 l 182 760 l 473 760 l 473 270 q 504 143 473 185 q 543 111 520 121 q 595 100 566 100 l 741 100 l 741 -5 l 583 -5 z "},"î":{"ha":836,"x_min":182,"x_max":741,"o":"m 349 1118 l 448 1118 l 615 863 l 521 863 l 398 1029 l 276 863 l 182 863 l 349 1118 m 583 -5 q 485 12 528 -5 q 410 66 442 28 q 348 270 348 138 l 348 662 l 182 662 l 182 760 l 473 760 l 473 270 q 504 143 473 185 q 543 111 520 121 q 595 100 566 100 l 741 100 l 741 -5 l 583 -5 z "},"ï":{"ha":836,"x_min":182,"x_max":741,"o":"m 222 916 q 202 936 202 916 l 202 1032 q 222 1053 202 1053 l 319 1053 q 340 1032 340 1053 l 340 936 q 319 916 340 916 l 222 916 m 488 916 q 468 936 468 916 l 468 1032 q 488 1053 468 1053 l 585 1053 q 605 1032 605 1053 l 605 936 q 585 916 605 916 l 488 916 m 583 -5 q 485 12 528 -5 q 410 66 442 28 q 348 270 348 138 l 348 662 l 182 662 l 182 760 l 473 760 l 473 270 q 504 143 473 185 q 543 111 520 121 q 595 100 566 100 l 741 100 l 741 -5 l 583 -5 z "},"ì":{"ha":836,"x_min":148,"x_max":741,"o":"m 148 1117 l 282 1117 l 473 862 l 368 862 l 148 1117 m 583 -5 q 485 12 528 -5 q 410 66 442 28 q 348 270 348 138 l 348 662 l 182 662 l 182 760 l 473 760 l 473 270 q 504 143 473 185 q 543 111 520 121 q 595 100 566 100 l 741 100 l 741 -5 l 583 -5 z "},"ī":{"ha":836,"x_min":182,"x_max":741,"o":"m 182 996 l 587 996 l 587 895 l 182 895 l 182 996 m 583 -5 q 485 12 528 -5 q 410 66 442 28 q 348 270 348 138 l 348 662 l 182 662 l 182 760 l 473 760 l 473 270 q 504 143 473 185 q 543 111 520 121 q 595 100 566 100 l 741 100 l 741 -5 l 583 -5 z "},"į":{"ha":836,"x_min":182,"x_max":743,"o":"m 357 897 q 334 918 334 897 l 334 1035 q 357 1055 334 1055 l 450 1055 q 473 1035 473 1055 l 473 918 q 450 897 473 897 l 357 897 m 659 -177 q 743 -157 701 -177 l 743 -247 q 693 -257 715 -254 q 646 -260 671 -260 q 530 -232 570 -260 q 490 -142 490 -203 q 493 -111 490 -127 q 504 -79 496 -96 q 524 -44 511 -62 q 553 -4 536 -26 q 473 17 509 0 q 410 66 437 34 q 348 270 348 138 l 348 662 l 182 662 l 182 760 l 473 760 l 473 270 q 504 143 473 185 q 543 111 520 121 q 595 100 566 100 l 741 100 l 741 -5 l 635 -5 q 596 -70 608 -44 q 585 -117 585 -96 q 604 -161 585 -146 q 659 -177 623 -177 z "},"ĩ":{"ha":836,"x_min":182,"x_max":741,"o":"m 182 854 q 191 933 182 898 q 216 994 199 969 q 257 1032 233 1019 q 314 1045 282 1045 q 361 1036 340 1045 q 408 1004 383 1026 l 447 966 q 474 945 463 951 q 494 940 485 940 q 515 946 506 940 q 531 965 525 952 q 544 1045 543 989 l 629 1045 q 620 965 629 1001 q 594 905 611 930 q 553 867 578 880 q 496 854 528 854 q 449 863 471 854 q 402 895 427 873 l 363 932 q 338 952 349 946 q 316 959 328 959 q 295 953 304 959 q 279 934 286 947 q 266 854 267 907 l 182 854 m 583 -5 q 485 12 528 -5 q 410 66 442 28 q 348 270 348 138 l 348 662 l 182 662 l 182 760 l 473 760 l 473 270 q 504 143 473 185 q 543 111 520 121 q 595 100 566 100 l 741 100 l 741 -5 l 583 -5 z "},"j":{"ha":836,"x_min":161,"x_max":567,"o":"m 442 897 q 422 918 422 897 l 422 1035 q 442 1055 422 1055 l 540 1055 q 560 1035 560 1055 l 560 918 q 540 897 560 897 l 442 897 m 161 -183 l 320 -183 q 412 -141 381 -183 q 442 -14 442 -98 l 442 663 l 227 663 l 227 760 l 567 760 l 567 -14 q 552 -130 567 -78 q 507 -218 537 -181 q 432 -272 476 -254 q 334 -289 389 -289 l 161 -289 l 161 -183 z "},"k":{"ha":836,"x_min":153,"x_max":808,"o":"m 153 1055 l 282 1055 l 282 444 l 610 760 l 762 760 l 463 473 l 808 0 l 656 0 l 375 392 l 282 304 l 282 0 l 153 0 l 153 1055 z "},"ķ":{"ha":836,"x_min":153,"x_max":808,"o":"m 153 1055 l 282 1055 l 282 444 l 610 760 l 762 760 l 463 473 l 808 0 l 656 0 l 375 392 l 282 304 l 282 0 l 153 0 l 153 1055 m 425 -135 l 587 -135 l 460 -369 l 361 -369 l 425 -135 z "},"l":{"ha":836,"x_min":122,"x_max":715,"o":"m 557 -5 q 459 12 503 -5 q 384 66 416 28 q 322 270 322 138 l 322 958 l 122 958 l 122 1055 l 447 1055 l 447 270 q 478 143 447 185 q 517 111 494 121 q 569 100 540 100 l 715 100 l 715 -5 l 557 -5 l 557 -5 z "},"ĺ":{"ha":836,"x_min":109,"x_max":701,"o":"m 391 1275 l 517 1275 l 362 1096 l 258 1096 l 391 1275 m 543 -5 q 370 66 431 -5 q 309 270 309 138 l 309 958 l 109 958 l 109 1055 l 433 1055 l 433 270 q 555 100 433 100 l 701 100 l 701 -5 l 543 -5 z "},"ľ":{"ha":836,"x_min":109,"x_max":785,"o":"m 543 -5 q 370 66 431 -5 q 309 270 309 138 l 309 958 l 109 958 l 109 1055 l 433 1055 l 433 270 q 555 100 433 100 l 701 100 l 701 -5 l 543 -5 m 650 1055 l 785 1055 l 708 800 l 604 800 l 650 1055 z "},"ļ":{"ha":836,"x_min":109,"x_max":701,"o":"m 543 -5 q 370 66 431 -5 q 309 270 309 138 l 309 958 l 109 958 l 109 1055 l 433 1055 l 433 270 q 555 100 433 100 l 701 100 l 701 -5 l 543 -5 m 337 -135 l 499 -135 l 372 -369 l 273 -369 l 337 -135 z "},"ł":{"ha":836,"x_min":52,"x_max":701,"o":"m 543 -5 q 446 12 489 -5 q 370 66 403 28 q 309 270 309 138 l 309 468 l 106 326 l 52 401 l 309 581 l 309 958 l 109 958 l 109 1055 l 433 1055 l 433 665 l 647 814 l 701 739 l 433 553 l 433 270 q 465 143 433 185 q 504 111 481 121 q 555 100 526 100 l 701 100 l 701 -5 l 543 -5 l 543 -5 z "},"m":{"ha":836,"x_min":74,"x_max":770,"o":"m 74 760 l 176 760 l 187 694 q 243 757 210 735 q 320 778 277 778 q 406 754 370 778 q 458 682 439 731 q 517 755 482 732 q 603 778 553 778 q 682 760 650 778 q 732 707 715 742 q 770 440 770 637 l 770 0 l 656 0 l 656 435 q 655 511 656 478 q 651 567 654 543 q 646 608 649 591 q 637 635 642 625 q 614 663 630 652 q 570 673 599 673 q 527 664 545 673 q 499 632 509 654 q 483 562 488 608 q 478 435 478 515 l 478 0 l 364 0 l 364 435 q 363 518 364 484 q 359 576 361 553 q 352 613 356 599 q 345 635 349 627 q 319 663 336 653 q 276 673 302 673 q 232 662 248 673 q 208 633 216 651 q 199 607 203 623 q 193 568 195 591 q 189 512 190 545 q 187 435 187 479 l 187 0 l 74 0 l 74 760 z "},"n":{"ha":836,"x_min":132,"x_max":713,"o":"m 132 760 l 245 760 l 257 646 q 347 745 291 711 q 481 778 404 778 q 585 758 543 778 q 656 702 628 739 q 713 471 713 625 l 713 0 l 587 0 l 587 471 q 551 621 587 573 q 438 669 515 669 q 360 654 393 669 q 304 608 328 638 q 257 429 257 546 l 257 0 l 132 0 l 132 760 z "},"ń":{"ha":836,"x_min":132,"x_max":713,"o":"m 526 1135 l 661 1135 l 440 880 l 336 880 l 526 1135 m 132 760 l 245 760 l 257 646 q 347 745 290 711 q 482 778 404 778 q 656 702 599 778 q 713 471 713 626 l 713 0 l 587 0 l 587 471 q 552 621 587 573 q 439 669 516 669 q 304 608 351 669 q 257 429 257 546 l 257 0 l 132 0 l 132 760 z "},"ň":{"ha":836,"x_min":132,"x_max":713,"o":"m 193 1135 l 288 1135 l 410 968 l 532 1135 l 627 1135 l 460 880 l 360 880 l 193 1135 m 132 760 l 245 760 l 257 646 q 347 745 290 711 q 482 778 404 778 q 656 702 599 778 q 713 471 713 626 l 713 0 l 587 0 l 587 471 q 552 621 587 573 q 439 669 516 669 q 304 608 351 669 q 257 429 257 546 l 257 0 l 132 0 l 132 760 z "},"ņ":{"ha":836,"x_min":132,"x_max":713,"o":"m 132 760 l 245 760 l 257 646 q 347 745 290 711 q 482 778 404 778 q 656 702 599 778 q 713 471 713 626 l 713 0 l 587 0 l 587 471 q 552 621 587 573 q 439 669 516 669 q 304 608 351 669 q 257 429 257 546 l 257 0 l 132 0 l 132 760 m 373 -135 l 535 -135 l 408 -369 l 309 -369 l 373 -135 z "},"ŋ":{"ha":836,"x_min":132,"x_max":713,"o":"m 340 -183 l 466 -183 q 587 -14 587 -183 l 587 471 q 552 621 587 573 q 439 669 516 669 q 304 608 351 669 q 257 429 257 546 l 257 0 l 132 0 l 132 760 l 245 760 l 257 646 q 347 745 290 711 q 482 778 404 778 q 656 702 599 778 q 713 471 713 626 l 713 -14 q 652 -218 713 -146 q 479 -289 592 -289 l 340 -289 l 340 -183 z "},"ñ":{"ha":836,"x_min":132,"x_max":713,"o":"m 195 872 q 230 1013 196 964 q 326 1063 264 1063 q 374 1054 352 1063 q 421 1022 395 1045 l 460 985 q 474 973 467 978 q 486 965 481 968 q 496 960 492 961 q 506 958 500 958 q 544 983 532 958 q 557 1063 555 1008 l 642 1063 q 606 922 640 972 q 511 872 572 872 q 462 882 484 872 q 415 913 441 890 l 376 951 q 361 964 368 959 q 351 971 355 968 q 340 976 345 975 q 330 977 336 977 q 292 952 304 977 q 279 872 279 926 l 195 872 m 132 760 l 245 760 l 257 646 q 347 745 291 711 q 481 778 404 778 q 585 758 543 778 q 656 702 628 739 q 713 471 713 625 l 713 0 l 587 0 l 587 471 q 551 621 587 573 q 438 669 515 669 q 360 654 393 669 q 304 608 328 638 q 257 429 257 546 l 257 0 l 132 0 l 132 760 z "},"o":{"ha":836,"x_min":93,"x_max":743,"o":"m 418 -20 q 279 6 340 -20 q 176 82 218 31 q 113 210 134 135 q 93 380 93 285 q 176 675 93 572 q 418 778 260 778 q 559 752 499 778 q 660 675 619 726 q 743 380 743 572 q 723 208 743 283 q 660 82 702 133 q 558 6 619 32 q 418 -20 498 -20 m 418 86 q 562 161 513 86 q 611 379 611 235 q 562 598 611 524 q 418 672 513 672 q 274 598 323 672 q 225 379 225 524 q 274 161 225 235 q 418 86 323 86 z "},"ó":{"ha":836,"x_min":93,"x_max":743,"o":"m 513 1135 l 647 1135 l 427 880 l 322 880 l 513 1135 m 418 -20 q 279 6 340 -20 q 176 82 218 31 q 113 210 134 135 q 93 380 93 285 q 176 675 93 572 q 418 778 260 778 q 559 752 499 778 q 660 675 619 726 q 743 380 743 572 q 723 208 743 283 q 660 82 702 133 q 558 6 619 32 q 418 -20 498 -20 m 418 86 q 562 161 513 86 q 611 379 611 235 q 562 598 611 524 q 418 672 513 672 q 274 598 323 672 q 225 379 225 524 q 274 161 225 235 q 418 86 323 86 z "},"ô":{"ha":836,"x_min":93,"x_max":743,"o":"m 368 1135 l 468 1135 l 635 880 l 541 880 l 418 1046 l 296 880 l 201 880 l 368 1135 m 418 -20 q 279 6 340 -20 q 176 82 218 31 q 113 210 134 135 q 93 380 93 285 q 176 675 93 572 q 418 778 260 778 q 559 752 499 778 q 660 675 619 726 q 743 380 743 572 q 723 208 743 283 q 660 82 702 133 q 558 6 619 32 q 418 -20 498 -20 m 418 86 q 562 161 513 86 q 611 379 611 235 q 562 598 611 524 q 418 672 513 672 q 274 598 323 672 q 225 379 225 524 q 274 161 225 235 q 418 86 323 86 z "},"ö":{"ha":836,"x_min":93,"x_max":743,"o":"m 237 916 q 216 936 216 916 l 216 1032 q 237 1053 216 1053 l 334 1053 q 354 1032 354 1053 l 354 936 q 334 916 354 916 l 237 916 m 503 916 q 482 936 482 916 l 482 1032 q 503 1053 482 1053 l 599 1053 q 619 1032 619 1053 l 619 936 q 599 916 619 916 l 503 916 m 418 -20 q 279 6 340 -20 q 176 82 218 31 q 113 210 134 135 q 93 380 93 285 q 176 675 93 572 q 418 778 260 778 q 559 752 499 778 q 660 675 619 726 q 743 380 743 572 q 723 208 743 283 q 660 82 702 133 q 558 6 619 32 q 418 -20 498 -20 m 418 86 q 562 161 513 86 q 611 379 611 235 q 562 598 611 524 q 418 672 513 672 q 274 598 323 672 q 225 379 225 524 q 274 161 225 235 q 418 86 323 86 z "},"ò":{"ha":836,"x_min":93,"x_max":743,"o":"m 189 1135 l 323 1135 l 514 880 l 410 880 l 189 1135 m 418 -20 q 279 6 340 -20 q 176 82 218 31 q 113 210 134 135 q 93 380 93 285 q 176 675 93 572 q 418 778 260 778 q 559 752 499 778 q 660 675 619 726 q 743 380 743 572 q 723 208 743 283 q 660 82 702 133 q 558 6 619 32 q 418 -20 498 -20 m 418 86 q 562 161 513 86 q 611 379 611 235 q 562 598 611 524 q 418 672 513 672 q 274 598 323 672 q 225 379 225 524 q 274 161 225 235 q 418 86 323 86 z "},"ơ":{"ha":836,"x_min":22,"x_max":815,"o":"m 802 771 q 812 721 809 743 q 815 674 815 699 q 786 558 815 598 q 697 518 758 518 q 677 519 687 518 q 658 524 667 520 q 672 378 672 458 q 589 82 672 184 q 347 -20 505 -20 q 104 82 187 -20 q 22 378 22 183 q 43 550 22 475 q 105 675 64 625 q 207 752 146 726 q 347 778 267 778 q 512 740 444 778 q 621 625 581 701 q 672 612 650 612 q 716 631 701 612 q 732 687 732 650 q 711 771 732 729 l 802 771 m 347 86 q 491 160 443 86 q 540 379 540 234 q 491 598 540 525 q 347 672 443 672 q 202 598 251 672 q 154 379 154 525 q 202 160 154 234 q 347 86 251 86 z "},"ő":{"ha":836,"x_min":93,"x_max":743,"o":"m 363 1135 l 478 1135 l 326 880 l 233 880 l 363 1135 m 589 1135 l 710 1135 l 542 880 l 450 880 l 589 1135 m 418 -20 q 176 82 258 -20 q 93 378 93 183 q 114 550 93 475 q 176 675 135 625 q 278 752 218 726 q 418 778 338 778 q 558 752 497 778 q 660 675 618 726 q 722 550 701 625 q 743 378 743 475 q 660 82 743 184 q 418 -20 576 -20 m 418 86 q 563 160 514 86 q 611 379 611 234 q 563 598 611 525 q 418 672 514 672 q 274 598 322 672 q 225 379 225 525 q 274 160 225 234 q 418 86 322 86 z "},"ō":{"ha":836,"x_min":93,"x_max":743,"o":"m 215 1014 l 621 1014 l 621 913 l 215 913 l 215 1014 m 418 -20 q 176 82 258 -20 q 93 378 93 183 q 114 550 93 475 q 176 675 135 625 q 278 752 218 726 q 418 778 338 778 q 558 752 497 778 q 660 675 618 726 q 722 550 701 625 q 743 378 743 475 q 660 82 743 184 q 418 -20 576 -20 m 418 86 q 563 160 514 86 q 611 379 611 234 q 563 598 611 525 q 418 672 514 672 q 274 598 322 672 q 225 379 225 525 q 274 160 225 234 q 418 86 322 86 z "},"ø":{"ha":836,"x_min":32,"x_max":796,"o":"m 32 -14 l 147 122 q 123 178 132 151 q 107 237 114 205 q 96 305 100 271 q 93 379 93 339 q 176 675 93 572 q 417 778 260 778 q 482 773 450 778 q 539 760 513 769 q 588 736 564 751 q 633 703 612 722 l 733 822 l 796 770 l 685 637 q 728 528 713 593 q 740 457 736 494 q 743 380 743 420 q 723 208 743 283 q 660 82 702 133 q 417 -20 576 -20 q 350 -14 380 -20 q 295 1 321 -9 q 245 25 267 11 q 203 61 223 39 l 94 -65 l 32 -14 m 554 608 q 497 656 530 642 q 418 672 463 672 q 273 600 323 672 q 236 513 249 564 q 222 393 222 463 q 223 356 222 374 q 227 318 224 338 q 241 231 232 278 l 554 608 m 417 86 q 562 161 513 86 q 599 253 587 198 q 611 377 611 307 q 610 415 611 397 q 607 452 609 433 q 603 486 606 467 q 595 529 600 505 l 281 150 q 310 120 296 131 q 340 102 323 110 q 375 91 357 95 q 417 86 393 86 z "},"ǿ":{"ha":836,"x_min":32,"x_max":796,"o":"m 513 1135 l 647 1135 l 427 880 l 322 880 l 513 1135 m 32 -14 l 147 122 q 107 236 121 171 q 93 381 93 302 q 114 551 93 477 q 176 675 135 625 q 279 752 218 726 q 419 778 340 778 q 539 760 486 778 q 633 703 593 741 l 733 822 l 796 770 l 685 637 q 728 528 713 593 q 743 380 743 463 q 660 82 743 183 q 418 -20 577 -20 q 203 61 279 -20 l 94 -65 l 32 -14 m 554 608 q 495 657 530 642 q 420 672 461 672 q 335 653 372 672 q 273 600 298 635 q 235 513 248 564 q 222 396 222 462 q 227 318 222 357 q 241 231 232 279 l 554 608 m 417 86 q 562 160 513 86 q 611 374 611 235 q 607 452 611 415 q 595 529 603 490 l 281 150 q 417 86 330 86 z "},"õ":{"ha":836,"x_min":93,"x_max":743,"o":"m 195 872 q 230 1013 196 964 q 326 1063 264 1063 q 374 1054 352 1063 q 421 1022 395 1045 l 460 985 q 474 973 467 978 q 486 965 481 968 q 496 960 492 961 q 506 958 500 958 q 544 983 532 958 q 557 1063 555 1008 l 642 1063 q 606 922 640 972 q 511 872 572 872 q 462 882 484 872 q 415 913 441 890 l 376 951 q 361 964 368 959 q 351 971 355 968 q 340 976 345 975 q 330 977 336 977 q 292 952 304 977 q 279 872 279 926 l 195 872 m 418 -20 q 279 6 340 -20 q 176 82 218 31 q 113 210 134 135 q 93 380 93 285 q 176 675 93 572 q 418 778 260 778 q 559 752 499 778 q 660 675 619 726 q 743 380 743 572 q 723 208 743 283 q 660 82 702 133 q 558 6 619 32 q 418 -20 498 -20 m 418 86 q 562 161 513 86 q 611 379 611 235 q 562 598 611 524 q 418 672 513 672 q 274 598 323 672 q 225 379 225 524 q 274 161 225 235 q 418 86 323 86 z "},"œ":{"ha":836,"x_min":9,"x_max":821,"o":"m 250 -20 q 139 5 183 -20 q 68 74 96 29 q 23 197 37 123 q 9 378 9 271 q 13 482 9 435 q 24 566 17 528 q 43 632 32 603 q 67 684 54 661 q 142 754 96 731 q 253 778 187 778 q 357 757 314 778 q 432 692 400 735 q 461 728 444 711 q 501 756 479 745 q 550 773 524 768 q 606 778 576 778 q 772 698 723 778 q 821 410 821 617 l 821 349 l 488 349 l 488 292 q 522 132 488 182 q 565 96 538 108 q 632 83 591 83 q 682 88 657 83 q 730 102 707 92 q 806 154 774 119 l 806 37 q 763 11 785 22 q 724 -6 741 -1 q 681 -16 705 -12 q 629 -20 656 -20 q 566 -14 594 -20 q 515 3 538 -7 q 470 30 491 14 q 432 71 450 46 q 393 29 412 45 q 353 3 374 13 q 307 -14 332 -9 q 250 -20 281 -20 m 252 83 q 350 140 322 83 q 362 175 357 155 q 371 223 367 195 q 376 288 374 251 q 378 373 378 325 q 371 525 378 467 q 350 615 364 583 q 312 661 336 648 q 253 675 288 675 q 193 660 216 675 q 157 618 170 646 q 145 585 150 604 q 136 536 140 565 q 131 469 132 508 q 129 378 129 430 q 131 290 129 328 q 136 224 132 252 q 145 175 140 195 q 157 140 150 155 q 196 96 172 109 q 252 83 220 83 m 710 446 q 710 454 710 449 q 711 466 710 459 q 711 476 711 473 q 711 481 711 479 q 684 629 711 584 q 599 675 657 675 q 514 629 540 675 q 488 475 488 582 l 488 446 l 710 446 z "},"p":{"ha":836,"x_min":129,"x_max":751,"o":"m 129 760 l 242 760 l 254 663 q 338 749 286 720 q 458 778 389 778 q 580 751 526 778 q 673 671 634 725 q 732 544 713 618 q 751 378 751 471 q 673 86 751 191 q 457 -20 594 -20 q 390 -12 418 -20 q 336 10 361 -4 q 254 96 283 41 l 254 -289 l 129 -289 l 129 760 m 439 86 q 575 160 530 86 q 621 379 621 234 q 575 598 621 524 q 439 672 530 672 q 301 598 348 672 q 254 379 254 524 q 301 161 254 235 q 439 86 348 86 z "},"þ":{"ha":836,"x_min":129,"x_max":751,"o":"m 129 1063 l 254 1063 l 254 663 q 338 749 286 720 q 458 778 389 778 q 580 751 526 778 q 673 671 634 725 q 732 544 713 618 q 751 378 751 471 q 673 86 751 191 q 457 -20 594 -20 q 390 -12 418 -20 q 336 10 361 -4 q 254 96 283 41 l 254 -289 l 129 -289 l 129 1063 m 439 86 q 575 160 530 86 q 621 379 621 234 q 575 598 621 524 q 439 672 530 672 q 301 598 348 672 q 254 379 254 524 q 301 161 254 235 q 439 86 348 86 z "},"q":{"ha":836,"x_min":93,"x_max":715,"o":"m 590 94 q 555 45 575 67 q 508 8 536 24 q 386 -22 456 -22 q 267 3 321 -22 q 172 83 212 29 q 114 203 136 132 q 93 374 93 274 q 112 540 93 465 q 172 669 132 615 q 265 749 211 722 q 387 775 319 775 q 507 746 456 775 q 554 710 533 731 q 590 660 574 688 l 602 757 l 715 757 l 715 -292 l 590 -292 l 590 94 m 406 83 q 486 102 451 83 q 544 158 520 120 q 590 376 590 233 q 544 595 590 521 q 486 651 520 633 q 407 669 452 669 q 271 595 317 669 q 225 376 225 521 q 271 157 225 232 q 406 83 317 83 z "},"r":{"ha":836,"x_min":205,"x_max":743,"o":"m 205 760 l 318 760 l 330 611 q 427 735 362 692 q 579 778 490 778 q 666 766 625 778 q 705 752 686 761 q 743 730 725 743 l 743 603 q 661 648 704 634 q 570 663 619 663 q 392 589 454 663 q 330 378 330 517 l 330 0 l 205 0 l 205 760 z "},"ŕ":{"ha":836,"x_min":205,"x_max":743,"o":"m 557 1135 l 692 1135 l 471 880 l 367 880 l 557 1135 m 205 760 l 318 760 l 330 611 q 424 734 361 690 q 581 778 488 778 q 666 766 626 778 q 743 730 706 755 l 743 603 q 661 648 702 634 q 570 663 620 663 q 392 590 453 663 q 330 378 330 517 l 330 0 l 205 0 l 205 760 z "},"ř":{"ha":836,"x_min":205,"x_max":743,"o":"m 229 1135 l 323 1135 l 445 968 l 568 1135 l 662 1135 l 495 880 l 395 880 l 229 1135 m 205 760 l 318 760 l 330 611 q 424 734 361 690 q 581 778 488 778 q 666 766 626 778 q 743 730 706 755 l 743 603 q 661 648 702 634 q 570 663 620 663 q 392 590 453 663 q 330 378 330 517 l 330 0 l 205 0 l 205 760 z "},"ŗ":{"ha":836,"x_min":155,"x_max":743,"o":"m 205 760 l 318 760 l 330 611 q 424 734 361 690 q 581 778 488 778 q 666 766 626 778 q 743 730 706 755 l 743 603 q 661 648 702 634 q 570 663 620 663 q 392 590 453 663 q 330 378 330 517 l 330 0 l 205 0 l 205 760 m 218 -135 l 380 -135 l 254 -369 l 155 -369 l 218 -135 z "},"s":{"ha":836,"x_min":144,"x_max":699,"o":"m 400 -20 q 339 -17 370 -20 q 278 -8 307 -14 q 216 7 252 -3 q 144 28 180 16 l 144 157 q 218 123 188 135 q 278 103 249 111 q 338 90 309 94 q 399 85 368 85 q 527 119 481 85 q 562 160 551 136 q 572 208 572 184 q 532 285 572 256 q 406 332 492 315 l 401 334 l 354 343 q 263 370 303 353 q 197 414 224 387 q 147 551 147 464 q 166 648 147 606 q 221 719 184 690 q 313 764 260 750 q 433 778 367 778 q 492 775 463 778 q 549 767 521 772 q 603 753 575 762 q 660 733 631 745 l 660 611 q 552 658 606 642 q 497 669 525 665 q 439 673 470 673 q 368 667 399 673 q 315 646 336 660 q 273 562 273 618 q 281 518 273 538 q 304 486 289 498 q 356 462 320 474 q 460 437 393 450 l 510 428 q 593 401 559 418 q 651 357 628 383 q 699 219 699 305 q 678 118 699 161 q 618 44 657 75 q 522 -4 577 12 q 400 -20 467 -20 z "},"ś":{"ha":836,"x_min":144,"x_max":699,"o":"m 530 1135 l 665 1135 l 444 880 l 340 880 l 530 1135 m 398 -20 q 278 -8 339 -20 q 144 28 216 4 l 144 157 q 399 85 283 85 q 472 94 440 85 q 527 119 505 102 q 561 157 549 135 q 572 207 572 180 q 563 249 572 230 q 534 283 554 268 q 483 311 515 298 q 406 332 451 323 l 401 334 l 354 343 q 259 372 298 354 q 195 415 220 390 q 159 474 170 441 q 147 549 147 507 q 220 719 147 660 q 433 778 294 778 q 660 733 551 778 l 660 611 q 552 658 605 642 q 437 673 498 673 q 273 562 273 673 q 281 518 273 538 q 304 486 289 498 q 361 461 322 473 q 460 437 400 449 l 510 428 q 651 358 604 410 q 699 220 699 305 q 678 119 699 163 q 618 44 657 75 q 524 -3 580 13 q 398 -20 468 -20 z "},"š":{"ha":836,"x_min":144,"x_max":699,"o":"m 201 1135 l 296 1135 l 418 968 l 541 1135 l 635 1135 l 468 880 l 368 880 l 201 1135 m 400 -20 q 339 -17 370 -20 q 278 -8 307 -14 q 216 7 252 -3 q 144 28 180 16 l 144 157 q 218 123 188 135 q 278 103 249 111 q 338 90 309 94 q 399 85 368 85 q 527 119 481 85 q 562 160 551 136 q 572 208 572 184 q 532 285 572 256 q 406 332 492 315 l 401 334 l 354 343 q 263 370 303 353 q 197 414 224 387 q 147 551 147 464 q 166 648 147 606 q 221 719 184 690 q 313 764 260 750 q 433 778 367 778 q 492 775 463 778 q 549 767 521 772 q 603 753 575 762 q 660 733 631 745 l 660 611 q 552 658 606 642 q 497 669 525 665 q 439 673 470 673 q 368 667 399 673 q 315 646 336 660 q 273 562 273 618 q 281 518 273 538 q 304 486 289 498 q 356 462 320 474 q 460 437 393 450 l 510 428 q 593 401 559 418 q 651 357 628 383 q 699 219 699 305 q 678 118 699 161 q 618 44 657 75 q 522 -4 577 12 q 400 -20 467 -20 z "},"ş":{"ha":836,"x_min":144,"x_max":699,"o":"m 651 357 q 699 219 699 305 q 678 118 699 161 q 618 44 657 75 q 486 -12 564 1 q 512 -47 501 -30 q 531 -78 524 -64 q 544 -111 538 -94 q 549 -149 549 -128 q 538 -199 549 -176 q 508 -237 528 -222 q 458 -260 488 -252 q 387 -268 429 -268 q 328 -264 357 -268 q 268 -252 296 -260 l 268 -163 q 292 -173 279 -168 q 317 -180 304 -177 q 344 -183 330 -182 q 370 -184 359 -184 q 434 -168 414 -184 q 454 -122 454 -152 q 439 -71 454 -100 q 426 -47 434 -60 q 408 -20 418 -35 l 400 -20 q 339 -17 370 -20 q 278 -8 307 -14 q 216 7 252 -3 q 144 28 180 16 l 144 157 q 218 123 188 135 q 278 103 249 111 q 338 90 309 94 q 399 85 368 85 q 527 119 481 85 q 562 160 551 136 q 572 208 572 184 q 532 285 572 256 q 406 332 492 315 l 401 334 l 354 343 q 263 370 303 353 q 197 414 224 387 q 147 551 147 464 q 166 648 147 606 q 221 719 184 690 q 313 764 260 750 q 433 778 367 778 q 492 775 463 778 q 549 767 521 772 q 603 753 575 762 q 660 733 631 745 l 660 611 q 552 658 606 642 q 497 669 525 665 q 439 673 470 673 q 368 667 399 673 q 315 646 336 660 q 273 562 273 618 q 281 518 273 538 q 304 486 289 498 q 356 462 320 474 q 460 437 393 450 l 510 428 q 593 401 559 418 q 651 357 628 383 z "},"ș":{"ha":836,"x_min":144,"x_max":699,"o":"m 398 -20 q 278 -8 339 -20 q 144 28 216 4 l 144 157 q 399 85 283 85 q 472 94 440 85 q 527 119 505 102 q 561 157 549 135 q 572 207 572 180 q 563 249 572 230 q 534 283 554 268 q 483 311 515 298 q 406 332 451 323 l 401 334 l 354 343 q 259 372 298 354 q 195 415 220 390 q 159 474 170 441 q 147 549 147 507 q 220 719 147 660 q 433 778 294 778 q 660 733 551 778 l 660 611 q 552 658 605 642 q 437 673 498 673 q 273 562 273 673 q 281 518 273 538 q 304 486 289 498 q 361 461 322 473 q 460 437 400 449 l 510 428 q 651 358 604 410 q 699 220 699 305 q 678 119 699 163 q 618 44 657 75 q 524 -3 580 13 q 398 -20 468 -20 m 340 -134 l 503 -134 l 376 -368 l 277 -368 l 340 -134 z "},"ß":{"ha":836,"x_min":127,"x_max":779,"o":"m 496 -20 q 448 -18 473 -20 q 402 -12 424 -16 q 361 -2 387 -8 q 311 14 336 4 l 311 125 q 408 94 362 104 q 494 83 453 83 q 560 92 531 83 q 610 116 589 100 q 643 157 633 134 q 653 210 653 180 q 648 249 653 232 q 630 284 643 267 q 587 328 613 308 q 528 367 561 347 l 482 393 q 427 433 450 412 q 389 477 404 455 q 366 523 374 500 q 358 577 358 547 q 372 654 358 618 q 413 720 385 691 q 479 769 439 749 q 574 802 519 789 q 532 913 572 874 q 414 951 490 951 q 293 907 332 951 q 254 768 254 863 l 254 0 l 127 0 l 127 771 q 199 985 127 915 q 289 1038 235 1021 q 414 1055 344 1055 q 626 981 555 1055 q 699 759 698 905 q 536 707 594 750 q 479 599 479 665 q 484 566 479 580 q 498 538 489 552 q 526 510 510 522 q 562 484 541 497 l 602 458 q 689 397 655 425 q 742 340 722 370 q 770 278 761 311 q 779 208 779 244 q 762 115 779 157 q 703 40 744 72 q 613 -4 666 11 q 496 -20 560 -20 z "},"t":{"ha":836,"x_min":89,"x_max":700,"o":"m 547 -3 q 349 54 408 -3 q 292 248 292 109 l 292 663 l 89 663 l 89 760 l 292 760 l 292 958 l 416 1013 l 416 760 l 700 760 l 700 663 l 416 663 l 416 248 q 448 130 416 164 q 559 97 479 97 l 700 97 l 700 -3 l 547 -3 l 547 -3 z "},"ŧ":{"ha":836,"x_min":89,"x_max":700,"o":"m 547 -3 q 428 11 477 -3 q 349 54 380 24 q 305 131 319 83 q 292 248 292 178 l 292 408 l 136 408 l 136 505 l 292 505 l 292 663 l 89 663 l 89 760 l 292 760 l 292 965 l 416 1013 l 416 760 l 700 760 l 700 663 l 416 663 l 416 505 l 572 505 l 572 408 l 416 408 l 416 248 q 424 177 416 205 q 448 130 431 148 q 492 105 465 113 q 559 97 519 97 l 700 97 l 700 -3 l 547 -3 l 547 -3 z "},"ť":{"ha":836,"x_min":89,"x_max":700,"o":"m 556 1141 l 690 1141 l 614 886 l 509 886 l 556 1141 m 547 -3 q 349 54 408 -3 q 292 248 292 109 l 292 663 l 89 663 l 89 760 l 292 760 l 292 958 l 416 1013 l 416 760 l 700 760 l 700 663 l 416 663 l 416 248 q 448 130 416 164 q 559 97 479 97 l 700 97 l 700 -3 l 547 -3 z "},"ț":{"ha":836,"x_min":89,"x_max":700,"o":"m 416 663 l 416 248 q 448 130 416 164 q 559 97 479 97 l 700 97 l 700 -3 l 568 -3 q 616 -72 601 -41 q 631 -138 631 -104 q 590 -227 631 -196 q 468 -257 549 -257 q 350 -241 410 -257 l 350 -152 q 398 -169 371 -163 q 450 -174 425 -174 q 515 -158 494 -174 q 536 -113 536 -142 q 534 -91 536 -102 q 525 -66 531 -80 q 509 -37 519 -53 q 484 1 498 -20 q 349 54 393 11 q 292 248 292 109 l 292 663 l 89 663 l 89 760 l 292 760 l 292 958 l 416 1013 l 416 760 l 700 760 l 700 663 l 416 663 z "},"u":{"ha":836,"x_min":132,"x_max":713,"o":"m 362 -20 q 189 57 246 -20 q 132 288 132 133 l 132 758 l 257 758 l 257 288 q 294 137 257 184 q 338 101 311 114 q 406 89 365 89 q 541 151 494 89 q 587 329 587 213 l 587 758 l 713 758 l 713 0 l 600 0 l 587 114 q 497 14 553 47 q 362 -20 439 -20 z "},"ú":{"ha":836,"x_min":132,"x_max":713,"o":"m 513 1115 l 647 1115 l 427 860 l 322 860 l 513 1115 m 362 -20 q 189 57 246 -20 q 132 288 132 133 l 132 758 l 257 758 l 257 288 q 294 137 257 184 q 338 101 311 114 q 406 89 365 89 q 541 151 494 89 q 587 329 587 213 l 587 758 l 713 758 l 713 0 l 600 0 l 587 114 q 497 14 553 47 q 362 -20 439 -20 z "},"û":{"ha":836,"x_min":132,"x_max":713,"o":"m 368 1115 l 468 1115 l 635 860 l 541 860 l 418 1026 l 296 860 l 201 860 l 368 1115 m 362 -20 q 189 57 246 -20 q 132 288 132 133 l 132 758 l 257 758 l 257 288 q 294 137 257 184 q 338 101 311 114 q 406 89 365 89 q 541 151 494 89 q 587 329 587 213 l 587 758 l 713 758 l 713 0 l 600 0 l 587 114 q 497 14 553 47 q 362 -20 439 -20 z "},"ü":{"ha":836,"x_min":132,"x_max":713,"o":"m 237 916 q 216 936 216 916 l 216 1032 q 237 1053 216 1053 l 334 1053 q 354 1032 354 1053 l 354 936 q 334 916 354 916 l 237 916 m 503 916 q 482 936 482 916 l 482 1032 q 503 1053 482 1053 l 599 1053 q 619 1032 619 1053 l 619 936 q 599 916 619 916 l 503 916 m 362 -20 q 189 57 246 -20 q 132 288 132 133 l 132 758 l 257 758 l 257 288 q 294 137 257 184 q 338 101 311 114 q 406 89 365 89 q 541 151 494 89 q 587 329 587 213 l 587 758 l 713 758 l 713 0 l 600 0 l 587 114 q 497 14 553 47 q 362 -20 439 -20 z "},"ù":{"ha":836,"x_min":132,"x_max":713,"o":"m 189 1115 l 323 1115 l 514 860 l 410 860 l 189 1115 m 362 -20 q 189 57 246 -20 q 132 288 132 133 l 132 758 l 257 758 l 257 288 q 294 137 257 184 q 338 101 311 114 q 406 89 365 89 q 541 151 494 89 q 587 329 587 213 l 587 758 l 713 758 l 713 0 l 600 0 l 587 114 q 497 14 553 47 q 362 -20 439 -20 z "},"ư":{"ha":836,"x_min":26,"x_max":810,"o":"m 796 771 q 807 721 804 743 q 810 674 810 699 q 781 558 810 598 q 692 518 752 518 q 651 524 671 518 q 607 543 631 530 l 607 0 l 494 0 l 481 114 q 391 14 448 48 q 256 -20 334 -20 q 83 56 140 -20 q 26 288 26 132 l 26 758 l 151 758 l 151 288 q 188 137 151 185 q 300 89 224 89 q 435 151 389 89 q 481 329 481 212 l 481 758 l 607 758 l 607 630 q 667 612 642 612 q 711 631 695 612 q 726 687 726 650 q 706 771 726 729 l 796 771 l 796 771 z "},"ű":{"ha":836,"x_min":132,"x_max":713,"o":"m 363 1115 l 478 1115 l 326 860 l 233 860 l 363 1115 m 589 1115 l 710 1115 l 542 860 l 450 860 l 589 1115 m 362 -20 q 189 56 245 -20 q 132 288 132 132 l 132 758 l 257 758 l 257 288 q 293 137 257 185 q 406 89 330 89 q 541 151 494 89 q 587 329 587 212 l 587 758 l 713 758 l 713 0 l 600 0 l 587 114 q 497 14 554 48 q 362 -20 440 -20 z "},"ū":{"ha":836,"x_min":132,"x_max":713,"o":"m 215 994 l 621 994 l 621 894 l 215 894 l 215 994 m 362 -20 q 189 56 245 -20 q 132 288 132 132 l 132 758 l 257 758 l 257 288 q 293 137 257 185 q 406 89 330 89 q 541 151 494 89 q 587 329 587 212 l 587 758 l 713 758 l 713 0 l 600 0 l 587 114 q 497 14 554 48 q 362 -20 440 -20 z "},"ų":{"ha":836,"x_min":132,"x_max":814,"o":"m 730 -184 q 814 -164 772 -184 l 814 -254 q 764 -265 785 -262 q 717 -268 742 -268 q 601 -239 641 -268 q 561 -150 561 -210 q 565 -116 561 -133 q 577 -82 568 -100 q 599 -44 585 -64 q 634 0 613 -24 l 587 0 l 587 114 q 497 14 554 48 q 362 -20 440 -20 q 189 56 245 -20 q 132 288 132 132 l 132 758 l 257 758 l 257 288 q 293 137 257 185 q 406 89 330 89 q 541 151 494 89 q 587 329 587 212 l 587 758 l 713 758 l 713 0 l 715 0 q 669 -73 682 -44 q 655 -125 655 -102 q 674 -169 655 -153 q 730 -184 693 -184 z "},"ů":{"ha":836,"x_min":132,"x_max":713,"o":"m 429 817 q 355 831 389 817 q 296 871 321 846 q 257 930 271 896 q 242 1003 242 964 q 257 1076 242 1042 q 296 1135 271 1109 q 355 1174 321 1160 q 429 1189 389 1189 q 502 1174 468 1189 q 561 1135 536 1160 q 600 1076 586 1109 q 614 1003 614 1042 q 600 930 614 964 q 561 871 586 896 q 502 831 536 846 q 429 817 468 817 m 428 900 q 468 908 450 900 q 501 930 487 916 q 523 963 515 944 q 531 1003 531 981 q 523 1043 531 1024 q 501 1076 515 1062 q 468 1097 487 1089 q 428 1105 450 1105 q 388 1098 406 1105 q 355 1076 369 1090 q 333 1043 341 1062 q 326 1003 326 1025 q 333 962 326 981 q 355 929 341 943 q 388 908 369 916 q 428 900 406 900 m 362 -20 q 189 56 245 -20 q 132 288 132 132 l 132 758 l 257 758 l 257 288 q 293 137 257 185 q 406 89 330 89 q 541 151 494 89 q 587 329 587 212 l 587 758 l 713 758 l 713 0 l 600 0 l 587 114 q 497 14 554 48 q 362 -20 440 -20 z "},"ũ":{"ha":836,"x_min":132,"x_max":713,"o":"m 195 852 q 203 932 195 897 q 229 992 212 968 q 270 1030 245 1017 q 327 1044 295 1044 q 374 1034 353 1044 q 421 1002 396 1025 l 460 965 q 487 944 476 949 q 507 939 498 939 q 528 945 519 939 q 544 964 538 951 q 557 1044 555 988 l 642 1044 q 633 964 642 1000 q 607 904 624 928 q 566 866 591 879 q 509 852 541 852 q 462 862 484 852 q 415 894 440 871 l 376 931 q 351 951 362 945 q 329 958 340 958 q 308 951 317 958 q 292 932 298 945 q 279 852 279 906 l 195 852 m 362 -20 q 189 56 245 -20 q 132 288 132 132 l 132 758 l 257 758 l 257 288 q 293 137 257 185 q 406 89 330 89 q 541 151 494 89 q 587 329 587 212 l 587 758 l 713 758 l 713 0 l 600 0 l 587 114 q 497 14 554 48 q 362 -20 440 -20 z "},"v":{"ha":836,"x_min":68,"x_max":768,"o":"m 68 760 l 197 760 l 418 122 l 639 760 l 768 760 l 498 0 l 338 0 l 68 760 z "},"w":{"ha":836,"x_min":0,"x_max":836,"o":"m 0 760 l 123 760 l 256 146 l 364 538 l 471 538 l 581 146 l 713 760 l 836 760 l 659 0 l 539 0 l 418 416 l 297 0 l 178 0 l 0 760 z "},"ẃ":{"ha":836,"x_min":0,"x_max":836,"o":"m 556 1117 l 690 1117 l 470 862 l 366 862 l 556 1117 m 0 760 l 123 760 l 256 146 l 364 538 l 471 538 l 581 146 l 713 760 l 836 760 l 659 0 l 539 0 l 418 416 l 297 0 l 178 0 l 0 760 z "},"ŵ":{"ha":836,"x_min":0,"x_max":836,"o":"m 368 1117 l 468 1117 l 635 862 l 541 862 l 418 1028 l 296 862 l 201 862 l 368 1117 m 0 760 l 123 760 l 256 146 l 364 538 l 471 538 l 581 146 l 713 760 l 836 760 l 659 0 l 539 0 l 418 416 l 297 0 l 178 0 l 0 760 z "},"ẅ":{"ha":836,"x_min":0,"x_max":836,"o":"m 237 895 q 216 916 216 895 l 216 1012 q 237 1032 216 1032 l 334 1032 q 354 1012 354 1032 l 354 916 q 334 895 354 895 l 237 895 m 503 895 q 482 916 482 895 l 482 1012 q 503 1032 482 1032 l 599 1032 q 619 1012 619 1032 l 619 916 q 599 895 619 895 l 503 895 m 0 760 l 123 760 l 256 146 l 364 538 l 471 538 l 581 146 l 713 760 l 836 760 l 659 0 l 539 0 l 418 416 l 297 0 l 178 0 l 0 760 z "},"ẁ":{"ha":836,"x_min":0,"x_max":836,"o":"m 146 1117 l 280 1117 l 471 862 l 366 862 l 146 1117 m 0 760 l 123 760 l 256 146 l 364 538 l 471 538 l 581 146 l 713 760 l 836 760 l 659 0 l 539 0 l 418 416 l 297 0 l 178 0 l 0 760 z "},"x":{"ha":836,"x_min":52,"x_max":785,"o":"m 350 396 l 78 760 l 216 760 l 418 485 l 618 760 l 758 760 l 486 396 l 785 0 l 640 0 l 418 304 l 196 0 l 52 0 l 350 396 z "},"y":{"ha":836,"x_min":71,"x_max":782,"o":"m 125 -184 l 199 -184 q 250 -175 229 -184 q 285 -153 271 -166 q 319 -99 300 -137 q 364 12 338 -61 l 71 760 l 203 760 l 428 165 l 650 760 l 782 760 l 582 244 q 556 179 566 202 q 542 143 547 156 q 534 122 537 130 q 528 106 532 115 q 519 81 525 96 q 503 35 513 65 q 468 -57 482 -20 q 442 -119 453 -94 q 424 -158 431 -144 q 412 -182 417 -173 q 379 -228 397 -208 q 334 -262 361 -248 q 225 -289 288 -289 l 125 -289 l 125 -184 z "},"ý":{"ha":836,"x_min":71,"x_max":782,"o":"m 513 1116 l 647 1116 l 427 861 l 322 861 l 513 1116 m 125 -184 l 199 -184 q 250 -175 229 -184 q 285 -153 271 -166 q 319 -99 300 -137 q 364 12 338 -61 l 71 760 l 203 760 l 428 165 l 650 760 l 782 760 l 582 244 q 546 153 559 187 q 525 97 533 118 q 512 62 517 75 q 503 35 507 50 q 472 -47 486 -12 q 447 -107 458 -82 q 427 -151 436 -133 q 411 -181 418 -168 q 372 -235 390 -218 q 335 -263 355 -252 q 282 -282 311 -276 q 225 -289 253 -289 l 125 -289 l 125 -184 z "},"ŷ":{"ha":836,"x_min":71,"x_max":782,"o":"m 376 1117 l 476 1117 l 643 862 l 549 862 l 426 1028 l 304 862 l 210 862 l 376 1117 m 125 -184 l 199 -184 q 250 -175 229 -184 q 285 -153 271 -166 q 301 -132 292 -145 q 319 -99 309 -119 q 339 -52 328 -79 q 364 12 351 -24 l 71 760 l 203 760 l 428 165 l 650 760 l 782 760 l 582 244 q 561 191 569 212 q 548 156 553 170 q 538 131 542 142 q 530 108 534 120 q 519 79 525 96 q 503 35 513 62 q 471 -46 485 -12 q 447 -107 458 -81 q 428 -151 437 -133 q 412 -183 420 -170 q 337 -261 382 -234 q 225 -289 293 -289 l 125 -289 l 125 -184 z "},"ÿ":{"ha":836,"x_min":71,"x_max":782,"o":"m 237 895 q 216 916 216 895 l 216 1012 q 237 1032 216 1032 l 334 1032 q 354 1012 354 1032 l 354 916 q 334 895 354 895 l 237 895 m 503 895 q 482 916 482 895 l 482 1012 q 503 1032 482 1032 l 599 1032 q 619 1012 619 1032 l 619 916 q 599 895 619 895 l 503 895 m 125 -184 l 199 -184 q 250 -175 229 -184 q 285 -153 271 -166 q 319 -99 300 -137 q 364 12 338 -61 l 71 760 l 203 760 l 428 165 l 650 760 l 782 760 l 582 244 q 556 179 566 202 q 542 143 547 156 q 534 122 537 130 q 528 106 532 115 q 519 81 525 96 q 503 35 513 65 q 468 -57 482 -20 q 442 -119 453 -94 q 424 -158 431 -144 q 412 -182 417 -173 q 379 -228 397 -208 q 334 -262 361 -248 q 225 -289 288 -289 l 125 -289 l 125 -184 z "},"ỳ":{"ha":836,"x_min":71,"x_max":782,"o":"m 154 1117 l 288 1117 l 479 862 l 374 862 l 154 1117 m 125 -184 l 199 -184 q 250 -175 229 -184 q 285 -153 271 -166 q 319 -99 300 -137 q 364 12 338 -61 l 71 760 l 203 760 l 428 165 l 650 760 l 782 760 l 582 244 q 554 172 564 199 q 538 130 544 146 q 529 107 532 115 q 523 91 526 99 q 516 71 520 83 q 503 35 511 58 q 466 -61 480 -24 q 441 -123 451 -99 q 424 -160 431 -147 q 412 -183 418 -174 q 336 -261 383 -234 q 225 -289 289 -289 l 125 -289 l 125 -184 z "},"z":{"ha":836,"x_min":138,"x_max":705,"o":"m 138 115 l 574 661 l 154 661 l 154 761 l 705 761 l 705 647 l 269 102 l 705 102 l 705 0 l 138 0 l 138 115 z "},"ź":{"ha":836,"x_min":138,"x_max":705,"o":"m 571 1118 l 705 1118 l 485 863 l 380 863 l 571 1118 m 138 115 l 574 661 l 154 661 l 154 761 l 705 761 l 705 647 l 269 102 l 705 102 l 705 0 l 138 0 l 138 115 z "},"ž":{"ha":836,"x_min":138,"x_max":705,"o":"m 201 1118 l 296 1118 l 418 952 l 541 1118 l 635 1118 l 468 863 l 368 863 l 201 1118 m 138 115 l 574 661 l 154 661 l 154 761 l 705 761 l 705 647 l 269 102 l 705 102 l 705 0 l 138 0 l 138 115 z "},"ż":{"ha":836,"x_min":138,"x_max":705,"o":"m 368 897 q 348 917 348 897 l 348 1015 q 368 1035 348 1035 l 467 1035 q 487 1015 487 1035 l 487 917 q 467 897 487 897 l 368 897 m 138 115 l 574 661 l 154 661 l 154 761 l 705 761 l 705 647 l 269 102 l 705 102 l 705 0 l 138 0 l 138 115 z "},"ª":{"ha":836,"x_min":183,"x_max":652,"o":"m 371 473 q 234 519 286 473 q 183 644 183 565 q 246 779 183 731 q 427 827 310 827 l 550 827 l 550 829 q 541 882 550 859 q 509 922 531 905 q 456 946 486 939 q 395 953 426 953 q 353 950 373 953 q 313 941 333 947 q 225 907 271 929 l 225 993 q 272 1010 248 1002 q 317 1021 296 1017 q 362 1028 340 1026 q 409 1031 383 1031 q 588 972 529 1031 q 632 899 618 943 q 647 790 647 854 l 647 486 l 559 486 l 550 562 q 473 496 516 518 q 426 479 450 484 q 371 473 401 473 m 391 554 q 456 567 427 554 q 506 603 484 579 q 550 729 550 651 l 550 749 l 464 749 q 324 726 366 749 q 282 650 282 702 q 290 609 282 625 q 312 581 298 592 q 391 554 341 554 m 199 401 l 652 401 l 652 318 l 199 318 l 199 401 z "},"º":{"ha":836,"x_min":165,"x_max":671,"o":"m 418 473 q 309 494 354 473 q 234 549 264 515 q 184 634 202 583 q 165 751 165 685 q 182 865 165 814 q 234 955 199 916 q 311 1010 266 990 q 418 1031 357 1031 q 525 1010 479 1031 q 603 954 571 990 q 671 751 671 878 q 603 549 671 625 q 525 494 571 514 q 418 473 479 473 m 418 553 q 479 566 451 553 q 526 606 507 579 q 555 667 545 630 q 566 753 566 703 q 527 899 566 846 q 482 938 509 924 q 418 951 455 951 q 310 899 349 951 q 271 751 271 846 q 280 668 271 705 q 310 604 290 631 q 418 553 349 553 m 187 401 l 646 401 l 646 318 l 187 318 l 187 401 z "},"А":{"ha":836,"x_min":25,"x_max":811,"o":"m 335 1013 l 501 1013 l 811 0 l 669 0 l 595 264 l 240 264 l 167 0 l 25 0 l 335 1013 m 562 374 l 418 892 l 273 374 l 562 374 z "},"Б":{"ha":836,"x_min":113,"x_max":771,"o":"m 113 1013 l 724 1013 l 724 900 l 250 900 l 250 595 l 410 595 q 735 455 667 585 q 763 374 754 419 q 771 284 771 328 q 683 71 771 141 q 412 0 595 0 l 113 0 l 113 1013 m 412 113 q 514 123 472 113 q 583 154 556 133 q 621 210 609 176 q 633 291 633 243 q 580 437 633 391 q 412 484 527 484 l 250 484 l 250 113 l 412 113 z "},"В":{"ha":836,"x_min":113,"x_max":771,"o":"m 113 1013 l 412 1013 q 550 996 490 1013 q 652 945 610 979 q 714 864 693 912 q 736 753 736 816 q 691 609 736 662 q 558 542 647 555 q 647 513 608 534 q 714 457 686 492 q 756 377 741 423 q 771 276 771 332 q 682 70 771 140 q 412 0 592 0 l 113 0 l 113 1013 m 410 595 q 552 632 507 595 q 597 753 597 670 q 587 820 597 792 q 554 866 577 848 q 496 892 532 884 q 410 900 460 900 l 250 900 l 250 595 l 410 595 m 412 113 q 514 123 472 113 q 583 154 556 133 q 621 210 609 176 q 633 291 633 243 q 580 437 633 391 q 412 484 527 484 l 250 484 l 250 113 l 412 113 z "},"Г":{"ha":836,"x_min":146,"x_max":772,"o":"m 146 1013 l 772 1013 l 772 897 l 283 897 l 283 0 l 146 0 l 146 1013 z "},"Ѓ":{"ha":836,"x_min":146,"x_max":772,"o":"m 505 1256 l 631 1256 l 475 1077 l 371 1077 l 505 1256 m 146 1013 l 772 1013 l 772 897 l 283 897 l 283 0 l 146 0 l 146 1013 z "},"Ґ":{"ha":836,"x_min":146,"x_max":772,"o":"m 146 1013 l 657 1013 l 659 1220 l 772 1220 l 772 897 l 283 897 l 283 0 l 146 0 l 146 1013 z "},"Д":{"ha":836,"x_min":22,"x_max":814,"o":"m 22 115 l 75 115 q 96 141 85 115 q 115 212 106 168 q 131 315 123 256 q 143 437 138 373 q 151 569 149 502 q 154 696 154 635 l 154 1013 l 732 1013 l 732 115 l 814 115 l 814 -218 l 699 -218 l 699 0 l 138 0 l 138 -218 l 22 -218 l 22 115 m 594 115 l 594 897 l 292 897 l 292 696 q 289 585 292 645 q 282 466 286 526 q 273 349 278 406 q 263 249 268 293 q 256 176 259 204 q 251 145 252 149 q 247 130 247 136 q 279 115 247 115 l 594 115 z "},"Е":{"ha":836,"x_min":134,"x_max":747,"o":"m 134 1013 l 734 1013 l 734 897 l 271 897 l 271 597 l 714 597 l 714 482 l 271 482 l 271 115 l 747 115 l 747 0 l 134 0 l 134 1013 z "},"Ѐ":{"ha":836,"x_min":134,"x_max":747,"o":"m 256 1256 l 380 1256 l 514 1077 l 410 1077 l 256 1256 m 134 1013 l 734 1013 l 734 897 l 271 897 l 271 597 l 714 597 l 714 482 l 271 482 l 271 115 l 747 115 l 747 0 l 134 0 l 134 1013 z "},"Ё":{"ha":836,"x_min":134,"x_max":747,"o":"m 275 1118 q 254 1139 254 1118 l 254 1236 q 275 1256 254 1256 l 372 1256 q 392 1236 392 1256 l 392 1139 q 372 1118 392 1118 l 275 1118 m 541 1118 q 520 1139 520 1118 l 520 1236 q 541 1256 520 1256 l 637 1256 q 657 1236 657 1256 l 657 1139 q 637 1118 657 1118 l 541 1118 m 134 1013 l 734 1013 l 734 897 l 271 897 l 271 597 l 714 597 l 714 482 l 271 482 l 271 115 l 747 115 l 747 0 l 134 0 l 134 1013 z "},"Ж":{"ha":836,"x_min":10,"x_max":826,"o":"m 216 604 l 22 1013 l 162 1013 l 355 609 l 355 1013 l 481 1013 l 481 609 l 674 1013 l 814 1013 l 620 604 l 826 0 l 692 0 l 542 441 l 481 315 l 481 0 l 355 0 l 355 315 l 294 441 l 144 0 l 10 0 l 216 604 z "},"З":{"ha":836,"x_min":93,"x_max":732,"o":"m 375 -20 q 235 -7 308 -20 q 93 31 163 6 l 93 167 q 229 113 163 130 q 361 96 296 96 q 536 146 475 96 q 596 289 596 197 q 581 372 596 335 q 536 433 565 408 q 465 472 507 458 q 372 485 424 485 l 268 485 l 268 597 l 372 597 q 520 638 467 597 q 572 758 572 680 q 523 874 572 833 q 378 916 473 916 q 261 903 326 916 q 123 861 197 890 l 123 987 q 269 1020 205 1009 q 386 1031 333 1031 q 517 1011 458 1031 q 619 957 577 992 q 685 871 661 921 q 708 761 708 822 q 662 620 708 675 q 526 542 616 565 q 679 448 627 515 q 732 278 732 381 q 708 154 732 209 q 638 60 684 98 q 526 1 592 21 q 375 -20 459 -20 z "},"И":{"ha":836,"x_min":94,"x_max":742,"o":"m 94 1013 l 227 1013 l 227 179 l 568 1013 l 742 1013 l 742 0 l 610 0 l 610 833 l 268 0 l 94 0 l 94 1013 z "},"Й":{"ha":836,"x_min":94,"x_max":742,"o":"m 418 1091 q 205 1255 221 1091 l 286 1255 q 328 1199 294 1219 q 418 1180 362 1180 q 550 1255 530 1180 l 631 1255 q 570 1133 623 1174 q 418 1091 516 1091 m 94 1013 l 227 1013 l 227 179 l 568 1013 l 742 1013 l 742 0 l 610 0 l 610 833 l 268 0 l 94 0 l 94 1013 z "},"Ѝ":{"ha":836,"x_min":94,"x_max":742,"o":"m 256 1255 l 380 1255 l 514 1076 l 410 1076 l 256 1255 m 94 1013 l 227 1013 l 227 179 l 568 1013 l 742 1013 l 742 0 l 610 0 l 610 833 l 268 0 l 94 0 l 94 1013 z "},"К":{"ha":836,"x_min":93,"x_max":831,"o":"m 93 1013 l 231 1013 l 231 562 l 659 1013 l 819 1013 l 425 599 l 831 0 l 665 0 l 335 507 l 231 396 l 231 0 l 93 0 l 93 1013 z "},"Ќ":{"ha":836,"x_min":93,"x_max":831,"o":"m 474 1255 l 600 1255 l 445 1076 l 340 1076 l 474 1255 m 93 1013 l 231 1013 l 231 562 l 659 1013 l 819 1013 l 425 599 l 831 0 l 665 0 l 335 507 l 231 396 l 231 0 l 93 0 l 93 1013 z "},"Л":{"ha":836,"x_min":9,"x_max":749,"o":"m 9 111 q 90 122 58 111 q 144 160 123 133 q 175 233 165 187 q 190 350 186 279 q 193 424 192 381 q 195 516 194 467 q 196 618 196 566 q 197 724 197 671 l 197 1013 l 749 1013 l 749 0 l 611 0 l 611 897 l 334 897 l 334 728 l 334 602 q 332 436 334 515 q 322 289 330 357 q 296 168 313 221 q 250 81 279 115 q 9 0 181 0 l 9 111 z "},"М":{"ha":836,"x_min":58,"x_max":777,"o":"m 58 1013 l 241 1013 l 416 497 l 593 1013 l 777 1013 l 777 0 l 650 0 l 650 895 l 469 361 l 366 361 l 184 895 l 184 0 l 58 0 l 58 1013 z "},"Н":{"ha":836,"x_min":93,"x_max":743,"o":"m 93 1013 l 231 1013 l 231 597 l 606 597 l 606 1013 l 743 1013 l 743 0 l 606 0 l 606 482 l 231 482 l 231 0 l 93 0 l 93 1013 z "},"О":{"ha":836,"x_min":79,"x_max":757,"o":"m 417 -20 q 163 110 247 -20 q 79 505 79 239 q 163 901 79 770 q 418 1031 247 1031 q 673 901 589 1031 q 757 505 757 770 q 673 111 757 241 q 417 -20 589 -20 m 418 92 q 568 187 522 92 q 614 505 614 281 q 568 824 614 729 q 418 920 522 920 q 269 824 314 920 q 222 505 222 728 q 269 187 222 283 q 418 92 314 92 z "},"П":{"ha":836,"x_min":93,"x_max":743,"o":"m 93 1013 l 743 1013 l 743 0 l 606 0 l 606 897 l 231 897 l 231 0 l 93 0 l 93 1013 z "},"Р":{"ha":836,"x_min":134,"x_max":774,"o":"m 134 1013 l 429 1013 q 687 936 600 1013 q 774 709 774 860 q 687 483 774 559 q 429 407 601 407 l 271 407 l 271 0 l 134 0 l 134 1013 m 429 519 q 578 569 525 519 q 631 710 631 619 q 578 850 631 801 q 429 900 526 900 l 271 900 l 271 519 l 429 519 z "},"С":{"ha":836,"x_min":94,"x_max":728,"o":"m 202 892 q 509 1031 310 1031 q 576 1026 538 1031 l 579 1026 q 587 1035 587 1026 l 587 1187 q 594 1194 587 1194 l 721 1194 q 728 1187 728 1194 l 728 835 q 503 920 625 920 q 237 505 237 920 q 502 92 237 92 q 621 113 563 92 q 728 176 678 135 l 728 36 q 505 -20 625 -20 q 331 15 408 -20 q 202 118 255 50 q 94 504 94 256 q 202 892 94 753 z "},"Т":{"ha":836,"x_min":32,"x_max":804,"o":"m 350 897 l 32 897 l 32 1013 l 804 1013 l 804 897 l 488 897 l 488 0 l 350 0 l 350 897 z "},"У":{"ha":836,"x_min":84,"x_max":795,"o":"m 138 117 l 212 117 q 261 125 239 117 q 298 148 282 133 q 328 185 315 163 q 352 232 340 206 q 360 253 357 243 q 372 282 364 262 l 84 1013 l 231 1013 l 442 450 l 651 1013 l 795 1013 l 516 288 q 474 188 496 235 q 429 106 452 140 q 395 63 414 82 q 353 30 376 43 q 302 8 330 16 q 239 0 274 0 l 138 0 l 138 117 z "},"Ў":{"ha":836,"x_min":84,"x_max":795,"o":"m 431 1091 q 219 1255 235 1091 l 300 1255 q 341 1199 308 1219 q 433 1180 375 1180 q 564 1255 543 1180 l 644 1255 q 583 1133 637 1174 q 431 1091 530 1091 m 138 117 l 212 117 q 261 125 239 117 q 298 148 282 133 q 328 185 315 163 q 352 232 340 206 q 360 253 357 243 q 372 282 364 262 l 84 1013 l 231 1013 l 442 450 l 651 1013 l 795 1013 l 516 288 q 474 188 496 235 q 429 106 452 140 q 395 63 414 82 q 353 30 376 43 q 302 8 330 16 q 239 0 274 0 l 138 0 l 138 117 z "},"Ф":{"ha":836,"x_min":45,"x_max":791,"o":"m 349 103 q 203 141 262 107 q 109 230 144 174 q 59 361 74 286 q 45 524 45 437 q 59 683 45 610 q 109 810 74 756 q 202 896 144 864 q 349 930 261 927 l 349 1013 l 487 1013 l 487 930 q 637 893 578 926 q 731 806 696 861 q 778 676 765 751 q 791 517 791 602 q 777 351 791 426 q 728 223 763 277 q 634 138 693 169 q 487 103 576 106 l 487 0 l 349 0 l 349 103 m 349 819 q 261 787 293 810 q 212 726 229 764 q 192 636 196 688 q 188 516 188 584 q 192 396 188 448 q 212 307 196 344 q 261 246 229 269 q 349 214 293 223 l 349 819 m 487 214 q 575 246 543 223 q 623 307 607 269 q 644 396 640 344 q 648 516 648 448 q 644 636 648 584 q 623 726 640 688 q 575 787 607 764 q 487 819 543 810 l 487 214 z "},"Х":{"ha":836,"x_min":12,"x_max":823,"o":"m 351 536 l 58 1013 l 205 1013 l 428 631 l 654 1013 l 802 1013 l 498 536 l 823 0 l 676 0 l 428 436 l 160 0 l 12 0 l 351 536 z "},"Ч":{"ha":836,"x_min":93,"x_max":741,"o":"m 603 446 q 538 418 568 429 q 481 401 509 407 q 427 393 454 395 q 369 391 399 391 q 296 394 332 391 q 231 408 261 397 q 175 436 200 418 q 131 485 149 454 q 103 559 113 515 q 93 665 93 603 l 93 1013 l 231 1013 l 231 682 q 240 592 231 625 q 271 543 250 559 q 322 522 291 526 q 398 517 354 517 q 454 519 429 517 q 502 528 479 522 q 550 548 526 535 q 603 584 574 562 l 603 1013 l 741 1013 l 741 0 l 603 0 l 603 446 z "},"Ц":{"ha":836,"x_min":68,"x_max":809,"o":"m 694 0 l 68 0 l 68 1013 l 205 1013 l 205 115 l 581 115 l 581 1013 l 718 1013 l 718 115 l 809 115 l 809 -218 l 694 -218 l 694 0 z "},"Ш":{"ha":836,"x_min":77,"x_max":760,"o":"m 77 1013 l 203 1013 l 203 115 l 355 115 l 355 1013 l 481 1013 l 481 115 l 633 115 l 633 1013 l 760 1013 l 760 0 l 77 0 l 77 1013 z "},"Щ":{"ha":836,"x_min":63,"x_max":836,"o":"m 721 0 l 63 0 l 63 1013 l 189 1013 l 189 115 l 341 115 l 341 1013 l 467 1013 l 467 115 l 619 115 l 619 1013 l 745 1013 l 745 115 l 836 115 l 836 -218 l 721 -218 l 721 0 z "},"Џ":{"ha":836,"x_min":93,"x_max":743,"o":"m 360 0 l 93 0 l 93 1013 l 231 1013 l 231 115 l 606 115 l 606 1013 l 743 1013 l 743 0 l 476 0 l 476 -218 l 360 -218 l 360 0 z "},"Я":{"ha":836,"x_min":31,"x_max":748,"o":"m 281 452 q 210 486 245 465 q 148 538 175 507 q 104 615 121 570 q 87 722 87 661 q 110 846 87 792 q 176 937 132 900 q 284 993 220 974 q 432 1013 349 1013 l 748 1013 l 748 0 l 610 0 l 610 428 l 414 428 l 176 0 l 31 0 l 281 452 m 610 541 l 610 900 l 432 900 q 283 854 334 900 q 232 716 232 808 q 427 541 232 541 l 610 541 z "},"Ь":{"ha":836,"x_min":134,"x_max":774,"o":"m 134 1013 l 271 1013 l 271 606 l 429 606 q 687 529 601 606 q 774 303 774 453 q 687 76 774 153 q 429 0 600 0 l 134 0 l 134 1013 m 429 113 q 578 162 526 113 q 631 302 631 212 q 578 443 631 393 q 429 493 525 493 l 271 493 l 271 113 l 429 113 z "},"Ъ":{"ha":836,"x_min":35,"x_max":787,"o":"m 212 897 l 35 897 l 35 1013 l 349 1013 l 349 606 l 443 606 q 701 529 614 606 q 787 303 787 453 q 700 76 787 153 q 443 0 613 0 l 212 0 l 212 897 m 443 113 q 592 162 539 113 q 644 302 644 212 q 591 443 644 393 q 443 493 538 493 l 349 493 l 349 113 l 443 113 z "},"Ы":{"ha":836,"x_min":44,"x_max":769,"o":"m 44 1013 l 181 1013 l 181 606 l 243 606 q 365 586 309 606 q 461 529 420 567 q 526 434 503 491 q 549 303 549 378 q 525 172 549 229 q 461 77 502 115 q 364 19 420 39 q 243 0 308 0 l 44 0 l 44 1013 m 631 1013 l 769 1013 l 769 0 l 631 0 l 631 1013 m 243 113 q 307 123 277 113 q 359 157 337 134 q 393 216 380 180 q 406 302 406 252 q 365 443 406 393 q 243 493 324 493 l 181 493 l 181 113 l 243 113 z "},"Љ":{"ha":836,"x_min":0,"x_max":836,"o":"m 0 111 q 80 122 48 111 q 131 160 111 133 q 160 233 151 187 q 174 350 170 279 q 177 424 176 381 q 179 516 178 467 q 181 618 180 566 q 181 724 181 671 l 181 1013 l 550 1013 l 550 606 l 564 606 q 662 586 613 606 q 749 529 710 567 q 812 434 788 491 q 836 303 836 378 q 812 172 836 229 q 749 77 787 115 q 662 19 710 39 q 564 0 613 0 l 424 0 l 424 897 l 307 897 l 307 728 l 307 619 q 305 442 307 524 q 294 291 303 359 q 269 169 286 222 q 222 81 252 116 q 135 20 189 41 q 0 0 80 0 l 0 111 m 564 113 q 621 125 595 113 q 668 161 648 137 q 699 220 688 184 q 710 301 710 255 q 699 382 710 347 q 669 443 688 418 q 623 480 650 467 q 564 493 596 493 l 550 493 l 550 113 l 564 113 z "},"Њ":{"ha":836,"x_min":30,"x_max":836,"o":"m 30 1013 l 156 1013 l 156 597 l 424 597 l 424 1013 l 550 1013 l 550 606 l 564 606 q 675 587 625 606 q 761 533 725 569 q 817 442 797 496 q 836 316 836 388 q 812 174 836 234 q 749 76 787 115 q 662 19 710 37 q 564 0 613 0 l 424 0 l 424 482 l 156 482 l 156 0 l 30 0 l 30 1013 m 564 113 q 621 124 595 113 q 668 160 648 136 q 699 219 688 184 q 710 301 710 254 q 700 381 710 346 q 670 442 689 417 q 624 480 650 467 q 564 493 597 493 l 550 493 l 550 113 l 564 113 z "},"Ѕ":{"ha":836,"x_min":94,"x_max":745,"o":"m 397 -20 q 252 -4 323 -20 q 107 41 180 11 l 107 187 q 254 115 185 138 q 395 92 323 92 q 556 137 499 92 q 614 275 614 183 q 605 335 614 309 q 575 383 595 362 q 520 419 554 404 q 436 446 486 434 l 363 463 q 241 503 292 479 q 157 560 190 527 q 110 635 125 593 q 94 730 94 677 q 118 854 94 799 q 185 949 142 910 q 291 1009 229 988 q 428 1031 353 1031 q 686 978 544 1031 l 686 839 q 434 920 561 920 q 347 908 386 920 q 281 875 309 897 q 240 821 254 853 q 225 747 225 788 q 234 692 225 716 q 263 650 243 669 q 317 616 283 631 q 400 591 351 602 l 472 575 q 595 533 544 559 q 680 470 647 507 q 729 386 713 433 q 745 279 745 338 q 655 57 745 133 q 397 -20 566 -20 z "},"Є":{"ha":836,"x_min":87,"x_max":721,"o":"m 497 -20 q 323 16 399 -20 q 195 118 248 51 q 115 282 142 185 q 87 504 87 380 q 115 727 87 629 q 196 892 143 825 q 324 995 248 960 q 497 1031 400 1031 q 721 975 616 1031 l 721 835 q 491 920 618 920 q 380 897 426 920 q 305 829 335 873 q 259 718 275 784 q 234 564 242 651 l 659 564 l 659 448 l 231 448 q 249 306 232 372 q 298 193 265 241 q 379 118 330 145 q 496 92 429 92 q 613 113 555 92 q 721 176 671 134 l 721 36 q 497 -20 616 -20 z "},"Э":{"ha":836,"x_min":115,"x_max":748,"o":"m 338 -20 q 115 36 219 -20 l 115 176 q 224 113 165 134 q 340 92 282 92 q 455 118 406 92 q 536 191 504 144 q 586 304 569 238 q 605 448 603 370 l 176 448 l 176 564 l 602 564 q 574 725 591 657 q 527 835 556 792 q 453 899 497 878 q 346 920 409 920 q 223 899 280 920 q 115 835 166 878 l 115 975 q 338 1031 219 1031 q 511 995 435 1031 q 640 892 587 960 q 720 727 692 825 q 748 504 748 629 q 721 282 748 380 q 641 118 693 185 q 512 16 588 51 q 338 -20 436 -20 z "},"І":{"ha":836,"x_min":136,"x_max":699,"o":"m 136 115 l 349 115 l 349 897 l 136 897 l 136 1013 l 699 1013 l 699 897 l 486 897 l 486 115 l 699 115 l 699 0 l 136 0 l 136 115 z "},"Ї":{"ha":836,"x_min":136,"x_max":699,"o":"m 237 1118 q 216 1139 216 1118 l 216 1236 q 237 1256 216 1256 l 334 1256 q 354 1236 354 1256 l 354 1139 q 334 1118 354 1118 l 237 1118 m 503 1118 q 482 1139 482 1118 l 482 1236 q 503 1256 482 1256 l 599 1256 q 619 1236 619 1256 l 619 1139 q 599 1118 619 1118 l 503 1118 m 136 115 l 349 115 l 349 897 l 136 897 l 136 1013 l 699 1013 l 699 897 l 486 897 l 486 115 l 699 115 l 699 0 l 136 0 l 136 115 z "},"Ј":{"ha":836,"x_min":74,"x_max":648,"o":"m 343 -20 q 277 -16 309 -20 q 212 -6 245 -13 q 145 13 180 1 q 74 41 111 25 l 74 201 q 201 119 136 146 q 342 92 266 92 q 421 103 389 92 q 474 143 454 115 q 503 216 494 170 q 511 330 511 262 l 511 897 l 253 897 l 253 1013 l 648 1013 l 648 330 q 631 170 648 236 q 577 61 614 103 q 483 0 541 19 q 343 -20 425 -20 z "},"Ћ":{"ha":836,"x_min":-24,"x_max":770,"o":"m 122 899 l -24 899 l -24 1014 l 562 1014 l 562 899 l 260 899 l 260 543 q 287 569 275 559 q 317 587 300 578 q 325 591 322 590 q 331 594 328 593 q 338 598 334 596 q 350 605 342 600 q 494 637 392 629 q 510 638 503 637 q 527 638 517 638 q 623 624 580 638 q 695 581 666 610 q 706 570 701 576 q 712 562 711 564 q 770 331 770 486 l 770 0 l 632 0 l 632 313 q 595 465 632 418 q 479 512 559 512 q 414 505 445 512 q 353 484 382 497 q 327 469 337 476 q 307 450 316 462 q 272 376 284 423 q 260 272 260 329 l 260 0 l 122 0 l 122 899 z "},"Ю":{"ha":836,"x_min":54,"x_max":809,"o":"m 537 -20 q 420 11 469 -20 q 338 102 371 42 q 288 249 305 161 q 267 452 271 337 l 192 452 l 192 0 l 54 0 l 54 1013 l 192 1013 l 192 567 l 267 567 q 288 763 271 677 q 337 908 304 849 q 420 999 370 968 q 538 1031 469 1031 q 742 901 675 1031 q 809 505 809 770 q 742 110 809 240 q 537 -20 674 -20 m 538 92 q 601 115 576 92 q 642 187 626 139 q 667 312 659 235 q 675 505 675 389 q 667 699 675 621 q 642 824 659 776 q 602 895 627 871 q 538 920 576 920 q 433 824 465 920 q 401 505 401 728 q 433 187 401 283 q 538 92 465 92 z "},"Ђ":{"ha":836,"x_min":-31,"x_max":770,"o":"m 446 -319 q 430 -319 439 -319 q 413 -318 421 -319 q 399 -318 406 -318 q 391 -317 393 -317 l 389 -195 l 441 -206 q 451 -207 446 -207 q 466 -208 456 -208 q 543 -196 511 -208 q 595 -157 575 -184 q 623 -83 614 -130 q 632 31 632 -37 l 632 313 q 595 465 632 418 q 479 512 559 512 q 414 505 445 512 q 353 484 382 497 q 327 469 337 476 q 307 450 316 462 q 272 376 284 423 q 260 272 260 329 l 260 0 l 122 0 l 122 899 l -31 899 l -31 1014 l 562 1014 l 562 899 l 260 899 l 260 543 q 287 569 275 559 q 317 587 300 578 q 325 591 322 590 q 331 594 328 593 q 338 598 334 596 q 350 605 342 600 q 494 637 392 629 q 510 638 503 637 q 527 638 517 638 q 623 624 580 638 q 695 581 666 610 q 706 570 701 576 q 712 562 711 564 q 770 331 770 486 l 770 31 q 752 -132 770 -66 q 696 -240 735 -199 q 596 -300 658 -282 q 446 -319 534 -319 z "},"Ѣ":{"ha":836,"x_min":22,"x_max":774,"o":"m 199 749 l 22 749 l 22 861 l 199 861 l 199 1013 l 336 1013 l 336 861 l 586 861 l 586 749 l 336 749 l 336 606 l 429 606 q 687 529 601 606 q 774 303 774 453 q 687 76 774 153 q 429 0 600 0 l 199 0 l 199 749 m 429 113 q 578 162 526 113 q 631 302 631 212 q 578 443 631 393 q 429 493 525 493 l 336 493 l 336 113 l 429 113 z "},"Ѳ":{"ha":836,"x_min":79,"x_max":757,"o":"m 417 -20 q 163 110 247 -20 q 79 505 79 239 q 163 901 79 770 q 418 1031 247 1031 q 673 901 589 1031 q 757 505 757 770 q 673 111 757 241 q 417 -20 589 -20 m 613 562 q 599 718 610 651 q 565 830 587 785 q 506 897 542 875 q 418 920 470 920 q 330 897 366 920 q 271 830 294 875 q 237 718 248 785 q 223 562 226 651 l 613 562 m 418 92 q 505 113 469 92 q 564 178 541 134 q 598 286 587 221 q 612 437 609 350 l 224 437 q 238 290 227 354 q 271 181 249 225 q 330 114 294 137 q 418 92 366 92 z "},"Ғ":{"ha":836,"x_min":64,"x_max":779,"o":"m 153 563 l 64 563 l 64 678 l 153 678 l 153 1013 l 779 1013 l 779 897 l 290 897 l 290 678 l 661 678 l 661 563 l 290 563 l 290 0 l 153 0 l 153 563 z "},"Ҕ":{"ha":836,"x_min":119,"x_max":745,"o":"m 399 -163 l 441 -163 q 518 -151 487 -163 q 570 -112 550 -139 q 599 -40 590 -85 q 608 71 608 5 l 608 267 q 439 482 608 482 l 256 482 l 256 0 l 119 0 l 119 1013 l 745 1013 l 745 897 l 256 897 l 256 597 l 467 597 q 670 517 595 597 q 727 417 709 475 q 745 278 745 359 l 745 71 q 728 -86 745 -20 q 675 -195 711 -152 q 584 -258 640 -237 q 451 -278 528 -278 l 399 -278 l 399 -163 z "},"Җ":{"ha":836,"x_min":10,"x_max":826,"o":"m 711 0 l 692 0 l 542 441 l 481 315 l 481 0 l 355 0 l 355 315 l 294 441 l 144 0 l 10 0 l 216 604 l 22 1013 l 162 1013 l 355 609 l 355 1013 l 481 1013 l 481 609 l 674 1013 l 814 1013 l 620 604 l 787 115 l 826 115 l 826 -218 l 711 -218 l 711 0 z "},"Ҙ":{"ha":836,"x_min":93,"x_max":732,"o":"m 732 278 q 712 164 732 216 q 655 76 692 113 q 564 15 618 38 q 439 -16 509 -9 q 485 -84 470 -53 q 499 -149 499 -115 q 458 -237 499 -207 q 336 -268 418 -268 q 218 -252 278 -268 l 218 -163 q 266 -179 239 -174 q 318 -184 293 -184 q 384 -169 363 -184 q 405 -123 405 -153 q 395 -81 405 -104 q 359 -20 385 -57 q 227 -5 295 -18 q 93 31 159 7 l 93 167 q 229 113 163 130 q 361 96 296 96 q 536 146 475 96 q 596 289 596 197 q 581 372 596 335 q 536 433 565 408 q 465 472 507 458 q 372 485 424 485 l 268 485 l 268 597 l 372 597 q 520 638 467 597 q 572 758 572 680 q 523 874 572 833 q 378 916 473 916 q 261 903 326 916 q 123 861 197 890 l 123 987 q 269 1020 205 1009 q 386 1031 333 1031 q 517 1011 458 1031 q 619 957 577 992 q 685 871 661 921 q 708 761 708 822 q 662 620 708 675 q 526 542 616 565 q 679 448 627 515 q 732 278 732 381 z "},"Қ":{"ha":836,"x_min":93,"x_max":830,"o":"m 686 0 l 665 0 l 335 507 l 231 396 l 231 0 l 93 0 l 93 1013 l 231 1013 l 231 562 l 659 1013 l 819 1013 l 425 599 l 753 115 l 830 115 l 830 -218 l 686 -218 l 686 0 z "},"Ң":{"ha":836,"x_min":41,"x_max":836,"o":"m 692 0 l 554 0 l 554 482 l 179 482 l 179 0 l 41 0 l 41 1013 l 179 1013 l 179 597 l 554 597 l 554 1013 l 692 1013 l 692 115 l 836 115 l 836 -218 l 692 -218 l 692 0 z "},"Ҫ":{"ha":836,"x_min":94,"x_max":728,"o":"m 502 920 q 304 817 370 920 q 237 505 237 713 q 502 92 237 92 q 621 113 564 92 q 728 176 678 135 l 728 36 q 557 -17 646 -8 q 602 -84 588 -54 q 616 -149 616 -115 q 576 -237 616 -207 q 454 -268 535 -268 q 336 -252 395 -268 l 336 -163 q 384 -179 357 -174 q 435 -184 410 -184 q 501 -169 480 -184 q 522 -123 522 -153 q 512 -80 522 -104 q 476 -19 502 -56 q 314 23 385 -14 q 194 128 243 61 q 120 289 145 195 q 94 504 94 384 q 122 726 94 629 q 202 892 149 824 q 331 995 255 960 q 505 1031 408 1031 q 620 1017 566 1031 q 728 975 675 1004 l 728 835 q 622 898 678 876 q 502 920 565 920 z "},"Ҭ":{"ha":836,"x_min":32,"x_max":804,"o":"m 488 0 l 350 0 l 350 897 l 32 897 l 32 1013 l 804 1013 l 804 897 l 488 897 l 488 115 l 632 115 l 632 -218 l 488 -218 l 488 0 z "},"Ү":{"ha":836,"x_min":25,"x_max":811,"o":"m 349 454 l 25 1013 l 171 1013 l 418 566 l 664 1013 l 811 1013 l 486 454 l 486 0 l 349 0 l 349 454 z "},"Ұ":{"ha":836,"x_min":25,"x_max":811,"o":"m 349 285 l 170 285 l 170 400 l 349 400 l 349 454 l 25 1013 l 171 1013 l 418 566 l 664 1013 l 811 1013 l 486 454 l 486 400 l 667 400 l 667 285 l 486 285 l 486 0 l 349 0 l 349 285 z "},"Ҳ":{"ha":836,"x_min":12,"x_max":823,"o":"m 680 0 l 676 0 l 428 436 l 160 0 l 12 0 l 351 536 l 58 1013 l 205 1013 l 428 631 l 654 1013 l 802 1013 l 498 536 l 754 115 l 823 115 l 823 -218 l 680 -218 l 680 0 z "},"Һ":{"ha":836,"x_min":109,"x_max":756,"o":"m 109 1014 l 246 1014 l 246 551 q 304 595 269 576 l 336 613 q 367 626 349 620 q 403 635 384 631 q 443 642 422 640 q 481 645 463 644 l 513 646 q 612 631 571 646 q 682 589 654 616 q 692 578 688 584 q 699 570 697 572 q 756 339 756 494 l 756 0 l 618 0 l 618 321 q 582 473 618 426 q 465 520 545 520 q 400 513 431 520 q 339 492 369 505 q 313 477 323 484 q 293 458 302 470 q 258 384 271 431 q 246 280 246 337 l 246 0 l 109 0 l 109 1014 z "},"Ӏ":{"ha":836,"x_min":136,"x_max":699,"o":"m 136 115 l 349 115 l 349 897 l 136 897 l 136 1013 l 699 1013 l 699 897 l 486 897 l 486 115 l 699 115 l 699 0 l 136 0 l 136 115 z "},"Ӂ":{"ha":836,"x_min":10,"x_max":826,"o":"m 418 1091 q 205 1255 221 1091 l 286 1255 q 328 1199 294 1219 q 418 1180 362 1180 q 550 1255 530 1180 l 631 1255 q 570 1133 623 1174 q 418 1091 516 1091 m 216 604 l 22 1013 l 162 1013 l 355 609 l 355 1013 l 481 1013 l 481 609 l 674 1013 l 814 1013 l 620 604 l 826 0 l 692 0 l 542 441 l 481 315 l 481 0 l 355 0 l 355 315 l 294 441 l 144 0 l 10 0 l 216 604 z "},"Ӄ":{"ha":836,"x_min":93,"x_max":819,"o":"m 374 -163 l 416 -163 q 493 -151 461 -163 q 544 -112 524 -139 q 573 -40 564 -85 q 582 71 582 5 l 582 267 q 414 482 582 482 l 311 482 l 231 396 l 231 0 l 93 0 l 93 1013 l 231 1013 l 231 562 l 659 1013 l 819 1013 l 425 597 l 441 597 q 554 578 503 597 q 642 518 606 558 q 699 419 679 479 q 720 278 720 359 l 720 71 q 703 -86 720 -20 q 650 -195 686 -152 q 558 -258 614 -237 q 425 -278 503 -278 l 374 -278 l 374 -163 z "},"Ӈ":{"ha":836,"x_min":93,"x_max":743,"o":"m 397 -163 l 439 -163 q 516 -151 485 -163 q 568 -112 548 -139 q 597 -40 588 -85 q 606 71 606 5 l 606 482 l 231 482 l 231 0 l 93 0 l 93 1013 l 231 1013 l 231 597 l 606 597 l 606 1013 l 743 1013 l 743 71 q 726 -87 743 -21 q 673 -195 709 -153 q 582 -258 637 -238 q 449 -278 526 -278 l 397 -278 l 397 -163 z "},"Ӌ":{"ha":836,"x_min":88,"x_max":736,"o":"m 454 115 l 598 115 l 598 487 q 573 463 587 473 q 540 442 559 453 l 508 425 q 478 412 496 418 q 442 402 461 406 q 402 396 422 398 q 363 393 382 393 l 331 391 q 163 448 222 391 q 153 459 157 454 q 145 468 148 465 q 103 561 118 505 q 88 699 88 616 l 88 1014 l 226 1014 l 226 716 q 262 565 226 612 q 376 517 298 517 q 440 524 406 517 q 505 545 475 531 q 533 562 522 553 q 551 579 543 570 q 585 650 572 604 q 598 758 598 695 l 598 1014 l 736 1014 l 736 0 l 598 0 l 598 -218 l 454 -218 l 454 115 z "},"Ӑ":{"ha":836,"x_min":25,"x_max":811,"o":"m 418 1091 q 205 1255 221 1091 l 286 1255 q 328 1199 294 1219 q 419 1180 361 1180 q 550 1255 530 1180 l 631 1255 q 570 1133 623 1174 q 418 1091 516 1091 m 335 1013 l 501 1013 l 811 0 l 669 0 l 595 264 l 240 264 l 167 0 l 25 0 l 335 1013 m 562 374 l 418 892 l 273 374 l 562 374 z "},"Ӓ":{"ha":836,"x_min":25,"x_max":811,"o":"m 237 1118 q 216 1139 216 1118 l 216 1236 q 237 1256 216 1256 l 334 1256 q 354 1236 354 1256 l 354 1139 q 334 1118 354 1118 l 237 1118 m 503 1118 q 482 1139 482 1118 l 482 1236 q 503 1256 482 1256 l 599 1256 q 619 1236 619 1256 l 619 1139 q 599 1118 619 1118 l 503 1118 m 335 1013 l 501 1013 l 811 0 l 669 0 l 595 264 l 240 264 l 167 0 l 25 0 l 335 1013 m 562 374 l 418 892 l 273 374 l 562 374 z "},"Ӗ":{"ha":836,"x_min":134,"x_max":747,"o":"m 430 1091 q 218 1255 233 1091 l 298 1255 q 340 1199 307 1219 q 431 1180 374 1180 q 562 1255 542 1180 l 643 1255 q 582 1133 635 1174 q 430 1091 528 1091 m 134 1013 l 734 1013 l 734 897 l 271 897 l 271 597 l 714 597 l 714 482 l 271 482 l 271 115 l 747 115 l 747 0 l 134 0 l 134 1013 z "},"Ә":{"ha":836,"x_min":79,"x_max":757,"o":"m 417 -20 q 163 110 246 -20 q 79 505 79 239 l 79 562 l 613 562 l 613 567 q 602 714 613 649 q 567 825 591 779 q 504 895 543 871 q 412 920 466 920 q 358 914 386 920 q 301 897 330 908 q 245 871 273 886 q 194 835 218 855 l 194 975 q 302 1017 247 1004 q 414 1031 358 1031 q 672 901 588 1031 q 757 506 757 772 q 673 111 757 241 q 417 -20 589 -20 m 421 92 q 506 113 471 92 q 563 178 541 135 q 597 286 586 221 q 612 437 609 351 l 225 437 q 273 180 225 268 q 421 92 320 92 z "},"Ӛ":{"ha":836,"x_min":79,"x_max":757,"o":"m 237 1118 q 216 1139 216 1118 l 216 1236 q 237 1256 216 1256 l 334 1256 q 354 1236 354 1256 l 354 1139 q 334 1118 354 1118 l 237 1118 m 503 1118 q 482 1139 482 1118 l 482 1236 q 503 1256 482 1256 l 599 1256 q 619 1236 619 1256 l 619 1139 q 599 1118 619 1118 l 503 1118 m 417 -20 q 163 110 246 -20 q 79 505 79 239 l 79 562 l 613 562 l 613 567 q 602 714 613 649 q 567 825 591 779 q 504 895 543 871 q 412 920 466 920 q 358 914 386 920 q 301 897 330 908 q 245 871 273 886 q 194 835 218 855 l 194 975 q 302 1017 247 1004 q 414 1031 358 1031 q 672 901 588 1031 q 757 506 757 772 q 673 111 757 241 q 417 -20 589 -20 m 421 92 q 506 113 471 92 q 563 178 541 135 q 597 286 586 221 q 612 437 609 351 l 225 437 q 273 180 225 268 q 421 92 320 92 z "},"Ӝ":{"ha":836,"x_min":10,"x_max":826,"o":"m 237 1118 q 216 1139 216 1118 l 216 1236 q 237 1256 216 1256 l 334 1256 q 354 1236 354 1256 l 354 1139 q 334 1118 354 1118 l 237 1118 m 503 1118 q 482 1139 482 1118 l 482 1236 q 503 1256 482 1256 l 599 1256 q 619 1236 619 1256 l 619 1139 q 599 1118 619 1118 l 503 1118 m 216 604 l 22 1013 l 162 1013 l 355 609 l 355 1013 l 481 1013 l 481 609 l 674 1013 l 814 1013 l 620 604 l 826 0 l 692 0 l 542 441 l 481 315 l 481 0 l 355 0 l 355 315 l 294 441 l 144 0 l 10 0 l 216 604 z "},"Ӟ":{"ha":836,"x_min":93,"x_max":732,"o":"m 225 1118 q 205 1139 205 1118 l 205 1236 q 225 1256 205 1256 l 322 1256 q 342 1236 342 1256 l 342 1139 q 322 1118 342 1118 l 225 1118 m 491 1118 q 471 1139 471 1118 l 471 1236 q 491 1256 471 1256 l 587 1256 q 608 1236 608 1256 l 608 1139 q 587 1118 608 1118 l 491 1118 m 375 -20 q 235 -7 308 -20 q 93 31 163 6 l 93 167 q 229 113 163 130 q 361 96 296 96 q 536 146 475 96 q 596 289 596 197 q 581 372 596 335 q 536 433 565 408 q 465 472 507 458 q 372 485 424 485 l 268 485 l 268 597 l 372 597 q 520 638 467 597 q 572 758 572 680 q 523 874 572 833 q 378 916 473 916 q 261 903 326 916 q 123 861 197 890 l 123 987 q 269 1020 205 1009 q 386 1031 333 1031 q 517 1011 458 1031 q 619 957 577 992 q 685 871 661 921 q 708 761 708 822 q 662 620 708 675 q 526 542 616 565 q 679 448 627 515 q 732 278 732 381 q 708 154 732 209 q 638 60 684 98 q 526 1 592 21 q 375 -20 459 -20 z "},"Ӡ":{"ha":836,"x_min":18,"x_max":818,"o":"m 417 -19 q 246 2 321 -19 q 121 63 172 23 q 44 161 70 103 q 18 295 18 220 l 155 295 q 222 147 155 197 q 418 96 289 96 q 615 147 547 96 q 682 293 682 197 q 666 376 682 340 q 619 436 650 412 q 545 473 589 460 q 445 486 500 486 l 327 486 l 327 598 l 578 897 l 77 897 l 77 1013 l 735 1013 l 735 899 l 480 600 q 554 591 515 600 q 631 564 593 582 q 703 520 669 547 q 764 459 737 494 q 805 380 793 420 q 818 291 818 340 q 791 160 818 218 q 714 63 765 102 q 589 2 663 23 q 417 -19 514 -19 z "},"Ӣ":{"ha":836,"x_min":94,"x_max":742,"o":"m 215 1256 l 621 1256 l 621 1156 l 215 1156 l 215 1256 m 94 1013 l 227 1013 l 227 179 l 568 1013 l 742 1013 l 742 0 l 610 0 l 610 833 l 268 0 l 94 0 l 94 1013 z "},"Ӥ":{"ha":836,"x_min":94,"x_max":742,"o":"m 237 1118 q 216 1139 216 1118 l 216 1236 q 237 1256 216 1256 l 334 1256 q 354 1236 354 1256 l 354 1139 q 334 1118 354 1118 l 237 1118 m 503 1118 q 482 1139 482 1118 l 482 1236 q 503 1256 482 1256 l 599 1256 q 619 1236 619 1256 l 619 1139 q 599 1118 619 1118 l 503 1118 m 94 1013 l 227 1013 l 227 179 l 568 1013 l 742 1013 l 742 0 l 610 0 l 610 833 l 268 0 l 94 0 l 94 1013 z "},"Ӧ":{"ha":836,"x_min":79,"x_max":757,"o":"m 237 1118 q 216 1139 216 1118 l 216 1236 q 237 1256 216 1256 l 334 1256 q 354 1236 354 1256 l 354 1139 q 334 1118 354 1118 l 237 1118 m 503 1118 q 482 1139 482 1118 l 482 1236 q 503 1256 482 1256 l 599 1256 q 619 1236 619 1256 l 619 1139 q 599 1118 619 1118 l 503 1118 m 417 -20 q 163 110 247 -20 q 79 505 79 239 q 163 901 79 770 q 418 1031 247 1031 q 673 901 589 1031 q 757 505 757 770 q 673 111 757 241 q 417 -20 589 -20 m 418 92 q 568 187 522 92 q 614 505 614 281 q 568 824 614 729 q 418 920 522 920 q 269 824 314 920 q 222 505 222 728 q 269 187 222 283 q 418 92 314 92 z "},"Ө":{"ha":836,"x_min":79,"x_max":757,"o":"m 417 -20 q 163 110 247 -20 q 79 505 79 239 q 163 901 79 770 q 418 1031 247 1031 q 673 901 589 1031 q 757 505 757 770 q 673 111 757 241 q 417 -20 589 -20 m 612 597 q 596 733 608 673 q 563 834 585 793 q 505 898 541 876 q 418 920 470 920 q 330 897 365 920 q 272 832 294 874 q 239 731 250 791 q 224 597 229 671 l 612 597 m 418 92 q 507 114 470 92 q 567 185 543 137 q 601 307 590 233 q 614 482 612 380 l 222 482 q 234 307 223 380 q 269 185 245 233 q 329 115 292 138 q 418 92 366 92 z "},"Ӫ":{"ha":836,"x_min":79,"x_max":757,"o":"m 237 1118 q 216 1139 216 1118 l 216 1236 q 237 1256 216 1256 l 334 1256 q 354 1236 354 1256 l 354 1139 q 334 1118 354 1118 l 237 1118 m 503 1118 q 482 1139 482 1118 l 482 1236 q 503 1256 482 1256 l 599 1256 q 619 1236 619 1256 l 619 1139 q 599 1118 619 1118 l 503 1118 m 417 -20 q 163 110 247 -20 q 79 505 79 239 q 163 901 79 770 q 418 1031 247 1031 q 673 901 589 1031 q 757 505 757 770 q 673 111 757 241 q 417 -20 589 -20 m 612 597 q 596 733 608 673 q 563 834 585 793 q 505 898 541 876 q 418 920 470 920 q 330 897 365 920 q 272 832 294 874 q 239 731 250 791 q 224 597 229 671 l 612 597 m 418 92 q 507 114 470 92 q 567 185 543 137 q 601 307 590 233 q 614 482 612 380 l 222 482 q 234 307 223 380 q 269 185 245 233 q 329 115 292 138 q 418 92 366 92 z "},"Ӭ":{"ha":836,"x_min":121,"x_max":755,"o":"m 228 1118 q 208 1139 208 1118 l 208 1236 q 228 1256 208 1256 l 325 1256 q 345 1236 345 1256 l 345 1139 q 325 1118 345 1118 l 228 1118 m 494 1118 q 473 1139 473 1118 l 473 1236 q 494 1256 473 1256 l 590 1256 q 610 1236 610 1256 l 610 1139 q 590 1118 610 1118 l 494 1118 m 345 -20 q 121 36 226 -20 l 121 176 q 231 113 172 134 q 347 92 289 92 q 462 118 413 92 q 543 191 511 144 q 593 304 576 238 q 612 448 610 370 l 183 448 l 183 564 l 608 564 q 581 725 598 657 q 533 835 563 792 q 460 899 504 878 q 353 920 416 920 q 230 899 287 920 q 121 835 173 878 l 121 975 q 345 1031 226 1031 q 518 995 441 1031 q 647 892 594 960 q 727 727 699 825 q 755 504 755 629 q 727 282 755 380 q 647 118 700 185 q 519 16 595 51 q 345 -20 443 -20 z "},"Ӯ":{"ha":836,"x_min":84,"x_max":795,"o":"m 229 1256 l 634 1256 l 634 1156 l 229 1156 l 229 1256 m 138 117 l 212 117 q 261 125 239 117 q 298 148 282 133 q 328 185 315 163 q 352 232 340 206 q 360 253 357 243 q 372 282 364 262 l 84 1013 l 231 1013 l 442 450 l 651 1013 l 795 1013 l 516 288 q 474 188 496 235 q 429 106 452 140 q 395 63 414 82 q 353 30 376 43 q 302 8 330 16 q 239 0 274 0 l 138 0 l 138 117 z "},"Ӱ":{"ha":836,"x_min":84,"x_max":795,"o":"m 250 1118 q 230 1139 230 1118 l 230 1236 q 250 1256 230 1256 l 347 1256 q 368 1236 368 1256 l 368 1139 q 347 1118 368 1118 l 250 1118 m 516 1118 q 496 1139 496 1118 l 496 1236 q 516 1256 496 1256 l 612 1256 q 633 1236 633 1256 l 633 1139 q 612 1118 633 1118 l 516 1118 m 138 117 l 212 117 q 261 125 239 117 q 298 148 282 133 q 328 185 315 163 q 352 232 340 206 q 360 253 357 243 q 372 282 364 262 l 84 1013 l 231 1013 l 442 450 l 651 1013 l 795 1013 l 516 288 q 474 188 496 235 q 429 106 452 140 q 395 63 414 82 q 353 30 376 43 q 302 8 330 16 q 239 0 274 0 l 138 0 l 138 117 z "},"Ӳ":{"ha":836,"x_min":84,"x_max":795,"o":"m 380 1256 l 507 1256 l 351 1077 l 247 1077 l 380 1256 m 597 1256 l 723 1256 l 568 1077 l 463 1077 l 597 1256 m 138 117 l 212 117 q 261 125 239 117 q 298 148 282 133 q 328 185 315 163 q 352 232 340 206 q 360 253 357 243 q 372 282 364 262 l 84 1013 l 231 1013 l 442 450 l 651 1013 l 795 1013 l 516 288 q 474 188 496 235 q 429 106 452 140 q 395 63 414 82 q 353 30 376 43 q 302 8 330 16 q 239 0 274 0 l 138 0 l 138 117 z "},"Ӵ":{"ha":836,"x_min":86,"x_max":734,"o":"m 230 1118 q 210 1139 210 1118 l 210 1236 q 230 1256 210 1256 l 327 1256 q 347 1236 347 1256 l 347 1139 q 327 1118 347 1118 l 230 1118 m 496 1118 q 475 1139 475 1118 l 475 1236 q 496 1256 475 1256 l 592 1256 q 612 1236 612 1256 l 612 1139 q 592 1118 612 1118 l 496 1118 m 596 446 q 531 418 561 429 q 474 401 502 407 q 420 393 447 395 q 362 391 393 391 q 290 394 325 391 q 224 408 254 397 q 168 436 193 418 q 124 485 142 454 q 96 559 106 515 q 86 665 86 603 l 86 1013 l 224 1013 l 224 682 q 234 592 224 625 q 264 543 243 559 q 316 522 284 526 q 391 517 347 517 q 447 519 422 517 q 495 528 472 522 q 543 548 519 535 q 596 584 567 562 l 596 1013 l 734 1013 l 734 0 l 596 0 l 596 446 z "},"Ӷ":{"ha":836,"x_min":146,"x_max":772,"o":"m 283 0 l 146 0 l 146 1013 l 772 1013 l 772 897 l 283 897 l 283 115 l 428 115 l 428 -218 l 283 -218 l 283 0 z "},"Ӹ":{"ha":836,"x_min":56,"x_max":781,"o":"m 248 1118 q 228 1139 228 1118 l 228 1236 q 248 1256 228 1256 l 345 1256 q 366 1236 366 1256 l 366 1139 q 345 1118 366 1118 l 248 1118 m 514 1118 q 494 1139 494 1118 l 494 1236 q 514 1256 494 1256 l 610 1256 q 631 1236 631 1256 l 631 1139 q 610 1118 631 1118 l 514 1118 m 56 1013 l 193 1013 l 193 606 l 254 606 q 376 586 320 606 q 473 529 432 567 q 537 434 514 491 q 560 303 560 378 q 537 172 560 229 q 472 77 513 115 q 375 19 431 39 q 254 0 319 0 l 56 0 l 56 1013 m 643 1013 l 781 1013 l 781 0 l 643 0 l 643 1013 m 254 113 q 319 123 289 113 q 370 157 349 134 q 405 216 392 180 q 417 302 417 252 q 376 443 417 393 q 254 493 336 493 l 193 493 l 193 113 l 254 113 z "},"Ԑ":{"ha":836,"x_min":93,"x_max":732,"o":"m 450 -20 q 299 1 365 -20 q 187 60 233 21 q 117 154 141 98 q 93 278 93 209 q 145 448 93 381 q 298 542 198 515 q 163 620 209 565 q 117 760 117 674 q 140 870 117 821 q 205 956 163 920 q 307 1011 248 991 q 439 1031 366 1031 q 555 1020 492 1031 q 701 987 619 1009 l 701 861 q 563 903 628 890 q 447 916 498 916 q 302 874 351 916 q 252 758 252 833 q 305 638 252 680 q 452 597 357 597 l 557 597 l 557 485 l 452 485 q 359 472 401 485 q 289 433 318 458 q 244 372 260 408 q 229 289 229 335 q 289 146 229 197 q 464 96 349 96 q 595 113 529 96 q 732 167 662 130 l 732 31 q 589 -7 662 6 q 450 -20 517 -20 z "},"Ԛ":{"ha":836,"x_min":79,"x_max":757,"o":"m 444 -18 q 438 -18 441 -18 q 431 -19 435 -18 q 424 -20 426 -20 q 420 -20 422 -20 q 164 111 248 -20 q 79 507 79 242 q 163 900 79 770 q 418 1031 247 1031 q 673 900 589 1031 q 757 505 757 770 q 710 184 757 306 q 570 14 664 62 l 705 -115 l 603 -183 l 444 -18 m 418 92 q 510 117 474 92 q 568 188 547 142 q 588 240 579 210 q 602 308 596 269 q 611 396 608 347 q 614 507 614 446 q 611 616 614 568 q 602 703 608 665 q 587 771 595 742 q 568 824 578 801 q 508 896 544 873 q 418 920 471 920 q 328 896 365 920 q 269 823 292 872 q 222 505 222 726 q 234 315 222 393 q 269 188 245 237 q 327 116 291 140 q 418 92 363 92 z "},"Ԝ":{"ha":836,"x_min":0,"x_max":836,"o":"m 0 1013 l 134 1013 l 231 191 l 346 734 l 489 734 l 606 189 l 703 1013 l 836 1013 l 685 0 l 555 0 l 418 602 l 281 0 l 151 0 l 0 1013 z "},"а":{"ha":836,"x_min":92,"x_max":760,"o":"m 348 -20 q 161 46 230 -20 q 111 120 129 77 q 92 222 92 162 q 178 414 92 347 q 427 479 262 479 l 595 479 l 595 499 q 583 576 595 543 q 549 631 572 610 q 490 662 526 652 q 404 672 453 672 q 275 654 340 672 q 148 600 209 635 l 148 725 q 211 747 176 736 q 281 765 245 758 q 405 778 342 778 q 492 771 453 778 q 566 749 532 764 q 625 715 597 736 q 673 667 653 694 q 696 626 687 648 q 709 583 705 604 q 720 433 720 534 l 720 278 q 722 209 722 239 q 726 153 723 179 q 734 100 730 125 q 742 62 739 75 q 753 22 747 41 q 760 0 759 3 l 635 0 q 626 24 631 8 q 616 59 621 40 q 610 89 613 74 q 606 115 607 104 q 555 55 586 81 q 494 13 524 28 q 426 -12 462 -4 q 348 -20 389 -20 m 374 85 q 535 157 476 85 q 595 354 595 230 l 595 382 l 437 382 q 273 344 328 382 q 230 295 243 324 q 217 229 217 267 q 228 167 217 193 q 258 123 239 141 q 306 95 278 105 q 374 85 334 85 z "},"б":{"ha":836,"x_min":85,"x_max":743,"o":"m 418 -20 q 279 6 340 -20 q 177 80 218 31 q 114 200 136 129 q 93 361 93 271 q 93 388 93 380 q 94 403 94 395 q 94 411 94 406 q 93 421 94 415 l 88 534 q 86 603 87 572 q 85 647 85 633 q 85 666 85 656 q 86 681 85 675 q 106 778 92 729 q 145 871 120 827 q 208 953 170 916 q 298 1015 245 990 q 427 1052 357 1043 q 578 1067 496 1061 q 608 1070 596 1068 q 637 1079 621 1072 l 684 983 q 657 975 671 977 q 626 970 642 972 l 463 954 q 405 943 433 951 q 347 919 376 935 q 290 881 316 903 q 245 835 264 859 q 214 785 226 810 q 199 735 202 760 l 193 694 q 295 758 236 739 q 420 778 355 778 q 558 752 498 778 q 660 676 618 726 q 722 551 701 625 q 743 378 743 476 q 722 207 743 281 q 660 82 701 133 q 558 6 618 32 q 418 -20 497 -20 m 419 86 q 611 379 611 86 q 418 672 611 672 q 225 380 225 672 q 273 160 225 235 q 419 86 321 86 z "},"в":{"ha":836,"x_min":162,"x_max":715,"o":"m 162 760 l 431 760 q 529 748 483 760 q 609 712 574 736 q 663 652 643 688 q 682 568 682 616 q 674 510 682 538 q 650 461 666 483 q 609 425 633 439 q 551 407 584 411 q 627 383 596 399 q 678 343 659 367 q 706 290 697 320 q 715 223 715 260 q 645 57 715 113 q 442 0 574 0 l 162 0 l 162 760 m 441 451 q 528 480 499 451 q 556 554 556 509 q 528 629 556 600 q 441 658 499 658 l 287 658 l 287 451 l 441 451 m 449 102 q 506 112 481 102 q 548 139 531 121 q 573 182 564 157 q 582 235 582 206 q 575 281 582 260 q 552 318 568 302 q 512 341 537 333 q 452 349 487 349 l 287 349 l 287 102 l 449 102 z "},"г":{"ha":836,"x_min":208,"x_max":718,"o":"m 208 760 l 718 760 l 718 658 l 333 658 l 333 0 l 208 0 l 208 760 z "},"ѓ":{"ha":836,"x_min":208,"x_max":736,"o":"m 602 1116 l 736 1116 l 515 861 l 411 861 l 602 1116 m 208 760 l 718 760 l 718 658 l 333 658 l 333 0 l 208 0 l 208 760 z "},"ґ":{"ha":836,"x_min":215,"x_max":726,"o":"m 215 760 l 600 760 l 600 972 l 726 972 l 725 635 l 340 635 l 340 0 l 215 0 l 215 760 z "},"д":{"ha":836,"x_min":71,"x_max":765,"o":"m 71 102 l 117 102 q 138 123 129 102 q 154 179 147 145 q 165 256 161 214 q 171 340 169 298 q 175 418 174 382 q 176 477 176 455 l 176 760 l 683 760 l 683 102 l 765 102 l 765 -194 l 663 -194 l 663 0 l 173 0 l 173 -194 l 71 -194 l 71 102 m 557 102 l 557 658 l 300 658 l 300 475 q 297 394 300 454 q 287 239 294 333 q 281 164 283 190 q 276 131 279 138 q 271 113 271 119 q 275 104 271 107 q 294 102 279 102 l 557 102 z "},"е":{"ha":836,"x_min":84,"x_max":755,"o":"m 459 -20 q 301 8 371 -20 q 183 87 232 35 q 110 212 135 138 q 84 376 84 285 q 110 542 84 468 q 181 669 135 616 q 293 750 228 722 q 437 778 358 778 q 572 752 513 778 q 671 680 631 727 q 733 564 712 632 q 755 411 755 496 l 755 350 l 214 350 l 214 346 q 231 235 214 283 q 279 154 248 187 q 357 103 311 121 q 461 86 403 86 q 587 105 522 86 q 726 163 652 124 l 726 39 q 588 -5 654 9 q 459 -20 523 -20 m 630 448 q 579 613 628 554 q 439 672 531 672 q 289 613 347 672 q 219 447 231 555 l 630 448 z "},"ѐ":{"ha":836,"x_min":84,"x_max":755,"o":"m 170 1135 l 304 1135 l 494 880 l 390 880 l 170 1135 m 459 -20 q 301 8 371 -20 q 183 87 232 35 q 110 212 135 138 q 84 376 84 285 q 110 542 84 468 q 181 669 135 616 q 293 750 228 722 q 437 778 358 778 q 572 752 513 778 q 671 680 631 727 q 733 564 712 632 q 755 411 755 496 l 755 350 l 214 350 l 214 346 q 231 235 214 283 q 279 154 248 187 q 357 103 311 121 q 461 86 403 86 q 587 105 522 86 q 726 163 652 124 l 726 39 q 588 -5 654 9 q 459 -20 523 -20 m 630 448 q 579 613 628 554 q 439 672 531 672 q 289 613 347 672 q 219 447 231 555 l 630 448 z "},"ё":{"ha":836,"x_min":84,"x_max":755,"o":"m 261 913 q 241 934 241 913 l 241 1030 q 261 1050 241 1050 l 358 1050 q 378 1030 378 1050 l 378 934 q 358 913 378 913 l 261 913 m 527 913 q 507 934 507 913 l 507 1030 q 527 1050 507 1050 l 623 1050 q 644 1030 644 1050 l 644 934 q 623 913 644 913 l 527 913 m 459 -20 q 301 8 371 -20 q 183 87 232 35 q 110 212 135 138 q 84 376 84 285 q 110 542 84 468 q 181 669 135 616 q 293 750 228 722 q 437 778 358 778 q 572 752 513 778 q 671 680 631 727 q 733 564 712 632 q 755 411 755 496 l 755 350 l 214 350 l 214 346 q 231 235 214 283 q 279 154 248 187 q 357 103 311 121 q 461 86 403 86 q 587 105 522 86 q 726 163 652 124 l 726 39 q 588 -5 654 9 q 459 -20 523 -20 m 630 448 q 579 613 628 554 q 439 672 531 672 q 289 613 347 672 q 219 447 231 555 l 630 448 z "},"ж":{"ha":836,"x_min":40,"x_max":797,"o":"m 216 486 l 54 760 l 189 760 l 361 467 l 361 760 l 475 760 l 475 467 l 648 760 l 783 760 l 621 486 l 797 0 l 675 0 l 546 358 l 475 238 l 475 0 l 361 0 l 361 238 l 291 358 l 161 0 l 40 0 l 216 486 z "},"з":{"ha":836,"x_min":115,"x_max":722,"o":"m 366 -15 q 244 -6 304 -15 q 115 23 184 3 l 115 140 q 228 105 166 117 q 357 94 290 94 q 536 129 475 94 q 597 227 597 165 q 583 282 597 257 q 540 324 568 307 q 472 351 512 342 q 381 361 432 361 l 274 361 l 274 458 l 386 458 q 527 488 479 458 q 576 563 576 517 q 525 638 576 610 q 378 667 475 667 q 272 659 330 667 q 142 632 214 650 l 142 745 q 391 778 285 778 q 519 764 463 778 q 617 724 576 750 q 679 662 657 699 q 700 581 700 626 q 656 472 700 515 q 531 412 612 429 q 610 388 574 404 q 670 347 645 372 q 708 290 695 323 q 722 218 722 258 q 697 121 722 164 q 628 48 673 78 q 516 1 583 18 q 366 -15 450 -15 z "},"и":{"ha":836,"x_min":132,"x_max":712,"o":"m 132 760 l 257 760 l 257 211 l 587 760 l 712 760 l 712 0 l 587 0 l 587 549 l 257 0 l 132 0 l 132 760 z "},"й":{"ha":836,"x_min":132,"x_max":712,"o":"m 418 863 q 205 1057 221 863 l 286 1057 q 325 982 294 1008 q 417 956 355 956 q 508 981 475 956 q 550 1057 541 1006 l 631 1057 q 418 863 615 863 m 132 760 l 257 760 l 257 211 l 587 760 l 712 760 l 712 0 l 587 0 l 587 549 l 257 0 l 132 0 l 132 760 z "},"ѝ":{"ha":836,"x_min":132,"x_max":712,"o":"m 233 1117 l 367 1117 l 557 862 l 453 862 l 233 1117 m 132 760 l 257 760 l 257 211 l 587 760 l 712 760 l 712 0 l 587 0 l 587 549 l 257 0 l 132 0 l 132 760 z "},"к":{"ha":836,"x_min":160,"x_max":815,"o":"m 160 760 l 289 760 l 289 444 l 616 760 l 768 760 l 469 473 l 815 0 l 663 0 l 382 392 l 289 304 l 289 0 l 160 0 l 160 760 z "},"ќ":{"ha":836,"x_min":160,"x_max":815,"o":"m 545 1117 l 680 1117 l 459 862 l 355 862 l 545 1117 m 160 760 l 289 760 l 289 444 l 616 760 l 768 760 l 469 473 l 815 0 l 663 0 l 382 392 l 289 304 l 289 0 l 160 0 l 160 760 z "},"л":{"ha":836,"x_min":34,"x_max":726,"o":"m 34 102 l 58 102 q 111 112 88 102 q 149 143 133 121 q 173 197 164 164 q 186 277 182 231 q 189 318 188 294 q 192 371 191 342 q 193 429 193 399 q 193 490 193 460 l 193 760 l 726 760 l 726 0 l 601 0 l 601 658 l 318 658 l 318 492 q 317 380 318 437 q 310 268 316 323 q 289 165 303 214 q 249 79 275 116 q 179 20 221 40 q 71 0 138 0 l 34 0 l 34 102 z "},"м":{"ha":836,"x_min":41,"x_max":800,"o":"m 41 760 l 166 760 l 420 291 l 675 760 l 800 760 l 800 0 l 675 0 l 675 503 l 483 176 l 358 176 l 166 503 l 166 0 l 41 0 l 41 760 z "},"н":{"ha":836,"x_min":128,"x_max":708,"o":"m 128 760 l 253 760 l 253 451 l 583 451 l 583 760 l 708 760 l 708 0 l 583 0 l 583 349 l 253 349 l 253 0 l 128 0 l 128 760 z "},"о":{"ha":836,"x_min":93,"x_max":743,"o":"m 418 -20 q 176 82 258 -20 q 93 378 93 183 q 114 550 93 475 q 176 675 135 625 q 278 752 218 726 q 418 778 338 778 q 558 752 497 778 q 660 675 618 726 q 722 550 701 625 q 743 378 743 475 q 660 82 743 184 q 418 -20 576 -20 m 418 86 q 563 160 514 86 q 611 379 611 234 q 563 598 611 525 q 418 672 514 672 q 274 598 322 672 q 225 379 225 525 q 274 160 225 234 q 418 86 322 86 z "},"п":{"ha":836,"x_min":128,"x_max":708,"o":"m 128 760 l 708 760 l 708 0 l 583 0 l 583 658 l 253 658 l 253 0 l 128 0 l 128 760 z "},"р":{"ha":836,"x_min":129,"x_max":751,"o":"m 129 760 l 242 760 l 254 663 q 339 749 287 721 q 459 778 391 778 q 581 750 527 778 q 673 671 635 723 q 731 546 711 620 q 751 378 751 472 q 731 211 751 285 q 673 86 711 138 q 581 7 635 35 q 458 -20 526 -20 q 336 9 387 -20 q 254 96 285 39 l 254 -289 l 129 -289 l 129 760 m 439 86 q 575 160 530 86 q 621 379 621 233 q 575 598 621 525 q 439 672 530 672 q 301 598 347 672 q 254 379 254 524 q 301 160 254 234 q 439 86 347 86 z "},"с":{"ha":836,"x_min":105,"x_max":692,"o":"m 205 672 q 479 778 304 778 q 515 776 498 778 q 551 772 532 774 l 553 772 q 562 781 562 772 l 562 901 q 568 907 562 907 l 686 907 q 692 901 692 907 l 692 589 q 594 652 644 632 q 484 672 544 672 q 300 596 363 672 q 237 379 237 521 q 300 162 237 237 q 484 86 363 86 q 692 168 606 86 l 692 39 q 586 -6 638 8 q 475 -20 534 -20 q 322 7 391 -20 q 205 86 254 35 q 131 212 156 138 q 105 379 105 286 q 131 546 105 472 q 205 672 156 621 z "},"т":{"ha":836,"x_min":145,"x_max":692,"o":"m 356 658 l 145 658 l 145 760 l 692 760 l 692 658 l 481 658 l 481 0 l 356 0 l 356 658 z "},"у":{"ha":836,"x_min":77,"x_max":789,"o":"m 132 -184 l 205 -184 q 257 -175 236 -184 q 292 -153 278 -166 q 308 -132 299 -145 q 326 -99 316 -119 q 346 -52 335 -79 q 371 12 357 -24 l 77 760 l 210 760 l 435 165 l 656 760 l 789 760 l 589 244 q 568 191 576 212 q 554 156 560 170 q 545 131 549 142 q 536 108 541 120 q 526 79 532 96 q 509 35 519 62 q 478 -46 492 -12 q 454 -107 465 -81 q 435 -151 444 -133 q 418 -183 427 -170 q 344 -261 389 -234 q 232 -289 300 -289 l 132 -289 l 132 -184 z "},"ў":{"ha":836,"x_min":77,"x_max":789,"o":"m 425 861 q 212 1056 228 861 l 293 1056 q 331 981 300 1007 q 424 954 362 954 q 515 979 482 954 q 557 1056 547 1004 l 637 1056 q 425 861 622 861 m 132 -184 l 205 -184 q 257 -175 236 -184 q 292 -153 278 -166 q 308 -132 299 -145 q 326 -99 316 -119 q 346 -52 335 -79 q 371 12 357 -24 l 77 760 l 210 760 l 435 165 l 656 760 l 789 760 l 589 244 q 568 191 576 212 q 554 156 560 170 q 545 131 549 142 q 536 108 541 120 q 526 79 532 96 q 509 35 519 62 q 478 -46 492 -12 q 454 -107 465 -81 q 435 -151 444 -133 q 418 -183 427 -170 q 344 -261 389 -234 q 232 -289 300 -289 l 132 -289 l 132 -184 z "},"ф":{"ha":836,"x_min":71,"x_max":766,"o":"m 356 -20 q 228 13 281 -12 q 139 85 174 38 q 87 205 104 133 q 71 380 71 278 q 87 553 71 481 q 138 672 103 625 q 227 745 173 720 q 356 778 281 770 l 356 1055 l 481 1055 l 481 778 q 610 745 556 770 q 699 672 664 720 q 750 553 734 625 q 766 380 766 481 q 750 205 766 278 q 698 85 733 133 q 609 13 663 38 q 481 -20 555 -12 l 481 -289 l 356 -289 l 356 -20 m 356 666 q 286 643 315 658 q 239 597 257 628 q 212 514 220 566 q 203 379 203 463 q 212 243 203 296 q 239 158 220 190 q 286 110 257 125 q 356 86 315 94 l 356 666 m 481 86 q 551 110 522 94 q 598 158 580 125 q 625 243 616 190 q 634 379 634 296 q 625 514 634 463 q 598 597 616 566 q 551 643 580 628 q 481 666 522 658 l 481 86 z "},"х":{"ha":836,"x_min":52,"x_max":785,"o":"m 350 396 l 78 760 l 216 760 l 418 485 l 618 760 l 758 760 l 486 396 l 785 0 l 640 0 l 418 304 l 196 0 l 52 0 l 350 396 z "},"ч":{"ha":836,"x_min":112,"x_max":692,"o":"m 568 316 q 545 307 562 314 q 502 292 528 300 q 439 279 475 285 q 360 273 403 273 q 257 286 303 273 q 179 328 211 299 q 129 402 146 357 q 112 512 112 448 l 112 761 l 237 761 l 237 512 q 250 442 237 468 q 286 403 263 416 q 338 385 309 389 q 400 381 368 381 q 486 389 447 381 q 568 421 526 397 l 568 761 l 692 761 l 692 0 l 568 0 l 568 316 z "},"ц":{"ha":836,"x_min":125,"x_max":799,"o":"m 697 0 l 125 0 l 125 760 l 250 760 l 250 102 l 579 102 l 579 760 l 704 760 l 704 102 l 799 102 l 799 -194 l 697 -194 l 697 0 z "},"ш":{"ha":836,"x_min":85,"x_max":752,"o":"m 85 760 l 199 760 l 199 102 l 361 102 l 361 760 l 475 760 l 475 102 l 638 102 l 638 760 l 752 760 l 752 0 l 85 0 l 85 760 z "},"щ":{"ha":836,"x_min":71,"x_max":836,"o":"m 734 0 l 71 0 l 71 760 l 185 760 l 185 102 l 348 102 l 348 760 l 462 760 l 462 102 l 625 102 l 625 760 l 739 760 l 739 102 l 836 102 l 836 -194 l 734 -194 l 734 0 z "},"џ":{"ha":836,"x_min":128,"x_max":708,"o":"m 367 0 l 128 0 l 128 760 l 253 760 l 253 102 l 583 102 l 583 760 l 708 760 l 708 0 l 469 0 l 469 -194 l 367 -194 l 367 0 z "},"я":{"ha":836,"x_min":121,"x_max":674,"o":"m 305 325 q 262 345 288 332 q 213 383 237 359 q 171 445 189 408 q 154 539 154 483 q 174 639 154 597 q 229 708 194 681 q 309 747 263 734 q 405 760 354 760 l 674 760 l 674 0 l 549 0 l 549 309 l 418 309 l 243 0 l 121 0 l 305 325 m 549 410 l 549 658 l 395 658 q 356 651 376 658 q 319 629 336 644 q 291 590 302 614 q 280 534 280 566 q 291 478 280 501 q 319 439 302 454 q 356 417 336 425 q 395 410 376 410 l 549 410 z "},"ь":{"ha":836,"x_min":153,"x_max":753,"o":"m 153 760 l 277 760 l 277 452 l 451 452 q 577 438 522 452 q 672 396 633 425 q 732 325 711 368 q 753 224 753 281 q 674 56 753 111 q 451 0 596 0 l 153 0 l 153 760 m 446 104 q 620 226 620 104 q 576 319 620 290 q 446 349 532 349 l 277 349 l 277 104 l 446 104 z "},"ъ":{"ha":836,"x_min":41,"x_max":810,"o":"m 209 658 l 41 658 l 41 760 l 334 760 l 334 452 l 507 452 q 634 438 578 452 q 729 396 690 425 q 789 325 768 368 q 810 224 810 282 q 731 56 810 111 q 507 0 652 0 l 209 0 l 209 658 m 502 106 q 631 135 586 106 q 677 226 677 165 q 631 318 677 288 q 502 349 585 349 l 334 349 l 334 106 l 502 106 z "},"ы":{"ha":836,"x_min":71,"x_max":766,"o":"m 71 760 l 194 760 l 194 452 l 256 452 q 383 438 327 452 q 478 396 439 425 q 537 325 517 368 q 558 224 558 282 q 479 56 558 111 q 256 0 401 0 l 71 0 l 71 760 m 641 760 l 766 760 l 766 0 l 641 0 l 641 760 m 250 104 q 380 134 334 104 q 425 226 425 164 q 379 319 425 288 q 250 350 333 350 l 194 350 l 194 104 l 250 104 z "},"љ":{"ha":836,"x_min":11,"x_max":836,"o":"m 11 102 l 35 102 q 87 112 65 102 q 125 143 110 121 q 150 197 141 164 q 163 277 159 231 q 166 318 165 294 q 169 371 168 342 q 170 429 170 399 q 170 490 170 460 l 170 760 l 553 760 l 553 452 l 568 452 q 670 438 621 452 q 756 396 719 425 q 814 325 793 368 q 836 224 836 282 q 815 126 836 168 q 758 56 794 83 q 672 14 721 28 q 568 0 623 0 l 439 0 l 439 658 l 284 658 l 284 492 l 284 445 q 282 355 284 405 q 273 254 281 305 q 251 155 266 203 q 210 71 236 106 q 184 43 199 56 q 150 20 170 30 q 102 5 130 11 q 37 0 75 0 l 11 0 l 11 102 m 562 104 q 703 227 703 104 q 562 349 703 349 l 553 349 l 553 104 l 562 104 z "},"њ":{"ha":836,"x_min":72,"x_max":829,"o":"m 72 760 l 186 760 l 186 451 l 433 451 l 433 760 l 547 760 l 547 452 l 561 452 q 663 438 614 452 q 749 396 712 425 q 808 325 786 368 q 829 224 829 282 q 808 126 829 168 q 751 56 787 83 q 665 14 714 28 q 561 0 616 0 l 433 0 l 433 349 l 186 349 l 186 0 l 72 0 l 72 760 m 555 104 q 696 227 696 104 q 555 349 696 349 l 547 349 l 547 104 l 555 104 z "},"ѕ":{"ha":836,"x_min":144,"x_max":699,"o":"m 398 -20 q 278 -8 339 -20 q 144 28 216 4 l 144 157 q 399 85 283 85 q 472 94 440 85 q 527 119 505 102 q 561 157 549 135 q 572 207 572 180 q 563 249 572 230 q 534 283 554 268 q 483 311 515 298 q 406 332 451 323 l 401 334 l 354 343 q 259 372 298 354 q 195 415 220 390 q 159 474 170 441 q 147 549 147 507 q 220 719 147 660 q 433 778 294 778 q 660 733 551 778 l 660 611 q 552 658 605 642 q 437 673 498 673 q 273 562 273 673 q 281 518 273 538 q 304 486 289 498 q 361 461 322 473 q 460 437 400 449 l 510 428 q 651 358 604 410 q 699 220 699 305 q 678 119 699 163 q 618 44 657 75 q 524 -3 580 13 q 398 -20 468 -20 z "},"є":{"ha":836,"x_min":112,"x_max":699,"o":"m 482 -20 q 328 7 397 -20 q 212 86 260 35 q 138 212 163 138 q 112 379 112 286 q 138 547 112 473 q 212 672 163 621 q 328 751 260 724 q 483 778 397 778 q 591 764 540 778 q 699 720 643 751 l 699 589 q 604 651 653 630 q 490 672 554 672 q 385 654 428 672 q 313 605 342 635 q 269 533 285 574 q 248 447 254 492 l 612 448 l 612 350 l 244 350 q 263 242 248 291 q 310 159 279 193 q 385 105 340 124 q 490 86 429 86 q 606 107 554 86 q 699 168 657 127 l 699 39 q 592 -6 644 7 q 482 -20 540 -20 z "},"э":{"ha":836,"x_min":153,"x_max":740,"o":"m 370 -20 q 260 -6 312 -20 q 153 39 208 7 l 153 168 q 246 107 195 127 q 361 86 298 86 q 467 105 422 86 q 542 159 512 124 q 588 242 572 193 q 608 350 604 291 l 240 350 l 240 448 l 604 448 q 583 533 598 492 q 538 605 567 574 q 467 654 510 635 q 362 672 423 672 q 250 652 300 672 q 153 589 200 631 l 153 720 q 260 764 208 751 q 369 778 312 778 q 524 751 455 778 q 640 672 592 724 q 714 547 688 621 q 740 379 740 473 q 714 212 740 286 q 640 86 688 138 q 524 7 592 35 q 370 -20 455 -20 z "},"і":{"ha":836,"x_min":155,"x_max":713,"o":"m 336 897 q 314 918 314 897 l 314 1035 q 336 1055 314 1055 l 424 1055 q 446 1035 446 1055 l 446 918 q 424 897 446 897 l 336 897 m 446 270 q 477 143 446 185 q 516 111 493 121 q 568 100 538 100 l 713 100 l 713 -5 l 555 -5 q 458 12 501 -5 q 382 66 415 28 q 321 270 321 138 l 321 662 l 155 662 l 155 760 l 446 760 l 446 270 z "},"ї":{"ha":836,"x_min":155,"x_max":713,"o":"m 175 896 q 155 916 155 896 l 155 1013 q 175 1033 155 1033 l 272 1033 q 292 1013 292 1033 l 292 916 q 272 896 292 896 l 175 896 m 441 896 q 420 916 420 896 l 420 1013 q 441 1033 420 1033 l 537 1033 q 557 1013 557 1033 l 557 916 q 537 896 557 896 l 441 896 m 446 270 q 477 143 446 185 q 516 111 493 121 q 568 100 538 100 l 713 100 l 713 -5 l 555 -5 q 458 12 501 -5 q 382 66 415 28 q 321 270 321 138 l 321 662 l 155 662 l 155 760 l 446 760 l 446 270 z "},"ј":{"ha":836,"x_min":161,"x_max":567,"o":"m 457 897 q 435 918 435 897 l 435 1035 q 457 1055 435 1055 l 545 1055 q 567 1035 567 1055 l 567 918 q 545 897 567 897 l 457 897 m 161 -183 l 320 -183 q 442 -14 442 -183 l 442 663 l 227 663 l 227 760 l 567 760 l 567 -14 q 507 -218 567 -146 q 334 -289 446 -289 l 161 -289 l 161 -183 z "},"ћ":{"ha":836,"x_min":44,"x_max":753,"o":"m 173 663 l 44 663 l 44 760 l 173 760 l 173 1055 l 298 1055 l 298 760 l 602 760 l 602 663 l 298 663 l 298 393 q 388 492 331 459 q 523 526 445 526 q 696 450 640 526 q 753 218 753 374 l 753 0 l 628 0 l 628 218 q 592 369 628 321 q 480 417 557 417 q 345 355 391 417 q 298 177 298 294 l 298 0 l 173 0 l 173 663 z "},"ю":{"ha":836,"x_min":80,"x_max":819,"o":"m 562 -20 q 463 4 509 -20 q 384 73 418 28 q 328 182 350 118 q 301 328 307 247 l 205 328 l 205 0 l 80 0 l 80 760 l 205 760 l 205 430 l 301 430 q 328 581 307 516 q 384 690 350 646 q 462 756 418 734 q 559 778 507 778 q 661 753 613 778 q 743 680 708 729 q 799 555 779 630 q 819 378 819 479 q 798 200 819 275 q 742 76 777 125 q 659 4 706 27 q 562 -20 612 -20 m 467 165 q 510 105 486 125 q 559 85 534 85 q 611 107 586 85 q 653 171 635 128 q 678 265 669 210 q 687 389 687 321 q 649 598 687 524 q 608 653 631 634 q 561 671 585 671 q 512 651 535 671 q 469 589 488 630 q 441 494 451 548 q 431 374 431 440 q 441 254 431 307 q 467 165 450 201 z "},"ђ":{"ha":836,"x_min":51,"x_max":779,"o":"m 448 -177 q 525 -141 489 -170 q 589 -64 562 -113 q 632 52 616 -16 q 648 206 648 120 q 641 297 648 258 q 616 363 633 336 q 570 404 599 390 q 496 417 541 417 q 351 355 398 417 q 304 177 304 294 l 304 0 l 180 0 l 180 663 l 51 663 l 51 760 l 180 760 l 180 1055 l 304 1055 l 304 760 l 608 760 l 608 663 l 304 663 l 304 393 q 395 492 338 459 q 534 526 452 526 q 720 445 661 526 q 779 201 779 364 q 758 18 779 102 q 695 -129 736 -65 q 592 -233 654 -192 q 448 -289 530 -274 l 448 -177 z "},"ѣ":{"ha":836,"x_min":34,"x_max":803,"o":"m 202 660 l 34 660 l 34 760 l 202 760 l 202 1055 l 327 1055 l 327 760 l 615 760 l 615 660 l 327 660 l 327 452 l 500 452 q 628 438 572 452 q 723 396 684 425 q 782 325 762 368 q 803 224 803 282 q 724 56 803 111 q 500 0 646 0 l 202 0 l 202 660 m 495 106 q 625 135 579 106 q 670 226 670 165 q 624 318 670 288 q 495 349 578 349 l 327 349 l 327 106 l 495 106 z "},"ѳ":{"ha":836,"x_min":93,"x_max":743,"o":"m 418 -20 q 176 82 260 -20 q 93 380 93 184 q 176 675 93 572 q 276 751 217 725 q 417 778 335 778 q 660 675 576 778 q 743 379 743 573 q 660 82 743 184 q 418 -20 577 -20 m 610 414 q 595 522 608 474 q 559 603 583 570 q 500 654 536 636 q 418 672 465 672 q 335 654 370 672 q 277 603 300 636 q 241 522 254 570 q 226 414 229 474 l 610 414 m 418 86 q 499 103 465 86 q 555 150 533 120 q 590 219 578 179 q 607 303 602 258 l 229 303 q 246 219 234 258 q 281 150 258 179 q 337 103 303 120 q 418 86 370 86 z "},"ғ":{"ha":836,"x_min":127,"x_max":725,"o":"m 215 339 l 127 339 l 127 454 l 215 454 l 215 760 l 725 760 l 725 635 l 340 635 l 340 454 l 622 454 l 622 339 l 340 339 l 340 0 l 215 0 l 215 339 z "},"ҕ":{"ha":836,"x_min":154,"x_max":730,"o":"m 366 -183 l 482 -183 q 543 -175 519 -183 q 581 -148 567 -168 q 600 -96 595 -129 q 605 -14 605 -64 l 605 165 q 598 256 605 223 q 575 306 592 289 q 530 326 559 322 q 455 330 500 330 l 279 330 l 279 0 l 154 0 l 154 760 l 664 760 l 664 635 l 279 635 l 279 428 l 448 428 q 592 417 536 428 q 677 376 647 406 q 719 297 708 347 q 730 170 730 247 l 730 -14 q 716 -138 730 -86 q 674 -223 703 -190 q 602 -273 646 -257 q 496 -289 557 -289 l 366 -289 l 366 -183 z "},"җ":{"ha":836,"x_min":40,"x_max":812,"o":"m 711 0 l 675 0 l 546 358 l 475 238 l 475 0 l 361 0 l 361 238 l 291 358 l 161 0 l 40 0 l 216 486 l 54 760 l 189 760 l 361 467 l 361 760 l 475 760 l 475 467 l 648 760 l 783 760 l 621 486 l 760 102 l 812 102 l 812 -194 l 711 -194 l 711 0 z "},"ҙ":{"ha":836,"x_min":115,"x_max":722,"o":"m 722 218 q 703 131 722 170 q 648 63 684 92 q 559 14 612 33 q 439 -12 507 -5 q 488 -82 472 -50 q 503 -149 503 -115 q 463 -237 503 -207 q 340 -268 422 -268 q 222 -252 282 -268 l 222 -163 q 270 -179 243 -174 q 322 -184 297 -184 q 388 -169 367 -184 q 409 -123 409 -153 q 398 -79 409 -104 q 360 -15 388 -54 q 242 -5 301 -14 q 115 23 182 3 l 115 140 q 228 105 166 117 q 357 94 290 94 q 536 129 475 94 q 597 227 597 165 q 583 282 597 257 q 540 324 568 307 q 472 351 512 342 q 381 361 432 361 l 274 361 l 274 458 l 386 458 q 527 488 479 458 q 576 563 576 517 q 525 638 576 610 q 378 667 475 667 q 272 659 330 667 q 142 632 214 650 l 142 745 q 391 778 285 778 q 519 764 463 778 q 617 724 576 750 q 679 662 657 699 q 700 581 700 626 q 656 472 700 515 q 531 412 612 429 q 610 388 574 404 q 670 347 645 372 q 708 290 695 323 q 722 218 722 258 z "},"қ":{"ha":836,"x_min":146,"x_max":802,"o":"m 669 0 l 649 0 l 368 392 l 275 304 l 275 0 l 146 0 l 146 760 l 275 760 l 275 444 l 603 760 l 755 760 l 456 473 l 711 125 l 802 125 l 802 -194 l 669 -194 l 669 0 z "},"ң":{"ha":836,"x_min":124,"x_max":836,"o":"m 704 0 l 579 0 l 579 342 l 249 342 l 249 0 l 124 0 l 124 760 l 249 760 l 249 458 l 579 458 l 579 760 l 704 760 l 704 125 l 836 125 l 836 -194 l 704 -194 l 704 0 z "},"ҫ":{"ha":836,"x_min":112,"x_max":699,"o":"m 490 672 q 306 596 369 672 q 243 380 243 520 q 307 162 243 238 q 491 86 370 86 q 603 106 551 86 q 699 168 654 125 l 699 39 q 619 2 659 15 q 539 -16 580 -11 q 584 -84 570 -53 q 599 -149 599 -115 q 558 -237 599 -207 q 436 -268 517 -268 q 318 -252 378 -268 l 318 -163 q 366 -179 339 -174 q 418 -184 393 -184 q 484 -169 463 -184 q 505 -123 505 -153 q 494 -81 505 -104 q 458 -19 484 -57 q 314 14 378 -15 q 205 94 250 43 q 136 217 160 144 q 112 379 112 289 q 138 547 112 473 q 212 672 163 621 q 328 751 260 724 q 483 778 397 778 q 591 764 540 778 q 699 720 643 751 l 699 589 q 601 652 651 632 q 490 672 551 672 z "},"ҭ":{"ha":836,"x_min":145,"x_max":692,"o":"m 481 0 l 356 0 l 356 639 l 145 639 l 145 760 l 692 760 l 692 639 l 481 639 l 481 125 l 613 125 l 613 -194 l 481 -194 l 481 0 z "},"ү":{"ha":836,"x_min":62,"x_max":773,"o":"m 353 12 l 62 760 l 195 760 l 418 165 l 641 760 l 773 760 l 483 12 l 483 -289 l 353 -289 l 353 12 z "},"ұ":{"ha":836,"x_min":62,"x_max":773,"o":"m 353 -125 l 217 -125 l 217 -24 l 353 -24 l 353 12 l 62 760 l 195 760 l 418 165 l 641 760 l 773 760 l 483 12 l 483 -24 l 618 -24 l 618 -125 l 483 -125 l 483 -289 l 353 -289 l 353 -125 z "},"ҳ":{"ha":836,"x_min":65,"x_max":799,"o":"m 666 0 l 654 0 l 431 304 l 210 0 l 65 0 l 363 396 l 92 760 l 230 760 l 431 485 l 631 760 l 772 760 l 500 396 l 704 125 l 799 125 l 799 -194 l 666 -194 l 666 0 z "},"һ":{"ha":836,"x_min":132,"x_max":713,"o":"m 132 1055 l 257 1055 l 257 646 q 347 745 290 711 q 482 778 404 778 q 656 702 599 778 q 713 471 713 626 l 713 0 l 587 0 l 587 471 q 552 621 587 573 q 439 669 516 669 q 304 608 351 669 q 257 429 257 546 l 257 0 l 132 0 l 132 1055 z "},"ӏ":{"ha":836,"x_min":309,"x_max":433,"o":"m 309 1063 l 433 1063 l 433 0 l 309 0 l 309 1063 z "},"ӂ":{"ha":836,"x_min":40,"x_max":797,"o":"m 418 896 q 205 1090 221 896 l 286 1090 q 418 989 301 989 q 550 1090 531 989 l 631 1090 q 418 896 615 896 m 216 486 l 54 760 l 189 760 l 361 467 l 361 760 l 475 760 l 475 467 l 648 760 l 783 760 l 621 486 l 797 0 l 675 0 l 546 358 l 475 238 l 475 0 l 361 0 l 361 238 l 291 358 l 161 0 l 40 0 l 216 486 z "},"ӄ":{"ha":836,"x_min":146,"x_max":755,"o":"m 362 -183 l 479 -183 q 540 -175 516 -183 q 577 -148 564 -168 q 596 -96 591 -129 q 602 -14 602 -64 l 602 165 q 595 256 602 223 q 572 306 589 289 q 526 326 555 322 q 452 330 497 330 l 302 330 l 275 304 l 275 0 l 146 0 l 146 760 l 275 760 l 275 444 l 603 760 l 755 760 l 406 428 l 445 428 q 588 417 533 428 q 674 376 644 406 q 715 297 705 347 q 726 170 726 247 l 726 -14 q 713 -138 726 -86 q 671 -223 699 -190 q 598 -273 642 -257 q 493 -289 554 -289 l 362 -289 l 362 -183 z "},"ӈ":{"ha":836,"x_min":139,"x_max":719,"o":"m 355 -183 l 471 -183 q 532 -175 509 -183 q 570 -148 556 -168 q 589 -96 584 -129 q 594 -14 594 -64 l 594 342 l 264 342 l 264 0 l 139 0 l 139 760 l 264 760 l 264 458 l 594 458 l 594 760 l 719 760 l 719 -14 q 705 -138 719 -86 q 663 -223 692 -190 q 591 -273 635 -257 q 486 -289 547 -289 l 355 -289 l 355 -183 z "},"ӌ":{"ha":836,"x_min":119,"x_max":699,"o":"m 442 125 l 574 125 l 574 384 q 515 325 556 349 q 511 322 516 326 q 484 307 505 319 q 422 281 455 290 q 350 273 389 273 q 176 349 233 273 q 119 580 119 425 l 119 761 l 244 761 l 244 580 q 280 429 244 477 q 392 381 315 381 q 528 443 481 381 q 574 621 574 505 l 574 761 l 699 761 l 699 0 l 574 0 l 574 -194 l 442 -194 l 442 125 z "},"ӑ":{"ha":836,"x_min":97,"x_max":765,"o":"m 418 880 q 205 1075 221 880 l 286 1075 q 325 1000 294 1026 q 417 973 355 973 q 508 998 475 973 q 550 1075 541 1023 l 631 1075 q 418 880 615 880 m 353 -20 q 166 46 235 -20 q 115 120 134 77 q 97 222 97 162 q 182 414 97 347 q 432 479 267 479 l 600 479 l 600 499 q 588 576 600 543 q 553 631 576 610 q 494 662 531 652 q 409 672 458 672 q 279 654 345 672 q 153 600 214 635 l 153 725 q 216 747 181 736 q 286 765 250 758 q 410 778 347 778 q 497 771 458 778 q 570 749 536 764 q 630 715 602 736 q 677 667 658 694 q 701 626 692 648 q 714 583 709 604 q 725 433 725 534 l 725 278 q 727 209 726 239 q 731 153 728 179 q 739 100 734 125 q 747 62 743 75 q 758 22 751 41 q 765 0 764 3 l 640 0 q 631 24 636 8 q 621 59 626 40 q 615 89 618 74 q 610 115 612 104 q 560 55 591 81 q 499 13 529 28 q 430 -12 467 -4 q 353 -20 394 -20 m 378 85 q 540 157 481 85 q 600 354 600 230 l 600 382 l 441 382 q 277 344 333 382 q 235 295 248 324 q 222 229 222 267 q 233 167 222 193 q 263 123 243 141 q 311 95 283 105 q 378 85 339 85 z "},"ӓ":{"ha":836,"x_min":97,"x_max":765,"o":"m 237 916 q 216 936 216 916 l 216 1032 q 237 1053 216 1053 l 334 1053 q 354 1032 354 1053 l 354 936 q 334 916 354 916 l 237 916 m 503 916 q 482 936 482 916 l 482 1032 q 503 1053 482 1053 l 599 1053 q 619 1032 619 1053 l 619 936 q 599 916 619 916 l 503 916 m 353 -20 q 166 46 235 -20 q 115 120 134 77 q 97 222 97 162 q 182 414 97 347 q 432 479 267 479 l 600 479 l 600 499 q 588 576 600 543 q 553 631 576 610 q 494 662 531 652 q 409 672 458 672 q 279 654 345 672 q 153 600 214 635 l 153 725 q 216 747 181 736 q 286 765 250 758 q 410 778 347 778 q 497 771 458 778 q 570 749 536 764 q 630 715 602 736 q 677 667 658 694 q 701 626 692 648 q 714 583 709 604 q 725 433 725 534 l 725 278 q 727 209 726 239 q 731 153 728 179 q 739 100 734 125 q 747 62 743 75 q 758 22 751 41 q 765 0 764 3 l 640 0 q 631 24 636 8 q 621 59 626 40 q 615 89 618 74 q 610 115 612 104 q 560 55 591 81 q 499 13 529 28 q 430 -12 467 -4 q 353 -20 394 -20 m 378 85 q 540 157 481 85 q 600 354 600 230 l 600 382 l 441 382 q 277 344 333 382 q 235 295 248 324 q 222 229 222 267 q 233 167 222 193 q 263 123 243 141 q 311 95 283 105 q 378 85 339 85 z "},"ӗ":{"ha":836,"x_min":84,"x_max":755,"o":"m 428 880 q 216 1075 231 880 l 296 1075 q 335 1000 304 1026 q 427 973 366 973 q 518 998 486 973 q 560 1075 551 1023 l 641 1075 q 428 880 625 880 m 459 -20 q 301 8 371 -20 q 183 87 232 35 q 110 212 135 138 q 84 376 84 285 q 110 542 84 468 q 181 669 135 616 q 293 750 228 722 q 437 778 358 778 q 572 752 513 778 q 671 680 631 727 q 733 564 712 632 q 755 411 755 496 l 755 350 l 214 350 l 214 346 q 231 235 214 283 q 279 154 248 187 q 357 103 311 121 q 461 86 403 86 q 587 105 522 86 q 726 163 652 124 l 726 39 q 588 -5 654 9 q 459 -20 523 -20 m 630 448 q 579 613 628 554 q 439 672 531 672 q 289 613 347 672 q 219 447 231 555 l 630 448 z "},"ә":{"ha":836,"x_min":96,"x_max":767,"o":"m 414 -20 q 279 6 338 -20 q 180 79 220 31 q 118 194 139 126 q 96 347 96 262 l 96 408 l 637 408 l 637 412 q 620 523 637 474 q 572 604 604 571 q 494 655 541 637 q 390 672 448 672 q 264 653 329 672 q 125 595 199 634 l 125 720 q 263 763 197 749 q 392 778 328 778 q 550 750 480 778 q 667 671 619 723 q 741 547 715 620 q 767 382 767 473 q 742 216 767 290 q 670 89 716 142 q 558 8 623 37 q 414 -20 493 -20 m 412 86 q 563 145 505 86 q 632 311 621 203 l 221 311 q 272 143 221 201 q 412 86 323 86 z "},"ӛ":{"ha":836,"x_min":96,"x_max":767,"o":"m 250 916 q 230 936 230 916 l 230 1032 q 250 1053 230 1053 l 347 1053 q 368 1032 368 1053 l 368 936 q 347 916 368 916 l 250 916 m 516 916 q 496 936 496 916 l 496 1032 q 516 1053 496 1053 l 612 1053 q 633 1032 633 1053 l 633 936 q 612 916 633 916 l 516 916 m 414 -20 q 279 6 338 -20 q 180 79 220 31 q 118 194 139 126 q 96 347 96 262 l 96 408 l 637 408 l 637 412 q 620 523 637 474 q 572 604 604 571 q 494 655 541 637 q 390 672 448 672 q 264 653 329 672 q 125 595 199 634 l 125 720 q 263 763 197 749 q 392 778 328 778 q 550 750 480 778 q 667 671 619 723 q 741 547 715 620 q 767 382 767 473 q 742 216 767 290 q 670 89 716 142 q 558 8 623 37 q 414 -20 493 -20 m 412 86 q 563 145 505 86 q 632 311 621 203 l 221 311 q 272 143 221 201 q 412 86 323 86 z "},"ӝ":{"ha":836,"x_min":40,"x_max":797,"o":"m 237 896 q 216 916 216 896 l 216 1013 q 237 1033 216 1033 l 334 1033 q 354 1013 354 1033 l 354 916 q 334 896 354 896 l 237 896 m 503 896 q 482 916 482 896 l 482 1013 q 503 1033 482 1033 l 599 1033 q 619 1013 619 1033 l 619 916 q 599 896 619 896 l 503 896 m 216 486 l 54 760 l 189 760 l 361 467 l 361 760 l 475 760 l 475 467 l 648 760 l 783 760 l 621 486 l 797 0 l 675 0 l 546 358 l 475 238 l 475 0 l 361 0 l 361 238 l 291 358 l 161 0 l 40 0 l 216 486 z "},"ӟ":{"ha":836,"x_min":115,"x_max":722,"o":"m 227 916 q 206 936 206 916 l 206 1032 q 227 1053 206 1053 l 323 1053 q 344 1032 344 1053 l 344 936 q 323 916 344 916 l 227 916 m 492 916 q 472 936 472 916 l 472 1032 q 492 1053 472 1053 l 589 1053 q 609 1032 609 1053 l 609 936 q 589 916 609 916 l 492 916 m 366 -15 q 244 -6 304 -15 q 115 23 184 3 l 115 140 q 228 105 166 117 q 357 94 290 94 q 536 129 475 94 q 597 227 597 165 q 583 282 597 257 q 540 324 568 307 q 472 351 512 342 q 381 361 432 361 l 274 361 l 274 458 l 386 458 q 527 488 479 458 q 576 563 576 517 q 525 638 576 610 q 378 667 475 667 q 272 659 330 667 q 142 632 214 650 l 142 745 q 391 778 285 778 q 519 764 463 778 q 617 724 576 750 q 679 662 657 699 q 700 581 700 626 q 656 472 700 515 q 531 412 612 429 q 610 388 574 404 q 670 347 645 372 q 708 290 695 323 q 722 218 722 258 q 697 121 722 164 q 628 48 673 78 q 516 1 583 18 q 366 -15 450 -15 z "},"ӡ":{"ha":836,"x_min":98,"x_max":765,"o":"m 374 -296 q 308 -293 340 -296 q 241 -284 275 -290 q 172 -269 208 -278 q 98 -245 137 -259 l 98 -113 q 223 -163 156 -146 q 365 -180 291 -180 q 562 -130 494 -180 q 629 16 629 -79 q 612 98 629 62 q 566 159 596 134 q 491 196 535 183 q 391 209 447 209 l 273 209 l 273 321 l 565 660 l 113 660 l 113 760 l 705 760 l 705 646 l 427 323 q 497 315 459 323 q 572 291 534 307 q 645 247 610 274 q 710 182 681 220 q 752 105 739 145 q 765 15 765 65 q 738 -117 765 -59 q 661 -214 711 -174 q 538 -275 610 -254 q 374 -296 465 -296 z "},"ӣ":{"ha":836,"x_min":132,"x_max":712,"o":"m 215 996 l 621 996 l 621 895 l 215 895 l 215 996 m 132 760 l 257 760 l 257 211 l 587 760 l 712 760 l 712 0 l 587 0 l 587 549 l 257 0 l 132 0 l 132 760 z "},"ӥ":{"ha":836,"x_min":132,"x_max":712,"o":"m 237 897 q 216 917 216 897 l 216 1013 q 237 1034 216 1034 l 334 1034 q 354 1013 354 1034 l 354 917 q 334 897 354 897 l 237 897 m 503 897 q 482 917 482 897 l 482 1013 q 503 1034 482 1034 l 599 1034 q 619 1013 619 1034 l 619 917 q 599 897 619 897 l 503 897 m 132 760 l 257 760 l 257 211 l 587 760 l 712 760 l 712 0 l 587 0 l 587 549 l 257 0 l 132 0 l 132 760 z "},"ӧ":{"ha":836,"x_min":93,"x_max":743,"o":"m 237 916 q 216 936 216 916 l 216 1032 q 237 1053 216 1053 l 334 1053 q 354 1032 354 1053 l 354 936 q 334 916 354 916 l 237 916 m 503 916 q 482 936 482 916 l 482 1032 q 503 1053 482 1053 l 599 1053 q 619 1032 619 1053 l 619 936 q 599 916 619 916 l 503 916 m 418 -20 q 176 82 258 -20 q 93 378 93 183 q 114 550 93 475 q 176 675 135 625 q 278 752 218 726 q 418 778 338 778 q 558 752 497 778 q 660 675 618 726 q 722 550 701 625 q 743 378 743 475 q 660 82 743 184 q 418 -20 576 -20 m 418 86 q 563 160 514 86 q 611 379 611 234 q 563 598 611 525 q 418 672 514 672 q 274 598 322 672 q 225 379 225 525 q 274 160 225 234 q 418 86 322 86 z "},"ө":{"ha":836,"x_min":93,"x_max":743,"o":"m 418 -20 q 176 82 260 -20 q 93 380 93 184 q 176 675 93 572 q 276 751 217 725 q 417 778 335 778 q 660 675 576 778 q 743 379 743 573 q 660 82 743 184 q 418 -20 577 -20 m 610 414 q 595 522 608 474 q 559 603 583 570 q 500 654 536 636 q 418 672 465 672 q 335 654 370 672 q 277 603 300 636 q 241 522 254 570 q 226 414 229 474 l 610 414 m 418 86 q 499 103 465 86 q 555 150 533 120 q 590 219 578 179 q 607 303 602 258 l 229 303 q 246 219 234 258 q 281 150 258 179 q 337 103 303 120 q 418 86 370 86 z "},"ӫ":{"ha":836,"x_min":93,"x_max":743,"o":"m 237 916 q 216 936 216 916 l 216 1032 q 237 1053 216 1053 l 334 1053 q 354 1032 354 1053 l 354 936 q 334 916 354 916 l 237 916 m 503 916 q 482 936 482 916 l 482 1032 q 503 1053 482 1053 l 599 1053 q 619 1032 619 1053 l 619 936 q 599 916 619 916 l 503 916 m 418 -20 q 176 82 260 -20 q 93 380 93 184 q 176 675 93 572 q 276 751 217 725 q 417 778 335 778 q 660 675 576 778 q 743 379 743 573 q 660 82 743 184 q 418 -20 577 -20 m 610 414 q 595 522 608 474 q 559 603 583 570 q 500 654 536 636 q 418 672 465 672 q 335 654 370 672 q 277 603 300 636 q 241 522 254 570 q 226 414 229 474 l 610 414 m 418 86 q 499 103 465 86 q 555 150 533 120 q 590 219 578 179 q 607 303 602 258 l 229 303 q 246 219 234 258 q 281 150 258 179 q 337 103 303 120 q 418 86 370 86 z "},"ӭ":{"ha":836,"x_min":146,"x_max":733,"o":"m 223 916 q 203 936 203 916 l 203 1032 q 223 1053 203 1053 l 320 1053 q 340 1032 340 1053 l 340 936 q 320 916 340 916 l 223 916 m 489 916 q 469 936 469 916 l 469 1032 q 489 1053 469 1053 l 585 1053 q 606 1032 606 1053 l 606 936 q 585 916 606 916 l 489 916 m 363 -20 q 253 -6 305 -20 q 146 39 201 7 l 146 168 q 239 107 188 127 q 355 86 291 86 q 460 105 416 86 q 535 159 505 124 q 582 242 566 193 q 601 350 597 291 l 233 350 l 233 448 l 597 448 q 576 533 591 492 q 532 605 560 574 q 460 654 503 635 q 355 672 416 672 q 243 652 294 672 q 146 589 193 631 l 146 720 q 253 764 201 751 q 362 778 305 778 q 517 751 448 778 q 633 672 585 724 q 707 547 682 621 q 733 379 733 473 q 707 212 733 286 q 633 86 682 138 q 517 7 585 35 q 363 -20 448 -20 z "},"ӯ":{"ha":836,"x_min":71,"x_max":782,"o":"m 215 996 l 621 996 l 621 895 l 215 895 l 215 996 m 125 -184 l 199 -184 q 250 -175 229 -184 q 285 -153 271 -166 q 301 -132 292 -145 q 319 -99 309 -119 q 339 -52 328 -79 q 364 12 351 -24 l 71 760 l 203 760 l 428 165 l 650 760 l 782 760 l 582 244 q 561 191 569 212 q 548 156 553 170 q 538 131 542 142 q 530 108 534 120 q 519 79 525 96 q 503 35 513 62 q 471 -46 485 -12 q 447 -107 458 -81 q 428 -151 437 -133 q 412 -183 420 -170 q 337 -261 382 -234 q 225 -289 293 -289 l 125 -289 l 125 -184 z "},"ӱ":{"ha":836,"x_min":71,"x_max":782,"o":"m 237 890 q 216 910 216 890 l 216 1006 q 237 1027 216 1027 l 334 1027 q 354 1006 354 1027 l 354 910 q 334 890 354 890 l 237 890 m 503 890 q 482 910 482 890 l 482 1006 q 503 1027 482 1027 l 599 1027 q 619 1006 619 1027 l 619 910 q 599 890 619 890 l 503 890 m 125 -184 l 199 -184 q 250 -175 229 -184 q 285 -153 271 -166 q 301 -132 292 -145 q 319 -99 309 -119 q 339 -52 328 -79 q 364 12 351 -24 l 71 760 l 203 760 l 428 165 l 650 760 l 782 760 l 582 244 q 561 191 569 212 q 548 156 553 170 q 538 131 542 142 q 530 108 534 120 q 519 79 525 96 q 503 35 513 62 q 471 -46 485 -12 q 447 -107 458 -81 q 428 -151 437 -133 q 412 -183 420 -170 q 337 -261 382 -234 q 225 -289 293 -289 l 125 -289 l 125 -184 z "},"ӳ":{"ha":836,"x_min":71,"x_max":782,"o":"m 363 1118 l 478 1118 l 326 863 l 233 863 l 363 1118 m 589 1118 l 710 1118 l 542 863 l 450 863 l 589 1118 m 125 -184 l 199 -184 q 250 -175 229 -184 q 285 -153 271 -166 q 301 -132 292 -145 q 319 -99 309 -119 q 339 -52 328 -79 q 364 12 351 -24 l 71 760 l 203 760 l 428 165 l 650 760 l 782 760 l 582 244 q 561 191 569 212 q 548 156 553 170 q 538 131 542 142 q 530 108 534 120 q 519 79 525 96 q 503 35 513 62 q 471 -46 485 -12 q 447 -107 458 -81 q 428 -151 437 -133 q 412 -183 420 -170 q 337 -261 382 -234 q 225 -289 293 -289 l 125 -289 l 125 -184 z "},"ӵ":{"ha":836,"x_min":112,"x_max":692,"o":"m 243 897 q 223 918 223 897 l 223 1014 q 243 1034 223 1034 l 340 1034 q 361 1014 361 1034 l 361 918 q 340 897 361 897 l 243 897 m 509 897 q 489 918 489 897 l 489 1014 q 509 1034 489 1034 l 606 1034 q 626 1014 626 1034 l 626 918 q 606 897 626 897 l 509 897 m 568 316 q 545 307 562 314 q 502 292 528 300 q 439 279 475 285 q 360 273 403 273 q 257 286 303 273 q 179 328 211 299 q 129 402 146 357 q 112 512 112 448 l 112 761 l 237 761 l 237 512 q 250 443 237 469 q 285 403 262 417 q 337 385 307 389 q 400 381 367 381 q 447 383 425 381 q 489 389 469 385 q 528 402 509 394 q 568 421 547 410 l 568 761 l 692 761 l 692 0 l 568 0 l 568 316 z "},"ӷ":{"ha":836,"x_min":198,"x_max":708,"o":"m 323 0 l 198 0 l 198 760 l 708 760 l 708 635 l 323 635 l 323 125 l 455 125 l 455 -194 l 323 -194 l 323 0 z "},"ӹ":{"ha":836,"x_min":71,"x_max":766,"o":"m 237 896 q 216 916 216 896 l 216 1013 q 237 1033 216 1033 l 334 1033 q 354 1013 354 1033 l 354 916 q 334 896 354 896 l 237 896 m 503 896 q 482 916 482 896 l 482 1013 q 503 1033 482 1033 l 599 1033 q 619 1013 619 1033 l 619 916 q 599 896 619 896 l 503 896 m 71 760 l 194 760 l 194 452 l 256 452 q 383 438 327 452 q 478 396 439 425 q 537 325 517 368 q 558 224 558 282 q 479 56 558 111 q 256 0 401 0 l 71 0 l 71 760 m 641 760 l 766 760 l 766 0 l 641 0 l 641 760 m 250 104 q 380 134 334 104 q 425 226 425 164 q 379 319 425 288 q 250 350 333 350 l 194 350 l 194 104 l 250 104 z "},"ԑ":{"ha":836,"x_min":115,"x_max":722,"o":"m 470 -15 q 319 1 385 -15 q 208 48 254 18 q 138 121 162 78 q 115 218 115 164 q 128 290 115 258 q 166 347 141 323 q 225 388 191 372 q 304 412 260 404 q 180 472 223 429 q 136 581 136 515 q 158 662 136 626 q 219 724 179 699 q 316 764 259 750 q 444 778 373 778 q 694 745 551 778 l 694 632 q 564 659 623 650 q 457 667 506 667 q 311 638 361 667 q 260 563 260 610 q 309 488 260 517 q 450 458 357 458 l 562 458 l 562 361 l 454 361 q 363 351 404 361 q 296 324 323 342 q 253 282 268 307 q 239 227 239 257 q 300 129 239 165 q 479 94 361 94 q 608 105 547 94 q 722 140 669 117 l 722 23 q 595 -5 656 4 q 470 -15 534 -15 z "},"ԛ":{"ha":836,"x_min":90,"x_max":712,"o":"m 587 94 q 504 7 555 37 q 382 -22 453 -22 q 260 5 315 -22 q 168 83 206 32 q 110 209 130 135 q 90 376 90 282 q 110 543 90 469 q 168 669 130 617 q 260 748 206 720 q 382 775 315 775 q 504 746 452 775 q 587 660 555 717 l 599 757 l 712 757 l 712 -292 l 587 -292 l 587 94 m 404 83 q 541 157 494 83 q 587 376 587 231 q 541 595 587 522 q 404 669 494 669 q 267 596 313 669 q 222 376 222 522 q 267 157 222 231 q 404 83 313 83 z "}}}
